<?xml version="1.0" encoding="UTF-8"?>
<!DOCTYPE svg PUBLIC "-//W3C//DTD SVG 1.1//EN"
    "http://www.w3.org/Graphics/SVG/1.1/DTD/svg11.dtd"><svg xmlns="http://www.w3.org/2000/svg" height="600.0000" stroke-opacity="1" viewBox="0.0 0.0 800.0 600.0" font-size="1" width="800.0000" xmlns:xlink="http://www.w3.org/1999/xlink" stroke="rgb(0,0,0)" version="1.1"><defs></defs><g stroke-linejoin="bevel" stroke-opacity="0.0" fill-opacity="1.0" stroke="rgb(0,0,0)" stroke-width="0.0" fill="rgb(255,255,255)" stroke-linecap="butt" stroke-miterlimit="10.0"><path d="M 0.0000,0.0000 v 600.0000 h 800.0000 v -600.0000 Z"/></g><g stroke-linejoin="bevel" stroke-opacity="0.0" fill-opacity="1.0" stroke="rgb(0,0,0)" stroke-width="0.0" fill="rgb(0,0,0)" stroke-linecap="butt" stroke-miterlimit="10.0"><path d="M 371.8480,14.1016 ZM 373.6807,11.2834 c 0.5390,0.4620 1.1935,0.7546 1.1935 0.7546c 0.6545,0.2926 1.2859,0.2926 1.2859 0.2926c 0.7084,0.0000 1.0549,-0.2618 1.0549 -0.2618c 0.3465,-0.2618 0.3465,-0.7084 0.3465 -0.7084c 0.0000,-0.2310 -0.1001,-0.4004 -0.1001 -0.4004c -0.1001,-0.1694 -0.2926,-0.3003 -0.2926 -0.3003c -0.1925,-0.1309 -0.4620,-0.2464 -0.4620 -0.2464l -0.5929,-0.2541 l -1.3090,-0.5544 c -0.3850,-0.1540 -0.7469,-0.4004 -0.7469 -0.4004c -0.3619,-0.2464 -0.6468,-0.5775 -0.6468 -0.5775c -0.2849,-0.3311 -0.4543,-0.7700 -0.4543 -0.7700c -0.1694,-0.4389 -0.1694,-0.9933 -0.1694 -0.9933c 0.0000,-0.6160 0.2618,-1.1627 0.2618 -1.1627c 0.2618,-0.5467 0.7392,-0.9548 0.7392 -0.9548c 0.4774,-0.4081 1.1319,-0.6391 1.1319 -0.6391c 0.6545,-0.2310 1.4399,-0.2310 1.4399 -0.2310c 0.8778,0.0000 1.7325,0.3388 1.7325 0.3388c 0.8547,0.3388 1.5015,0.9856 1.5015 0.9856l -1.1550,1.4322 c -0.4928,-0.3850 -0.9856,-0.5929 -0.9856 -0.5929c -0.4928,-0.2079 -1.0934,-0.2079 -1.0934 -0.2079c -0.5852,-0.0000 -0.9317,0.2387 -0.9317 0.2387c -0.3465,0.2387 -0.3465,0.6699 -0.3465 0.6699c 0.0000,0.2310 0.1155,0.3927 0.1155 0.3927c 0.1155,0.1617 0.3234,0.2926 0.3234 0.2926c 0.2079,0.1309 0.4851,0.2464 0.4851 0.2464c 0.2772,0.1155 0.6006,0.2541 0.6006 0.2541l 1.2936,0.5236 c 0.9240,0.3696 1.4553,1.0164 1.4553 1.0164c 0.5313,0.6468 0.5313,1.7094 0.5313 1.7094c 0.0000,0.6314 -0.2541,1.1935 -0.2541 1.1935c -0.2541,0.5621 -0.7392,0.9856 -0.7392 0.9856c -0.4851,0.4235 -1.1935,0.6776 -1.1935 0.6776c -0.7084,0.2541 -1.6016,0.2541 -1.6016 0.2541c -0.9856,-0.0000 -1.9636,-0.3619 -1.9636 -0.3619c -0.9779,-0.3619 -1.7479,-1.0857 -1.7479 -1.0857ZM 380.4107,14.1016 ZM 380.9651,10.2823 c 0.0000,-0.9548 0.3080,-1.7017 0.3080 -1.7017c 0.3080,-0.7469 0.8239,-1.2551 0.8239 -1.2551c 0.5159,-0.5082 1.1935,-0.7777 1.1935 -0.7777c 0.6776,-0.2695 1.4014,-0.2695 1.4014 -0.2695c 0.7238,0.0000 1.3937,0.2695 1.3937 0.2695c 0.6699,0.2695 1.1858,0.7777 1.1858 0.7777c 0.5159,0.5082 0.8239,1.2551 0.8239 1.2551c 0.3080,0.7469 0.3080,1.7017 0.3080 1.7017c 0.0000,0.9548 -0.3080,1.7017 -0.3080 1.7017c -0.3080,0.7469 -0.8239,1.2551 -0.8239 1.2551c -0.5159,0.5082 -1.1858,0.7777 -1.1858 0.7777c -0.6699,0.2695 -1.3937,0.2695 -1.3937 0.2695c -0.7238,-0.0000 -1.4014,-0.2695 -1.4014 -0.2695c -0.6776,-0.2695 -1.1935,-0.7777 -1.1935 -0.7777c -0.5159,-0.5082 -0.8239,-1.2551 -0.8239 -1.2551c -0.3080,-0.7469 -0.3080,-1.7017 -0.3080 -1.7017ZM 380.9651,10.2823 ZM 383.2906,10.2823 c 0.0000,1.0010 0.3465,1.5862 0.3465 1.5862c 0.3465,0.5852 1.0549,0.5852 1.0549 0.5852c 0.6930,0.0000 1.0472,-0.5852 1.0472 -0.5852c 0.3542,-0.5852 0.3542,-1.5862 0.3542 -1.5862c 0.0000,-1.0010 -0.3542,-1.5862 -0.3542 -1.5862c -0.3542,-0.5852 -1.0472,-0.5852 -1.0472 -0.5852c -0.7084,-0.0000 -1.0549,0.5852 -1.0549 0.5852c -0.3465,0.5852 -0.3465,1.5862 -0.3465 1.5862ZM 388.9579,14.1016 ZM 389.9589,3.3060 h 2.2639 v 8.5164 c 0.0000,0.3542 0.1309,0.4928 0.1309 0.4928c 0.1309,0.1386 0.2695,0.1386 0.2695 0.1386h 0.1309 c 0.0000,0.0000 0.1463,-0.0308 0.1463 -0.0308l 0.2772,1.6786 c -0.1848,0.0770 -0.4697,0.1309 -0.4697 0.1309c -0.2849,0.0539 -0.6699,0.0539 -0.6699 0.0539c -0.5852,-0.0000 -0.9856,-0.1848 -0.9856 -0.1848c -0.4004,-0.1848 -0.6391,-0.5159 -0.6391 -0.5159c -0.2387,-0.3311 -0.3465,-0.8008 -0.3465 -0.8008c -0.1078,-0.4697 -0.1078,-1.0549 -0.1078 -1.0549v -8.4240 ZM 393.3624,14.1016 ZM 394.2864,6.4630 h 2.2639 v 4.4507 c 0.0000,0.8316 0.2310,1.1396 0.2310 1.1396c 0.2310,0.3080 0.7238,0.3080 0.7238 0.3080c 0.4312,0.0000 0.7238,-0.2002 0.7238 -0.2002c 0.2926,-0.2002 0.6314,-0.6468 0.6314 -0.6468v -5.0513 h 2.2639 v 7.6386 h -1.8480 l -0.1694,-1.0626 h -0.0462 c -0.4928,0.5852 -1.0549,0.9163 -1.0549 0.9163c -0.5621,0.3311 -1.3475,0.3311 -1.3475 0.3311c -1.2474,-0.0000 -1.8095,-0.8162 -1.8095 -0.8162c -0.5621,-0.8162 -0.5621,-2.2639 -0.5621 -2.2639v -4.7433 ZM 402.1099,14.1016 ZM 403.4189,8.2341 h -1.0472 v -1.6786 l 1.1704,-0.0924 l 0.2618,-2.0329 h 1.8789 v 2.0329 h 1.8326 v 1.7710 h -1.8326 v 3.0647 c 0.0000,0.6468 0.2695,0.9317 0.2695 0.9317c 0.2695,0.2849 0.7161,0.2849 0.7161 0.2849c 0.1848,0.0000 0.3773,-0.0462 0.3773 -0.0462c 0.1925,-0.0462 0.3465,-0.1078 0.3465 -0.1078l 0.3542,1.6478 c -0.3080,0.0924 -0.7238,0.1848 -0.7238 0.1848c -0.4158,0.0924 -0.9702,0.0924 -0.9702 0.0924c -0.7084,-0.0000 -1.2089,-0.2156 -1.2089 -0.2156c -0.5005,-0.2156 -0.8162,-0.6006 -0.8162 -0.6006c -0.3157,-0.3850 -0.4620,-0.9317 -0.4620 -0.9317c -0.1463,-0.5467 -0.1463,-1.2089 -0.1463 -1.2089v -3.0955 ZM 408.0082,14.1016 ZM 410.1335,5.3388 c -0.5698,-0.0000 -0.9394,-0.3311 -0.9394 -0.3311c -0.3696,-0.3311 -0.3696,-0.8547 -0.3696 -0.8547c 0.0000,-0.5236 0.3696,-0.8470 0.3696 -0.8470c 0.3696,-0.3234 0.9394,-0.3234 0.9394 -0.3234c 0.5852,0.0000 0.9471,0.3234 0.9471 0.3234c 0.3619,0.3234 0.3619,0.8470 0.3619 0.8470c 0.0000,0.5236 -0.3619,0.8547 -0.3619 0.8547c -0.3619,0.3311 -0.9471,0.3311 -0.9471 0.3311ZM 410.1335,5.3388 ZM 409.0092,6.4630 h 2.2639 v 7.6386 h -2.2639 v -7.6386 ZM 412.2587,14.1016 ZM 412.8131,10.2823 c 0.0000,-0.9548 0.3080,-1.7017 0.3080 -1.7017c 0.3080,-0.7469 0.8239,-1.2551 0.8239 -1.2551c 0.5159,-0.5082 1.1935,-0.7777 1.1935 -0.7777c 0.6776,-0.2695 1.4014,-0.2695 1.4014 -0.2695c 0.7238,0.0000 1.3937,0.2695 1.3937 0.2695c 0.6699,0.2695 1.1858,0.7777 1.1858 0.7777c 0.5159,0.5082 0.8239,1.2551 0.8239 1.2551c 0.3080,0.7469 0.3080,1.7017 0.3080 1.7017c 0.0000,0.9548 -0.3080,1.7017 -0.3080 1.7017c -0.3080,0.7469 -0.8239,1.2551 -0.8239 1.2551c -0.5159,0.5082 -1.1858,0.7777 -1.1858 0.7777c -0.6699,0.2695 -1.3937,0.2695 -1.3937 0.2695c -0.7238,-0.0000 -1.4014,-0.2695 -1.4014 -0.2695c -0.6776,-0.2695 -1.1935,-0.7777 -1.1935 -0.7777c -0.5159,-0.5082 -0.8239,-1.2551 -0.8239 -1.2551c -0.3080,-0.7469 -0.3080,-1.7017 -0.3080 -1.7017ZM 412.8131,10.2823 ZM 415.1386,10.2823 c 0.0000,1.0010 0.3465,1.5862 0.3465 1.5862c 0.3465,0.5852 1.0549,0.5852 1.0549 0.5852c 0.6930,0.0000 1.0472,-0.5852 1.0472 -0.5852c 0.3542,-0.5852 0.3542,-1.5862 0.3542 -1.5862c 0.0000,-1.0010 -0.3542,-1.5862 -0.3542 -1.5862c -0.3542,-0.5852 -1.0472,-0.5852 -1.0472 -0.5852c -0.7084,-0.0000 -1.0549,0.5852 -1.0549 0.5852c -0.3465,0.5852 -0.3465,1.5862 -0.3465 1.5862ZM 420.8060,14.1016 ZM 421.8070,6.4630 h 1.8480 l 0.1540,0.9702 h 0.0616 c 0.4928,-0.4620 1.0780,-0.8085 1.0780 -0.8085c 0.5852,-0.3465 1.3706,-0.3465 1.3706 -0.3465c 1.2474,0.0000 1.8095,0.8162 1.8095 0.8162c 0.5621,0.8162 0.5621,2.2639 0.5621 2.2639v 4.7433 h -2.2639 v -4.4507 c 0.0000,-0.8316 -0.2233,-1.1396 -0.2233 -1.1396c -0.2233,-0.3080 -0.7161,-0.3080 -0.7161 -0.3080c -0.4312,-0.0000 -0.7392,0.1925 -0.7392 0.1925c -0.3080,0.1925 -0.6776,0.5467 -0.6776 0.5467v 5.1591 h -2.2639 v -7.6386 Z"/></g><g stroke-linejoin="miter" stroke-opacity="1.0" fill-opacity="0.0" stroke="rgb(211,211,211)" stroke-width="0.9999999999999997" fill="rgb(0,0,0)" stroke-dashoffset="0.0" stroke-linecap="butt" stroke-miterlimit="10.0" stroke-dasharray="4.999999999999998,4.999999999999998"><path d="M 38.0357,35.0000 v 515.0000 "/></g><g stroke-linejoin="miter" stroke-opacity="1.0" fill-opacity="0.0" stroke="rgb(211,211,211)" stroke-width="0.9999999999999997" fill="rgb(0,0,0)" stroke-dashoffset="0.0" stroke-linecap="butt" stroke-miterlimit="10.0" stroke-dasharray="4.999999999999998,4.999999999999998"><path d="M 188.0504,35.0000 v 515.0000 "/></g><g stroke-linejoin="miter" stroke-opacity="1.0" fill-opacity="0.0" stroke="rgb(211,211,211)" stroke-width="0.9999999999999997" fill="rgb(0,0,0)" stroke-dashoffset="0.0" stroke-linecap="butt" stroke-miterlimit="10.0" stroke-dasharray="4.999999999999998,4.999999999999998"><path d="M 338.0651,35.0000 v 515.0000 "/></g><g stroke-linejoin="miter" stroke-opacity="1.0" fill-opacity="0.0" stroke="rgb(211,211,211)" stroke-width="0.9999999999999997" fill="rgb(0,0,0)" stroke-dashoffset="0.0" stroke-linecap="butt" stroke-miterlimit="10.0" stroke-dasharray="4.999999999999998,4.999999999999998"><path d="M 488.0798,35.0000 v 515.0000 "/></g><g stroke-linejoin="miter" stroke-opacity="1.0" fill-opacity="0.0" stroke="rgb(211,211,211)" stroke-width="0.9999999999999997" fill="rgb(0,0,0)" stroke-dashoffset="0.0" stroke-linecap="butt" stroke-miterlimit="10.0" stroke-dasharray="4.999999999999998,4.999999999999998"><path d="M 638.0945,35.0000 v 515.0000 "/></g><g stroke-linejoin="miter" stroke-opacity="1.0" fill-opacity="0.0" stroke="rgb(211,211,211)" stroke-width="0.9999999999999997" fill="rgb(0,0,0)" stroke-dashoffset="0.0" stroke-linecap="butt" stroke-miterlimit="10.0" stroke-dasharray="4.999999999999998,4.999999999999998"><path d="M 788.1092,35.0000 v 515.0000 "/></g><g stroke-linejoin="miter" stroke-opacity="1.0" fill-opacity="0.0" stroke="rgb(211,211,211)" stroke-width="0.9999999999999997" fill="rgb(0,0,0)" stroke-dashoffset="0.0" stroke-linecap="butt" stroke-miterlimit="10.0" stroke-dasharray="4.999999999999998,4.999999999999998"><path d="M 38.0357,550.0000 h 750.0735 "/></g><g stroke-linejoin="miter" stroke-opacity="1.0" fill-opacity="0.0" stroke="rgb(211,211,211)" stroke-width="0.9999999999999997" fill="rgb(0,0,0)" stroke-dashoffset="0.0" stroke-linecap="butt" stroke-miterlimit="10.0" stroke-dasharray="4.999999999999998,4.999999999999998"><path d="M 38.0357,464.1667 h 750.0735 "/></g><g stroke-linejoin="miter" stroke-opacity="1.0" fill-opacity="0.0" stroke="rgb(211,211,211)" stroke-width="0.9999999999999997" fill="rgb(0,0,0)" stroke-dashoffset="0.0" stroke-linecap="butt" stroke-miterlimit="10.0" stroke-dasharray="4.999999999999998,4.999999999999998"><path d="M 38.0357,378.3333 h 750.0735 "/></g><g stroke-linejoin="miter" stroke-opacity="1.0" fill-opacity="0.0" stroke="rgb(211,211,211)" stroke-width="0.9999999999999997" fill="rgb(0,0,0)" stroke-dashoffset="0.0" stroke-linecap="butt" stroke-miterlimit="10.0" stroke-dasharray="4.999999999999998,4.999999999999998"><path d="M 38.0357,292.5000 h 750.0735 "/></g><g stroke-linejoin="miter" stroke-opacity="1.0" fill-opacity="0.0" stroke="rgb(211,211,211)" stroke-width="0.9999999999999997" fill="rgb(0,0,0)" stroke-dashoffset="0.0" stroke-linecap="butt" stroke-miterlimit="10.0" stroke-dasharray="4.999999999999998,4.999999999999998"><path d="M 38.0357,206.6667 h 750.0735 "/></g><g stroke-linejoin="miter" stroke-opacity="1.0" fill-opacity="0.0" stroke="rgb(211,211,211)" stroke-width="0.9999999999999997" fill="rgb(0,0,0)" stroke-dashoffset="0.0" stroke-linecap="butt" stroke-miterlimit="10.0" stroke-dasharray="4.999999999999998,4.999999999999998"><path d="M 38.0357,120.8333 h 750.0735 "/></g><g stroke-linejoin="miter" stroke-opacity="1.0" fill-opacity="0.0" stroke="rgb(211,211,211)" stroke-width="0.9999999999999997" fill="rgb(0,0,0)" stroke-dashoffset="0.0" stroke-linecap="butt" stroke-miterlimit="10.0" stroke-dasharray="4.999999999999998,4.999999999999998"><path d="M 38.0357,35.0000 h 750.0735 "/></g><g stroke-linejoin="round" stroke-opacity="1.0" fill-opacity="0.0" stroke="rgb(0,0,255)" stroke-width="0.9999999999999997" fill="rgb(0,0,0)" stroke-linecap="round" stroke-miterlimit="10.0"><defs><clipPath id="myClip1"><path d="M 38.0357,35.0000 v 515.0000 h 750.0735 v -515.0000 Z"/></clipPath></defs><g clip-path="url(#myClip1)"><path d="M 38.0357,292.7299 l 0.7501,3.4890 l 0.7501,3.0026 l 0.7501,0.9114 l 0.7501,-1.5045 l 0.7501,-3.5184 l 0.7501,-4.7800 l 0.7501,-5.1901 l 0.7501,-4.8075 l 0.7501,-3.7827 l 0.7501,-3.4723 l 0.7501,-1.7434 l 0.7501,0.1549 l 0.7501,2.0394 l 0.7501,2.4169 l 0.7501,3.8534 l 0.7501,5.0154 l 0.7501,5.8422 l 0.7501,6.3018 l 0.7501,6.7308 l 0.7501,6.4556 l 0.7501,5.8354 l 0.7501,6.6138 l 0.7501,5.4525 l 0.7501,4.0378 l 0.7501,2.4433 l 0.7501,0.7444 l 0.7501,2.0699 l 0.7501,0.3717 l 0.7501,-1.3406 l 0.7501,0.1251 l 0.7501,-1.4380 l 0.7501,-2.9514 l 0.7501,-4.3662 l 0.7501,-5.6396 l 0.7501,-6.7357 l 0.7501,-7.6261 l 0.7501,-7.2173 l 0.7501,-7.6440 l 0.7501,-7.8557 l 0.7501,-7.8522 l 0.7501,-7.6390 l 0.7501,-7.2268 l 0.7501,-6.6308 l 0.7501,-8.5109 l 0.7501,-7.6035 l 0.7501,-6.5157 l 0.7501,-5.2767 l 0.7501,-3.9178 l 0.7501,-2.4718 l 0.7501,-0.9720 l 0.7501,0.5485 l 0.7501,2.0574 l 0.7501,-1.4357 l 0.7501,-0.0338 l 0.7501,1.3688 l 0.7501,2.7447 l 0.7501,4.0682 l 0.7501,5.3154 l 0.7501,6.4646 l 0.7501,3.8627 l 0.7501,4.7656 l 0.7501,5.5851 l 0.7501,6.3084 l 0.7501,6.9247 l 0.7501,7.4255 l 0.7501,7.8044 l 0.7501,8.0570 l 0.7501,8.1812 l 0.7501,8.1770 l 0.7501,8.0464 l 0.7501,7.7931 l 0.7501,7.4227 l 0.7501,9.7609 l 0.7501,9.1764 l 0.7501,8.4597 l 0.7501,7.6227 l 0.7501,6.6788 l 0.7501,5.6424 l 0.7501,4.5290 l 0.7501,3.3545 l 0.7501,2.1353 l 0.7501,0.8882 l 0.7501,-0.3704 l 0.7501,-1.6242 l 0.7501,-2.8572 l 0.7501,-4.0542 l 0.7501,-5.2009 l 0.7501,-0.3242 l 0.7501,-1.3354 l 0.7501,-2.3307 l 0.7501,-3.2982 l 0.7501,-4.2270 l 0.7501,-5.1067 l 0.7501,-5.9278 l 0.7501,-6.6817 l 0.7501,-7.3605 l 0.7501,-7.9576 l 0.7501,-8.4672 l 0.7501,-8.8847 l 0.7501,-9.2065 l 0.7501,-9.4303 l 0.7501,-9.5546 l 0.7501,-9.5791 l 0.7501,-9.5045 l 0.7501,-11.1732 l 0.7501,-10.9055 l 0.7501,-10.5282 l 0.7501,-10.0463 l 0.7501,-9.4654 l 0.7501,-8.7921 l 0.7501,-8.0337 l 0.7501,-7.1985 l 0.7501,-6.2949 l 0.7501,-5.3321 l 0.7501,-4.3197 l 0.7501,-3.2674 l 0.7501,-2.1853 l 0.7501,-1.0835 l 0.7501,0.0280 l 0.7501,-7.7374 l 0.7501,-6.6314 l 0.7501,-5.4673 l 0.7501,-4.2557 l 0.7501,-3.0074 l 0.7501,-1.7335 l 0.7501,-0.4451 l 0.7501,0.8470 l 0.7501,2.1318 l 0.7501,3.3987 l 0.7501,4.6375 l 0.7501,5.8382 l 0.7501,6.9914 l 0.7501,8.0881 l 0.7501,9.1201 l 0.7501,10.0797 l 0.7501,10.9598 l 0.7501,11.7542 l 0.7501,12.4573 l 0.7501,13.0645 l 0.7501,13.5718 l 0.7501,13.9761 l 0.7501,14.2751 l 0.7501,14.4674 l 0.7501,14.5522 l 0.7501,15.7269 l 0.7501,15.5975 l 0.7501,15.3549 l 0.7501,15.0014 l 0.7501,14.5404 l 0.7501,13.9760 l 0.7501,13.3129 l 0.7501,12.5563 l 0.7501,11.7123 l 0.7501,10.7872 l 0.7501,9.7880 l 0.7501,8.7220 l 0.7501,7.5969 l 0.7501,6.4207 l 0.7501,5.2017 l 0.7501,3.9481 l 0.7501,2.6686 l 0.7501,1.3718 l 0.7501,0.0662 l 0.7501,-1.2396 l 0.7501,-2.5372 l 0.7501,-3.8183 l 0.7501,-5.0748 l 0.7501,-6.2990 l 0.7501,-7.4832 l 0.7501,-8.6203 l 0.7501,-9.7036 l 0.7501,-10.7267 l 0.7501,-11.6836 l 0.7501,-12.5688 l 0.7501,-13.3775 l 0.7501,-6.4053 l 0.7501,-7.0511 l 0.7501,-7.6546 l 0.7501,-8.2126 l 0.7501,-8.7219 l 0.7501,-9.1799 l 0.7501,-9.5843 l 0.7501,-9.9329 l 0.7501,-10.2241 l 0.7501,-10.4565 l 0.7501,-10.6291 l 0.7501,-10.7414 l 0.7501,-10.7930 l 0.7501,-10.7839 l 0.7501,-10.7146 l 0.7501,-10.5858 l 0.7501,-10.3985 l 0.7501,-10.1540 l 0.7501,-9.8541 l 0.7501,-9.5007 l 0.7501,-9.0959 l 0.7501,-8.6422 l 0.7501,-8.1424 l 0.7501,-7.5993 l 0.7501,-7.0160 l 0.7501,-6.3958 l 0.7501,-5.7423 l 0.7501,-5.0589 l 0.7501,-4.3494 l 0.7501,-3.6175 l 0.7501,-2.8673 l 0.7501,-2.1025 l 0.7501,-1.3272 l 0.7501,-11.6642 l 0.7501,-10.8762 l 0.7501,-10.0338 l 0.7501,-9.1415 l 0.7501,-8.2040 l 0.7501,-7.2261 l 0.7501,-6.2130 l 0.7501,-5.1697 l 0.7501,-4.1014 l 0.7501,-3.0135 l 0.7501,-1.9113 l 0.7501,-0.8002 l 0.7501,0.3145 l 0.7501,1.4275 l 0.7501,2.5335 l 0.7501,3.6272 l 0.7501,4.7037 l 0.7501,5.7580 l 0.7501,6.7853 l 0.7501,7.7809 l 0.7501,8.7405 l 0.7501,9.6598 l 0.7501,10.5348 l 0.7501,11.3617 l 0.7501,12.1371 l 0.7501,12.8576 l 0.7501,13.5203 l 0.7501,14.1224 l 0.7501,14.6617 l 0.7501,15.1360 l 0.7501,15.5435 l 0.7501,11.4010 l 0.7501,11.6721 l 0.7501,11.8923 l 0.7501,12.0610 l 0.7501,12.1777 l 0.7501,12.2421 l 0.7501,12.2541 l 0.7501,12.2140 l 0.7501,12.1221 l 0.7501,11.9792 l 0.7501,11.7859 l 0.7501,11.5433 l 0.7501,11.2527 l 0.7501,10.9154 l 0.7501,10.5332 l 0.7501,10.1076 l 0.7501,9.6408 l 0.7501,9.1347 l 0.7501,8.5916 l 0.7501,8.0139 l 0.7501,7.4040 l 0.7501,6.7645 l 0.7501,6.0981 l 0.7501,5.4077 l 0.7501,4.6959 l 0.7501,3.9658 l 0.7501,3.2202 l 0.7501,2.4622 l 0.7501,1.6949 l 0.7501,0.9211 l 0.7501,0.1440 l 0.7501,-0.6335 l 0.7501,-1.4083 l 0.7501,-2.1775 l 0.7501,-2.9382 l 0.7501,-3.6875 l 0.7501,-4.4226 l 0.7501,-5.1408 l 0.7501,-5.8395 l 0.7501,-6.5161 l 0.7501,-7.1682 l 0.7501,-7.7935 l 0.7501,-8.3898 l 0.7501,-8.9550 l 0.7501,-9.4870 l 0.7501,-9.9842 l 0.7501,-10.4449 l 0.7501,-10.8674 l 0.7501,-11.2505 l 0.7501,-5.5671 l 0.7501,-5.8691 l 0.7501,-6.1500 l 0.7501,-6.4089 l 0.7501,-6.6449 l 0.7501,-6.8574 l 0.7501,-7.0455 l 0.7501,-7.2088 l 0.7501,-7.3469 l 0.7501,-7.4592 l 0.7501,-7.5456 l 0.7501,-7.6057 l 0.7501,-7.6396 l 0.7501,-7.6472 l 0.7501,-7.6285 l 0.7501,-7.5838 l 0.7501,-7.5133 l 0.7501,-7.4173 l 0.7501,-7.2962 l 0.7501,-7.1506 l 0.7501,-6.9810 l 0.7501,-6.7881 l 0.7501,-6.5726 l 0.7501,-6.3353 l 0.7501,-6.0772 l 0.7501,-5.7990 l 0.7501,-5.5019 l 0.7501,-5.1868 l 0.7501,-4.8549 l 0.7501,-4.5072 l 0.7501,-4.1451 l 0.7501,-3.7697 l 0.7501,-3.3822 l 0.7501,-2.9840 l 0.7501,-2.5764 l 0.7501,-2.1607 l 0.7501,-1.7382 l 0.7501,-1.3104 l 0.7501,-0.8786 l 0.7501,-0.4442 l 0.7501,-0.0085 l 0.7501,0.4270 l 0.7501,0.8611 l 0.7501,1.2924 l 0.7501,1.7194 l 0.7501,2.1411 l 0.7501,2.5560 l 0.7501,2.9629 l 0.7501,3.3606 l 0.7501,3.7479 l 0.7501,4.1237 l 0.7501,4.4868 l 0.7501,4.8363 l 0.7501,5.1711 l 0.7501,5.4902 l 0.7501,5.7928 l 0.7501,6.0780 l 0.7501,6.3451 l 0.7501,6.5932 l 0.7501,6.8218 l 0.7501,7.0302 l 0.7501,7.2179 l 0.7501,7.3844 l 0.7501,4.4774 l 0.7501,4.6009 l 0.7501,4.7110 l 0.7501,4.8075 l 0.7501,4.8900 l 0.7501,4.9585 l 0.7501,5.0128 l 0.7501,5.0527 l 0.7501,5.0782 l 0.7501,5.0893 l 0.7501,5.0860 l 0.7501,5.0684 l 0.7501,5.0365 l 0.7501,4.9905 l 0.7501,4.9305 l 0.7501,4.8568 l 0.7501,4.7697 l 0.7501,4.6694 l 0.7501,4.5562 l 0.7501,4.4305 l 0.7501,4.2927 l 0.7501,4.1432 l 0.7501,3.9824 l 0.7501,3.8109 l 0.7501,3.6291 l 0.7501,3.4375 l 0.7501,3.2368 l 0.7501,3.0274 l 0.7501,2.8100 l 0.7501,2.5851 l 0.7501,2.3535 l 0.7501,2.1156 l 0.7501,1.8723 l 0.7501,1.6241 l 0.7501,1.3718 l 0.7501,1.1159 l 0.7501,0.8572 l 0.7501,0.5964 l 0.7501,0.3341 l 0.7501,0.0711 l 0.7501,-0.1920 l 0.7501,-0.4545 l 0.7501,-0.7158 l 0.7501,-0.9750 l 0.7501,-1.2317 l 0.7501,-1.4851 l 0.7501,-1.7346 l 0.7501,-1.9797 l 0.7501,-2.2195 l 0.7501,-2.4537 l 0.7501,-2.6816 l 0.7501,-2.9027 l 0.7501,-3.1164 l 0.7501,-3.3222 l 0.7501,-3.5196 l 0.7501,-3.7083 l 0.7501,-3.8876 l 0.7501,-4.0573 l 0.7501,-4.2168 l 0.7501,-4.3660 l 0.7501,-4.5044 l 0.7501,-4.6317 l 0.7501,-4.7477 l 0.7501,-4.8520 l 0.7501,-4.9446 l 0.7501,-2.9765 l 0.7501,-3.0453 l 0.7501,-3.1066 l 0.7501,-3.1605 l 0.7501,-3.2068 l 0.7501,-3.2455 l 0.7501,-3.2764 l 0.7501,-3.2995 l 0.7501,-3.3148 l 0.7501,-3.3223 l 0.7501,-3.3219 l 0.7501,-3.3137 l 0.7501,-3.2978 l 0.7501,-3.2742 l 0.7501,-3.2430 l 0.7501,-3.2043 l 0.7501,-3.1581 l 0.7501,-3.1047 l 0.7501,-3.0441 l 0.7501,-2.9766 l 0.7501,-2.9023 l 0.7501,-2.8214 l 0.7501,-2.7340 l 0.7501,-2.6405 l 0.7501,-2.5411 l 0.7501,-2.4360 l 0.7501,-2.3254 l 0.7501,-2.2096 l 0.7501,-2.0889 l 0.7501,-1.9636 l 0.7501,-1.8340 l 0.7501,-1.7003 l 0.7501,-1.5629 l 0.7501,-1.4222 l 0.7501,-1.2783 l 0.7501,-1.1317 l 0.7501,-0.9827 l 0.7501,-0.8316 l 0.7501,-0.6788 l 0.7501,-0.5245 l 0.7501,-0.3692 l 0.7501,-0.2132 l 0.7501,-0.0567 l 0.7501,0.0997 l 0.7501,0.2559 l 0.7501,0.4115 l 0.7501,0.5661 l 0.7501,0.7194 l 0.7501,0.8711 l 0.7501,1.0208 l 0.7501,1.1683 l 0.7501,1.3133 l 0.7501,1.4554 l 0.7501,1.5944 l 0.7501,1.7300 l 0.7501,1.8618 l 0.7501,1.9897 l 0.7501,2.1134 l 0.7501,2.2326 l 0.7501,2.3471 l 0.7501,2.4567 l 0.7501,2.5612 l 0.7501,2.6603 l 0.7501,-0.3187 l 0.7501,-0.2304 l 0.7501,-0.1416 l 0.7501,-0.0527 l 0.7501,0.0364 l 0.7501,0.1253 l 0.7501,0.2139 l 0.7501,0.3020 l 0.7501,0.3895 l 0.7501,0.4761 l 0.7501,0.5618 l 0.7501,0.6463 l 0.7501,0.7294 l 0.7501,0.8110 l 0.7501,0.8910 l 0.7501,0.9692 l 0.7501,1.0454 l 0.7501,1.1195 l 0.7501,1.1914 l 0.7501,1.2608 l 0.7501,1.3278 l 0.7501,1.3922 l 0.7501,1.4538 l 0.7501,1.5125 l 0.7501,1.5682 l 0.7501,1.6209 l 0.7501,1.6705 l 0.7501,1.7167 l 0.7501,1.7597 l 0.7501,1.7993 l 0.7501,1.8353 l 0.7501,1.8679 l 0.7501,1.8969 l 0.7501,1.9223 l 0.7501,1.9440 l 0.7501,1.9620 l 0.7501,1.9763 l 0.7501,1.9869 l 0.7501,1.9937 l 0.7501,1.9968 l 0.7501,1.9962 l 0.7501,1.9918 l 0.7501,1.9838 l 0.7501,1.9720 l 0.7501,1.9567 l 0.7501,1.9377 l 0.7501,1.9151 l 0.7501,1.8890 l 0.7501,1.8595 l 0.7501,1.8266 l 0.7501,1.7904 l 0.7501,1.7509 l 0.7501,1.7083 l 0.7501,1.6626 l 0.7501,1.6139 l 0.7501,1.5624 l 0.7501,1.5080 l 0.7501,1.4510 l 0.7501,1.3914 l 0.7501,1.3293 l 0.7501,1.2649 l 0.7501,1.1983 l 0.7501,1.1296 l 0.7501,1.0590 l 0.7501,0.9865 l 0.7501,0.9123 l 0.7501,0.8365 l 0.7501,0.7594 l 0.7501,0.6809 l 0.7501,0.6013 l 0.7501,0.5207 l 0.7501,0.4392 l 0.7501,0.3571 l 0.7501,0.2743 l 0.7501,0.1912 l 0.7501,0.1077 l 0.7501,0.0242 l 0.7501,-0.0594 l 0.7501,-0.1428 l 0.7501,-0.2259 l 0.7501,-0.3086 l 0.7501,-0.3907 l 0.7501,-0.4721 l 0.7501,-0.5526 l 0.7501,-0.6322 l 0.7501,-0.7106 l 0.7501,-0.7878 l 0.7501,-0.8636 l 0.7501,-0.9379 l 0.7501,-1.0106 l 0.7501,-1.0816 l 0.7501,-1.1507 l 0.7501,-1.2178 l 0.7501,-1.2829 l 0.7501,-1.3458 l 0.7501,-1.4065 l 0.7501,-1.4648 l 0.7501,0.8080 l 0.7501,0.7544 l 0.7501,0.6997 l 0.7501,0.6438 l 0.7501,0.5869 l 0.7501,0.5291 l 0.7501,0.4705 l 0.7501,0.4111 l 0.7501,0.3511 l 0.7501,0.2906 l 0.7501,0.2297 l 0.7501,0.1684 l 0.7501,0.1070 l 0.7501,0.0453 l 0.7501,-0.0163 l 0.7501,-0.0779 l 0.7501,-0.1393 l 0.7501,-0.2005 l 0.7501,-0.2613 l 0.7501,-0.3216 l 0.7501,-0.3814 l 0.7501,-0.4405 l 0.7501,-0.4990 l 0.7501,-0.5566 l 0.7501,-0.6133 l 0.7501,-0.6690 l 0.7501,-0.7236 l 0.7501,-0.7771 l 0.7501,-0.8293 l 0.7501,-0.8802 l 0.7501,-0.9297 l 0.7501,-0.9777 l 0.7501,-1.0243 l 0.7501,-1.0692 l 0.7501,-1.1124 l 0.7501,-1.1540 l 0.7501,-1.1937 l 0.7501,-1.2316 l 0.7501,-1.2676 l 0.7501,-1.3017 l 0.7501,-1.3338 l 0.7501,-1.3638 l 0.7501,-1.3918 l 0.7501,-1.4177 l 0.7501,-1.4414 l 0.7501,-1.4630 l 0.7501,-1.4823 l 0.7501,-1.4995 l 0.7501,-1.5144 l 0.7501,-1.5271 l 0.7501,-1.5375 l 0.7501,-1.5456 l 0.7501,-1.5515 l 0.7501,-1.5550 l 0.7501,-1.5563 l 0.7501,-1.5553 l 0.7501,-1.5521 l 0.7501,-1.5466 l 0.7501,-1.5388 l 0.7501,-1.5289 l 0.7501,-1.5167 l 0.7501,-1.5023 l 0.7501,-1.4858 l 0.7501,-1.4672 l 0.7501,-1.4465 l 0.7501,-1.4237 l 0.7501,-1.3989 l 0.7501,-1.3721 l 0.7501,-1.3434 l 0.7501,-1.3129 l 0.7501,-1.2805 l 0.7501,-1.2462 l 0.7501,-1.2103 l 0.7501,-1.1727 l 0.7501,-1.1335 l 0.7501,-1.0927 l 0.7501,-1.0504 l 0.7501,-1.0067 l 0.7501,-0.9616 l 0.7501,-0.9152 l 0.7501,-0.8676 l 0.7501,-0.8188 l 0.7501,-0.7689 l 0.7501,-0.7180 l 0.7501,-0.6662 l 0.7501,-0.6135 l 0.7501,-0.5599 l 0.7501,-0.5057 l 0.7501,-0.4508 l 0.7501,-0.3954 l 0.7501,-0.3394 l 0.7501,-0.2830 l 0.7501,-0.2263 l 0.7501,-0.1693 l 0.7501,-0.1122 l 0.7501,-0.0549 l 0.7501,0.0024 l 0.7501,0.0596 l 0.7501,0.1167 l 0.7501,0.1736 l 0.7501,0.2302 l 0.7501,0.2865 l 0.7501,0.3424 l 0.7501,0.3977 l 0.7501,0.4525 l 0.7501,0.5067 l 0.7501,0.5601 l 0.7501,0.6128 l 0.7501,0.6646 l 0.7501,0.7155 l 0.7501,0.7654 l 0.7501,0.8143 l 0.7501,0.8621 l 0.7501,0.9087 l 0.7501,0.9542 l 0.7501,0.9983 l 0.7501,1.0411 l 0.7501,1.0826 l 0.7501,1.1226 l 0.7501,1.1612 l 0.7501,1.1982 l 0.7501,1.2337 l 0.7501,1.2676 l 0.7501,1.2999 l 0.7501,1.3305 l 0.7501,1.3593 l 0.7501,1.3864 l 0.7501,0.0667 l 0.7501,0.0903 l 0.7501,0.1139 l 0.7501,0.1373 l 0.7501,0.1604 l 0.7501,0.1834 l 0.7501,0.2061 l 0.7501,0.2286 l 0.7501,0.2507 l 0.7501,0.2725 l 0.7501,0.2939 l 0.7501,0.3150 l 0.7501,0.3357 l 0.7501,0.3559 l 0.7501,0.3757 l 0.7501,0.3950 l 0.7501,0.4138 l 0.7501,0.4321 l 0.7501,0.4498 l 0.7501,0.4670 l 0.7501,0.4836 l 0.7501,0.4996 l 0.7501,0.5150 l 0.7501,0.5298 l 0.7501,0.5439 l 0.7501,0.5573 l 0.7501,0.5701 l 0.7501,0.5822 l 0.7501,0.5935 l 0.7501,0.6042 l 0.7501,0.6141 l 0.7501,0.6233 l 0.7501,0.6318 l 0.7501,0.6395 l 0.7501,0.6464 l 0.7501,0.6526 l 0.7501,0.6580 l 0.7501,0.6626 l 0.7501,0.6665 l 0.7501,0.6695 l 0.7501,0.6718 l 0.7501,0.6734 l 0.7501,0.6741 l 0.7501,0.6740 l 0.7501,0.6732 l 0.7501,0.6716 l 0.7501,0.6692 l 0.7501,0.6661 l 0.7501,0.6622 l 0.7501,0.6576 l 0.7501,0.6522 l 0.7501,0.6461 l 0.7501,0.6392 l 0.7501,0.6317 l 0.7501,0.6234 l 0.7501,0.6144 l 0.7501,0.6048 l 0.7501,0.5944 l 0.7501,0.5835 l 0.7501,0.5719 l 0.7501,0.5596 l 0.7501,0.5468 l 0.7501,0.5333 l 0.7501,0.5193 l 0.7501,0.5047 l 0.7501,0.4895 l 0.7501,0.4739 l 0.7501,0.4577 l 0.7501,0.4411 l 0.7501,0.4239 l 0.7501,0.4064 l 0.7501,0.3884 l 0.7501,0.3700 l 0.7501,0.3512 l 0.7501,0.3320 l 0.7501,0.3126 l 0.7501,0.2928 l 0.7501,0.2727 l 0.7501,0.2523 l 0.7501,0.2317 l 0.7501,0.2108 l 0.7501,0.1897 l 0.7501,0.1685 l 0.7501,0.1471 l 0.7501,0.1256 l 0.7501,0.1039 l 0.7501,0.0822 l 0.7501,0.0604 l 0.7501,0.0386 l 0.7501,0.0167 l 0.7501,-0.0051 l 0.7501,-0.0270 l 0.7501,-0.0487 l 0.7501,-0.0704 l 0.7501,-0.0921 l 0.7501,-0.1135 l 0.7501,-0.1349 l 0.7501,-0.1561 l 0.7501,-0.1771 l 0.7501,-0.1979 l 0.7501,-0.2184 l 0.7501,-0.2388 l 0.7501,-0.2588 l 0.7501,-0.2786 l 0.7501,-0.2981 l 0.7501,-0.3172 l 0.7501,-0.3360 l 0.7501,-0.3545 l 0.7501,-0.3725 l 0.7501,-0.3902 l 0.7501,-0.4074 l 0.7501,-0.4243 l 0.7501,-0.4406 l 0.7501,-0.4566 l 0.7501,-0.4720 l 0.7501,-0.4870 l 0.7501,-0.5014 l 0.7501,-0.5154 l 0.7501,-0.5288 l 0.7501,-0.5417 l 0.7501,-0.5540 l 0.7501,-0.5657 l 0.7501,-0.5769 l 0.7501,-0.5876 l 0.7501,-0.5976 l 0.7501,-0.6070 l 0.7501,-0.6158 l 0.7501,-0.6241 l 0.7501,-0.6317 l 0.7501,-0.1679 l 0.7501,-0.1743 l 0.7501,-0.1805 l 0.7501,-0.1865 l 0.7501,-0.1924 l 0.7501,-0.1980 l 0.7501,-0.2034 l 0.7501,-0.2087 l 0.7501,-0.2137 l 0.7501,-0.2186 l 0.7501,-0.2232 l 0.7501,-0.2276 l 0.7501,-0.2318 l 0.7501,-0.2357 l 0.7501,-0.2395 l 0.7501,-0.2430 l 0.7501,-0.2462 l 0.7501,-0.2493 l 0.7501,-0.2520 l 0.7501,-0.2546 l 0.7501,-0.2569 l 0.7501,-0.2590 l 0.7501,-0.2608 l 0.7501,-0.2624 l 0.7501,-0.2637 l 0.7501,-0.2648 l 0.7501,-0.2657 l 0.7501,-0.2663 l 0.7501,-0.2667 l 0.7501,-0.2668 l 0.7501,-0.2666 l 0.7501,-0.2663 l 0.7501,-0.2657 l 0.7501,-0.2648 l 0.7501,-0.2637 l 0.7501,-0.2624 l 0.7501,-0.2608 l 0.7501,-0.2590 l 0.7501,-0.2570 l 0.7501,-0.2547 l 0.7501,-0.2522 l 0.7501,-0.2495 l 0.7501,-0.2466 l 0.7501,-0.2435 l 0.7501,-0.2401 l 0.7501,-0.2365 l 0.7501,-0.2328 l 0.7501,-0.2288 l 0.7501,-0.2246 l 0.7501,-0.2203 l 0.7501,-0.2157 l 0.7501,-0.2110 l 0.7501,-0.2061 l 0.7501,-0.2010 l 0.7501,-0.1957 l 0.7501,-0.1903 l 0.7501,-0.1848 l 0.7501,-0.1790 l 0.7501,-0.1732 l 0.7501,-0.1671 l 0.7501,-0.1610 l 0.7501,-0.1547 l 0.7501,-0.1483 l 0.7501,-0.1418 l 0.7501,-0.1351 l 0.7501,-0.1284 l 0.7501,-0.1215 l 0.7501,-0.1146 l 0.7501,-0.1076 l 0.7501,-0.1004 l 0.7501,-0.0933 l 0.7501,-0.0860 l 0.7501,-0.0787 l 0.7501,-0.0713 l 0.7501,-0.0639 l 0.7501,-0.0564 l 0.7501,-0.0489 l 0.7501,-0.0414 l 0.7501,-0.0338 l 0.7501,-0.0262 l 0.7501,-0.0186 l 0.7501,-0.0110 l 0.7501,-0.0034 l 0.7501,0.0042 l 0.7501,0.0117 l 0.7501,0.0193 l 0.7501,0.0268 l 0.7501,0.0343 l 0.7501,0.0418 l 0.7501,0.0492 l 0.7501,0.0566 l 0.7501,0.0639 l 0.7501,0.0711 l 0.7501,0.0783 l 0.7501,0.0854 l 0.7501,0.0925 l 0.7501,0.0994 l 0.7501,0.1063 l 0.7501,0.1131 l 0.7501,0.1197 l 0.7501,0.1263 l 0.7501,0.1328 l 0.7501,0.1391 l 0.7501,0.1453 l 0.7501,0.1514 l 0.7501,0.1574 l 0.7501,0.1633 l 0.7501,0.1690 l 0.7501,0.1745 l 0.7501,0.1800 l 0.7501,0.1853 l 0.7501,0.1904 l 0.7501,0.1954 l 0.7501,0.2002 l 0.7501,0.2048 l 0.7501,0.2093 l 0.7501,0.2137 l 0.7501,0.2178 l 0.7501,0.2218 l 0.7501,0.2256 l 0.7501,0.2293 l 0.7501,0.2327 l 0.7501,0.2360 l 0.7501,0.2391 l 0.7501,0.2420 l 0.7501,0.2447 l 0.7501,0.2473 l 0.7501,0.0420 l 0.7501,0.0441 l 0.7501,0.0463 l 0.7501,0.0484 l 0.7501,0.0504 l 0.7501,0.0524 l 0.7501,0.0544 l 0.7501,0.0563 l 0.7501,0.0582 l 0.7501,0.0601 l 0.7501,0.0619 l 0.7501,0.0636 l 0.7501,0.0653 l 0.7501,0.0670 l 0.7501,0.0686 l 0.7501,0.0701 l 0.7501,0.0716 l 0.7501,0.0730 l 0.7501,0.0744 l 0.7501,0.0757 l 0.7501,0.0770 l 0.7501,0.0782 l 0.7501,0.0794 l 0.7501,0.0805 l 0.7501,0.0815 l 0.7501,0.0825 l 0.7501,0.0834 l 0.7501,0.0843 l 0.7501,0.0851 l 0.7501,0.0858 l 0.7501,0.0865 l 0.7501,0.0871 l 0.7501,0.0877 l 0.7501,0.0882 l 0.7501,0.0886 l 0.7501,0.0890 l 0.7501,0.0893 l 0.7501,0.0895 l 0.7501,0.0897 l 0.7501,0.0898 "/></g></g><g stroke-linejoin="miter" stroke-opacity="1.0" fill-opacity="0.0" stroke="rgb(0,0,0)" stroke-width="0.9999999999999997" fill="rgb(0,0,0)" stroke-linecap="square" stroke-miterlimit="10.0"><path d="M 38.0357,550.0000 v -515.0000 "/></g><g stroke-linejoin="miter" stroke-opacity="1.0" fill-opacity="0.0" stroke="rgb(0,0,0)" stroke-width="0.9999999999999997" fill="rgb(0,0,0)" stroke-linecap="butt" stroke-miterlimit="10.0"><path d="M 38.0357,550.0000 h 2.0000 "/></g><g stroke-linejoin="miter" stroke-opacity="1.0" fill-opacity="0.0" stroke="rgb(0,0,0)" stroke-width="0.9999999999999997" fill="rgb(0,0,0)" stroke-linecap="butt" stroke-miterlimit="10.0"><path d="M 38.0357,539.2708 h 2.0000 "/></g><g stroke-linejoin="miter" stroke-opacity="1.0" fill-opacity="0.0" stroke="rgb(0,0,0)" stroke-width="0.9999999999999997" fill="rgb(0,0,0)" stroke-linecap="butt" stroke-miterlimit="10.0"><path d="M 38.0357,528.5417 h 2.0000 "/></g><g stroke-linejoin="miter" stroke-opacity="1.0" fill-opacity="0.0" stroke="rgb(0,0,0)" stroke-width="0.9999999999999997" fill="rgb(0,0,0)" stroke-linecap="butt" stroke-miterlimit="10.0"><path d="M 38.0357,517.8125 h 2.0000 "/></g><g stroke-linejoin="miter" stroke-opacity="1.0" fill-opacity="0.0" stroke="rgb(0,0,0)" stroke-width="0.9999999999999997" fill="rgb(0,0,0)" stroke-linecap="butt" stroke-miterlimit="10.0"><path d="M 38.0357,507.0833 h 2.0000 "/></g><g stroke-linejoin="miter" stroke-opacity="1.0" fill-opacity="0.0" stroke="rgb(0,0,0)" stroke-width="0.9999999999999997" fill="rgb(0,0,0)" stroke-linecap="butt" stroke-miterlimit="10.0"><path d="M 38.0357,496.3542 h 2.0000 "/></g><g stroke-linejoin="miter" stroke-opacity="1.0" fill-opacity="0.0" stroke="rgb(0,0,0)" stroke-width="0.9999999999999997" fill="rgb(0,0,0)" stroke-linecap="butt" stroke-miterlimit="10.0"><path d="M 38.0357,485.6250 h 2.0000 "/></g><g stroke-linejoin="miter" stroke-opacity="1.0" fill-opacity="0.0" stroke="rgb(0,0,0)" stroke-width="0.9999999999999997" fill="rgb(0,0,0)" stroke-linecap="butt" stroke-miterlimit="10.0"><path d="M 38.0357,474.8958 h 2.0000 "/></g><g stroke-linejoin="miter" stroke-opacity="1.0" fill-opacity="0.0" stroke="rgb(0,0,0)" stroke-width="0.9999999999999997" fill="rgb(0,0,0)" stroke-linecap="butt" stroke-miterlimit="10.0"><path d="M 38.0357,464.1667 h 2.0000 "/></g><g stroke-linejoin="miter" stroke-opacity="1.0" fill-opacity="0.0" stroke="rgb(0,0,0)" stroke-width="0.9999999999999997" fill="rgb(0,0,0)" stroke-linecap="butt" stroke-miterlimit="10.0"><path d="M 38.0357,453.4375 h 2.0000 "/></g><g stroke-linejoin="miter" stroke-opacity="1.0" fill-opacity="0.0" stroke="rgb(0,0,0)" stroke-width="0.9999999999999997" fill="rgb(0,0,0)" stroke-linecap="butt" stroke-miterlimit="10.0"><path d="M 38.0357,442.7083 h 2.0000 "/></g><g stroke-linejoin="miter" stroke-opacity="1.0" fill-opacity="0.0" stroke="rgb(0,0,0)" stroke-width="0.9999999999999997" fill="rgb(0,0,0)" stroke-linecap="butt" stroke-miterlimit="10.0"><path d="M 38.0357,431.9792 h 2.0000 "/></g><g stroke-linejoin="miter" stroke-opacity="1.0" fill-opacity="0.0" stroke="rgb(0,0,0)" stroke-width="0.9999999999999997" fill="rgb(0,0,0)" stroke-linecap="butt" stroke-miterlimit="10.0"><path d="M 38.0357,421.2500 h 2.0000 "/></g><g stroke-linejoin="miter" stroke-opacity="1.0" fill-opacity="0.0" stroke="rgb(0,0,0)" stroke-width="0.9999999999999997" fill="rgb(0,0,0)" stroke-linecap="butt" stroke-miterlimit="10.0"><path d="M 38.0357,410.5208 h 2.0000 "/></g><g stroke-linejoin="miter" stroke-opacity="1.0" fill-opacity="0.0" stroke="rgb(0,0,0)" stroke-width="0.9999999999999997" fill="rgb(0,0,0)" stroke-linecap="butt" stroke-miterlimit="10.0"><path d="M 38.0357,399.7917 h 2.0000 "/></g><g stroke-linejoin="miter" stroke-opacity="1.0" fill-opacity="0.0" stroke="rgb(0,0,0)" stroke-width="0.9999999999999997" fill="rgb(0,0,0)" stroke-linecap="butt" stroke-miterlimit="10.0"><path d="M 38.0357,389.0625 h 2.0000 "/></g><g stroke-linejoin="miter" stroke-opacity="1.0" fill-opacity="0.0" stroke="rgb(0,0,0)" stroke-width="0.9999999999999997" fill="rgb(0,0,0)" stroke-linecap="butt" stroke-miterlimit="10.0"><path d="M 38.0357,378.3333 h 2.0000 "/></g><g stroke-linejoin="miter" stroke-opacity="1.0" fill-opacity="0.0" stroke="rgb(0,0,0)" stroke-width="0.9999999999999997" fill="rgb(0,0,0)" stroke-linecap="butt" stroke-miterlimit="10.0"><path d="M 38.0357,367.6042 h 2.0000 "/></g><g stroke-linejoin="miter" stroke-opacity="1.0" fill-opacity="0.0" stroke="rgb(0,0,0)" stroke-width="0.9999999999999997" fill="rgb(0,0,0)" stroke-linecap="butt" stroke-miterlimit="10.0"><path d="M 38.0357,356.8750 h 2.0000 "/></g><g stroke-linejoin="miter" stroke-opacity="1.0" fill-opacity="0.0" stroke="rgb(0,0,0)" stroke-width="0.9999999999999997" fill="rgb(0,0,0)" stroke-linecap="butt" stroke-miterlimit="10.0"><path d="M 38.0357,346.1458 h 2.0000 "/></g><g stroke-linejoin="miter" stroke-opacity="1.0" fill-opacity="0.0" stroke="rgb(0,0,0)" stroke-width="0.9999999999999997" fill="rgb(0,0,0)" stroke-linecap="butt" stroke-miterlimit="10.0"><path d="M 38.0357,335.4167 h 2.0000 "/></g><g stroke-linejoin="miter" stroke-opacity="1.0" fill-opacity="0.0" stroke="rgb(0,0,0)" stroke-width="0.9999999999999997" fill="rgb(0,0,0)" stroke-linecap="butt" stroke-miterlimit="10.0"><path d="M 38.0357,324.6875 h 2.0000 "/></g><g stroke-linejoin="miter" stroke-opacity="1.0" fill-opacity="0.0" stroke="rgb(0,0,0)" stroke-width="0.9999999999999997" fill="rgb(0,0,0)" stroke-linecap="butt" stroke-miterlimit="10.0"><path d="M 38.0357,313.9583 h 2.0000 "/></g><g stroke-linejoin="miter" stroke-opacity="1.0" fill-opacity="0.0" stroke="rgb(0,0,0)" stroke-width="0.9999999999999997" fill="rgb(0,0,0)" stroke-linecap="butt" stroke-miterlimit="10.0"><path d="M 38.0357,303.2292 h 2.0000 "/></g><g stroke-linejoin="miter" stroke-opacity="1.0" fill-opacity="0.0" stroke="rgb(0,0,0)" stroke-width="0.9999999999999997" fill="rgb(0,0,0)" stroke-linecap="butt" stroke-miterlimit="10.0"><path d="M 38.0357,292.5000 h 2.0000 "/></g><g stroke-linejoin="miter" stroke-opacity="1.0" fill-opacity="0.0" stroke="rgb(0,0,0)" stroke-width="0.9999999999999997" fill="rgb(0,0,0)" stroke-linecap="butt" stroke-miterlimit="10.0"><path d="M 38.0357,281.7708 h 2.0000 "/></g><g stroke-linejoin="miter" stroke-opacity="1.0" fill-opacity="0.0" stroke="rgb(0,0,0)" stroke-width="0.9999999999999997" fill="rgb(0,0,0)" stroke-linecap="butt" stroke-miterlimit="10.0"><path d="M 38.0357,271.0417 h 2.0000 "/></g><g stroke-linejoin="miter" stroke-opacity="1.0" fill-opacity="0.0" stroke="rgb(0,0,0)" stroke-width="0.9999999999999997" fill="rgb(0,0,0)" stroke-linecap="butt" stroke-miterlimit="10.0"><path d="M 38.0357,260.3125 h 2.0000 "/></g><g stroke-linejoin="miter" stroke-opacity="1.0" fill-opacity="0.0" stroke="rgb(0,0,0)" stroke-width="0.9999999999999997" fill="rgb(0,0,0)" stroke-linecap="butt" stroke-miterlimit="10.0"><path d="M 38.0357,249.5833 h 2.0000 "/></g><g stroke-linejoin="miter" stroke-opacity="1.0" fill-opacity="0.0" stroke="rgb(0,0,0)" stroke-width="0.9999999999999997" fill="rgb(0,0,0)" stroke-linecap="butt" stroke-miterlimit="10.0"><path d="M 38.0357,238.8542 h 2.0000 "/></g><g stroke-linejoin="miter" stroke-opacity="1.0" fill-opacity="0.0" stroke="rgb(0,0,0)" stroke-width="0.9999999999999997" fill="rgb(0,0,0)" stroke-linecap="butt" stroke-miterlimit="10.0"><path d="M 38.0357,228.1250 h 2.0000 "/></g><g stroke-linejoin="miter" stroke-opacity="1.0" fill-opacity="0.0" stroke="rgb(0,0,0)" stroke-width="0.9999999999999997" fill="rgb(0,0,0)" stroke-linecap="butt" stroke-miterlimit="10.0"><path d="M 38.0357,217.3958 h 2.0000 "/></g><g stroke-linejoin="miter" stroke-opacity="1.0" fill-opacity="0.0" stroke="rgb(0,0,0)" stroke-width="0.9999999999999997" fill="rgb(0,0,0)" stroke-linecap="butt" stroke-miterlimit="10.0"><path d="M 38.0357,206.6667 h 2.0000 "/></g><g stroke-linejoin="miter" stroke-opacity="1.0" fill-opacity="0.0" stroke="rgb(0,0,0)" stroke-width="0.9999999999999997" fill="rgb(0,0,0)" stroke-linecap="butt" stroke-miterlimit="10.0"><path d="M 38.0357,195.9375 h 2.0000 "/></g><g stroke-linejoin="miter" stroke-opacity="1.0" fill-opacity="0.0" stroke="rgb(0,0,0)" stroke-width="0.9999999999999997" fill="rgb(0,0,0)" stroke-linecap="butt" stroke-miterlimit="10.0"><path d="M 38.0357,185.2083 h 2.0000 "/></g><g stroke-linejoin="miter" stroke-opacity="1.0" fill-opacity="0.0" stroke="rgb(0,0,0)" stroke-width="0.9999999999999997" fill="rgb(0,0,0)" stroke-linecap="butt" stroke-miterlimit="10.0"><path d="M 38.0357,174.4792 h 2.0000 "/></g><g stroke-linejoin="miter" stroke-opacity="1.0" fill-opacity="0.0" stroke="rgb(0,0,0)" stroke-width="0.9999999999999997" fill="rgb(0,0,0)" stroke-linecap="butt" stroke-miterlimit="10.0"><path d="M 38.0357,163.7500 h 2.0000 "/></g><g stroke-linejoin="miter" stroke-opacity="1.0" fill-opacity="0.0" stroke="rgb(0,0,0)" stroke-width="0.9999999999999997" fill="rgb(0,0,0)" stroke-linecap="butt" stroke-miterlimit="10.0"><path d="M 38.0357,153.0208 h 2.0000 "/></g><g stroke-linejoin="miter" stroke-opacity="1.0" fill-opacity="0.0" stroke="rgb(0,0,0)" stroke-width="0.9999999999999997" fill="rgb(0,0,0)" stroke-linecap="butt" stroke-miterlimit="10.0"><path d="M 38.0357,142.2917 h 2.0000 "/></g><g stroke-linejoin="miter" stroke-opacity="1.0" fill-opacity="0.0" stroke="rgb(0,0,0)" stroke-width="0.9999999999999997" fill="rgb(0,0,0)" stroke-linecap="butt" stroke-miterlimit="10.0"><path d="M 38.0357,131.5625 h 2.0000 "/></g><g stroke-linejoin="miter" stroke-opacity="1.0" fill-opacity="0.0" stroke="rgb(0,0,0)" stroke-width="0.9999999999999997" fill="rgb(0,0,0)" stroke-linecap="butt" stroke-miterlimit="10.0"><path d="M 38.0357,120.8333 h 2.0000 "/></g><g stroke-linejoin="miter" stroke-opacity="1.0" fill-opacity="0.0" stroke="rgb(0,0,0)" stroke-width="0.9999999999999997" fill="rgb(0,0,0)" stroke-linecap="butt" stroke-miterlimit="10.0"><path d="M 38.0357,110.1042 h 2.0000 "/></g><g stroke-linejoin="miter" stroke-opacity="1.0" fill-opacity="0.0" stroke="rgb(0,0,0)" stroke-width="0.9999999999999997" fill="rgb(0,0,0)" stroke-linecap="butt" stroke-miterlimit="10.0"><path d="M 38.0357,99.3750 h 2.0000 "/></g><g stroke-linejoin="miter" stroke-opacity="1.0" fill-opacity="0.0" stroke="rgb(0,0,0)" stroke-width="0.9999999999999997" fill="rgb(0,0,0)" stroke-linecap="butt" stroke-miterlimit="10.0"><path d="M 38.0357,88.6458 h 2.0000 "/></g><g stroke-linejoin="miter" stroke-opacity="1.0" fill-opacity="0.0" stroke="rgb(0,0,0)" stroke-width="0.9999999999999997" fill="rgb(0,0,0)" stroke-linecap="butt" stroke-miterlimit="10.0"><path d="M 38.0357,77.9167 h 2.0000 "/></g><g stroke-linejoin="miter" stroke-opacity="1.0" fill-opacity="0.0" stroke="rgb(0,0,0)" stroke-width="0.9999999999999997" fill="rgb(0,0,0)" stroke-linecap="butt" stroke-miterlimit="10.0"><path d="M 38.0357,67.1875 h 2.0000 "/></g><g stroke-linejoin="miter" stroke-opacity="1.0" fill-opacity="0.0" stroke="rgb(0,0,0)" stroke-width="0.9999999999999997" fill="rgb(0,0,0)" stroke-linecap="butt" stroke-miterlimit="10.0"><path d="M 38.0357,56.4583 h 2.0000 "/></g><g stroke-linejoin="miter" stroke-opacity="1.0" fill-opacity="0.0" stroke="rgb(0,0,0)" stroke-width="0.9999999999999997" fill="rgb(0,0,0)" stroke-linecap="butt" stroke-miterlimit="10.0"><path d="M 38.0357,45.7292 h 2.0000 "/></g><g stroke-linejoin="miter" stroke-opacity="1.0" fill-opacity="0.0" stroke="rgb(0,0,0)" stroke-width="0.9999999999999997" fill="rgb(0,0,0)" stroke-linecap="butt" stroke-miterlimit="10.0"><path d="M 38.0357,35.0000 h 2.0000 "/></g><g stroke-linejoin="miter" stroke-opacity="1.0" fill-opacity="0.0" stroke="rgb(0,0,0)" stroke-width="0.9999999999999997" fill="rgb(0,0,0)" stroke-linecap="butt" stroke-miterlimit="10.0"><path d="M 38.0357,550.0000 h 5.0000 "/></g><g stroke-linejoin="miter" stroke-opacity="1.0" fill-opacity="0.0" stroke="rgb(0,0,0)" stroke-width="0.9999999999999997" fill="rgb(0,0,0)" stroke-linecap="butt" stroke-miterlimit="10.0"><path d="M 38.0357,464.1667 h 5.0000 "/></g><g stroke-linejoin="miter" stroke-opacity="1.0" fill-opacity="0.0" stroke="rgb(0,0,0)" stroke-width="0.9999999999999997" fill="rgb(0,0,0)" stroke-linecap="butt" stroke-miterlimit="10.0"><path d="M 38.0357,378.3333 h 5.0000 "/></g><g stroke-linejoin="miter" stroke-opacity="1.0" fill-opacity="0.0" stroke="rgb(0,0,0)" stroke-width="0.9999999999999997" fill="rgb(0,0,0)" stroke-linecap="butt" stroke-miterlimit="10.0"><path d="M 38.0357,292.5000 h 5.0000 "/></g><g stroke-linejoin="miter" stroke-opacity="1.0" fill-opacity="0.0" stroke="rgb(0,0,0)" stroke-width="0.9999999999999997" fill="rgb(0,0,0)" stroke-linecap="butt" stroke-miterlimit="10.0"><path d="M 38.0357,206.6667 h 5.0000 "/></g><g stroke-linejoin="miter" stroke-opacity="1.0" fill-opacity="0.0" stroke="rgb(0,0,0)" stroke-width="0.9999999999999997" fill="rgb(0,0,0)" stroke-linecap="butt" stroke-miterlimit="10.0"><path d="M 38.0357,120.8333 h 5.0000 "/></g><g stroke-linejoin="miter" stroke-opacity="1.0" fill-opacity="0.0" stroke="rgb(0,0,0)" stroke-width="0.9999999999999997" fill="rgb(0,0,0)" stroke-linecap="butt" stroke-miterlimit="10.0"><path d="M 38.0357,35.0000 h 5.0000 "/></g><g stroke-linejoin="bevel" stroke-opacity="0.0" fill-opacity="1.0" stroke="rgb(0,0,0)" stroke-width="0.0" fill="rgb(0,0,0)" stroke-linecap="butt" stroke-miterlimit="10.0"><path d="M 10.0000,553.4454 ZM 10.4307,550.4832 h 2.4160 v 0.6618 h -2.4160 v -0.6618 ZM 13.2668,553.4454 ZM 16.0819,552.8887 c 0.2521,0.0000 0.4622,-0.1050 0.4622 -0.1050c 0.2101,-0.1050 0.3676,-0.2994 0.3676 -0.2994c 0.1576,-0.1943 0.2468,-0.4622 0.2468 -0.4622c 0.0893,-0.2679 0.0893,-0.6040 0.0893 -0.6040c 0.0000,-0.6618 -0.3046,-1.0399 -0.3046 -1.0399c -0.3046,-0.3782 -0.9349,-0.3782 -0.9349 -0.3782c -0.3151,-0.0000 -0.6880,0.2048 -0.6880 0.2048c -0.3729,0.2048 -0.7090,0.6775 -0.7090 0.6775c 0.0840,0.9874 0.4569,1.4968 0.4569 1.4968c 0.3729,0.5095 1.0137,0.5095 1.0137 0.5095ZM 16.0819,552.8887 ZM 17.4580,547.8676 c -0.2101,-0.2416 -0.4989,-0.3834 -0.4989 -0.3834c -0.2889,-0.1418 -0.6040,-0.1418 -0.6040 -0.1418c -0.3466,-0.0000 -0.6618,0.1471 -0.6618 0.1471c -0.3151,0.1471 -0.5567,0.4832 -0.5567 0.4832c -0.2416,0.3361 -0.3887,0.8771 -0.3887 0.8771c -0.1471,0.5410 -0.1576,1.3393 -0.1576 1.3393c 0.3151,-0.3887 0.7353,-0.6145 0.7353 -0.6145c 0.4202,-0.2258 0.8298,-0.2258 0.8298 -0.2258c 0.8718,0.0000 1.3918,0.5147 1.3918 0.5147c 0.5200,0.5147 0.5200,1.5546 0.5200 1.5546c 0.0000,0.4832 -0.1576,0.8771 -0.1576 0.8771c -0.1576,0.3939 -0.4307,0.6775 -0.4307 0.6775c -0.2731,0.2836 -0.6303,0.4412 -0.6303 0.4412c -0.3571,0.1576 -0.7668,0.1576 -0.7668 0.1576c -0.4937,-0.0000 -0.9139,-0.1996 -0.9139 -0.1996c -0.4202,-0.1996 -0.7300,-0.6040 -0.7300 -0.6040c -0.3099,-0.4044 -0.4884,-1.0084 -0.4884 -1.0084c -0.1786,-0.6040 -0.1786,-1.4128 -0.1786 -1.4128c 0.0000,-1.0084 0.2101,-1.7174 0.2101 -1.7174c 0.2101,-0.7090 0.5672,-1.1555 0.5672 -1.1555c 0.3571,-0.4464 0.8141,-0.6513 0.8141 -0.6513c 0.4569,-0.2048 0.9611,-0.2048 0.9611 -0.2048c 0.5462,0.0000 0.9401,0.2048 0.9401 0.2048c 0.3939,0.2048 0.6775,0.5095 0.6775 0.5095ZM 18.4874,553.4454 ZM 21.1029,553.5714 c -1.0189,-0.0000 -1.5861,-0.9034 -1.5861 -0.9034c -0.5672,-0.9034 -0.5672,-2.5945 -0.5672 -2.5945c 0.0000,-1.6912 0.5672,-2.5735 0.5672 -2.5735c 0.5672,-0.8824 1.5861,-0.8824 1.5861 -0.8824c 1.0084,0.0000 1.5756,0.8824 1.5756 0.8824c 0.5672,0.8824 0.5672,2.5735 0.5672 2.5735c 0.0000,1.6912 -0.5672,2.5945 -0.5672 2.5945c -0.5672,0.9034 -1.5756,0.9034 -1.5756 0.9034ZM 21.1029,553.5714 ZM 21.1029,552.8782 c 0.2941,0.0000 0.5305,-0.1628 0.5305 -0.1628c 0.2363,-0.1628 0.4097,-0.5042 0.4097 -0.5042c 0.1733,-0.3414 0.2679,-0.8718 0.2679 -0.8718c 0.0945,-0.5305 0.0945,-1.2658 0.0945 -1.2658c 0.0000,-0.7353 -0.0945,-1.2605 -0.0945 -1.2605c -0.0945,-0.5252 -0.2679,-0.8561 -0.2679 -0.8561c -0.1733,-0.3309 -0.4097,-0.4884 -0.4097 -0.4884c -0.2363,-0.1576 -0.5305,-0.1576 -0.5305 -0.1576c -0.2941,-0.0000 -0.5357,0.1576 -0.5357 0.1576c -0.2416,0.1576 -0.4149,0.4884 -0.4149 0.4884c -0.1733,0.3309 -0.2679,0.8561 -0.2679 0.8561c -0.0945,0.5252 -0.0945,1.2605 -0.0945 1.2605c 0.0000,1.4706 0.3624,2.1376 0.3624 2.1376c 0.3624,0.6670 0.9506,0.6670 0.9506 0.6670ZM 23.7080,553.4454 ZM 26.3235,553.5714 c -1.0189,-0.0000 -1.5861,-0.9034 -1.5861 -0.9034c -0.5672,-0.9034 -0.5672,-2.5945 -0.5672 -2.5945c 0.0000,-1.6912 0.5672,-2.5735 0.5672 -2.5735c 0.5672,-0.8824 1.5861,-0.8824 1.5861 -0.8824c 1.0084,0.0000 1.5756,0.8824 1.5756 0.8824c 0.5672,0.8824 0.5672,2.5735 0.5672 2.5735c 0.0000,1.6912 -0.5672,2.5945 -0.5672 2.5945c -0.5672,0.9034 -1.5756,0.9034 -1.5756 0.9034ZM 26.3235,553.5714 ZM 26.3235,552.8782 c 0.2941,0.0000 0.5305,-0.1628 0.5305 -0.1628c 0.2363,-0.1628 0.4097,-0.5042 0.4097 -0.5042c 0.1733,-0.3414 0.2679,-0.8718 0.2679 -0.8718c 0.0945,-0.5305 0.0945,-1.2658 0.0945 -1.2658c 0.0000,-0.7353 -0.0945,-1.2605 -0.0945 -1.2605c -0.0945,-0.5252 -0.2679,-0.8561 -0.2679 -0.8561c -0.1733,-0.3309 -0.4097,-0.4884 -0.4097 -0.4884c -0.2363,-0.1576 -0.5305,-0.1576 -0.5305 -0.1576c -0.2941,-0.0000 -0.5357,0.1576 -0.5357 0.1576c -0.2416,0.1576 -0.4149,0.4884 -0.4149 0.4884c -0.1733,0.3309 -0.2679,0.8561 -0.2679 0.8561c -0.0945,0.5252 -0.0945,1.2605 -0.0945 1.2605c 0.0000,1.4706 0.3624,2.1376 0.3624 2.1376c 0.3624,0.6670 0.9506,0.6670 0.9506 0.6670Z"/></g><g stroke-linejoin="bevel" stroke-opacity="0.0" fill-opacity="1.0" stroke="rgb(0,0,0)" stroke-width="0.0" fill="rgb(0,0,0)" stroke-linecap="butt" stroke-miterlimit="10.0"><path d="M 10.0000,467.6120 ZM 10.4307,464.6499 h 2.4160 v 0.6618 h -2.4160 v -0.6618 ZM 13.2668,467.6120 ZM 16.4601,465.0700 v -1.9433 c 0.0000,-0.2731 0.0158,-0.6460 0.0158 -0.6460c 0.0158,-0.3729 0.0368,-0.6460 0.0368 -0.6460h -0.0420 c -0.1261,0.2416 -0.2626,0.4727 -0.2626 0.4727c -0.1366,0.2311 -0.2836,0.4727 -0.2836 0.4727l -1.5651,2.2899 h 2.1008 ZM 16.4601,465.0700 ZM 18.1933,465.7633 h -0.9139 v 1.8487 h -0.8193 v -1.8487 h -3.0147 v -0.5672 l 2.8676,-4.2857 h 0.9664 v 4.1597 h 0.9139 v 0.6933 ZM 18.4874,467.6120 ZM 21.1029,467.7381 c -1.0189,-0.0000 -1.5861,-0.9034 -1.5861 -0.9034c -0.5672,-0.9034 -0.5672,-2.5945 -0.5672 -2.5945c 0.0000,-1.6912 0.5672,-2.5735 0.5672 -2.5735c 0.5672,-0.8824 1.5861,-0.8824 1.5861 -0.8824c 1.0084,0.0000 1.5756,0.8824 1.5756 0.8824c 0.5672,0.8824 0.5672,2.5735 0.5672 2.5735c 0.0000,1.6912 -0.5672,2.5945 -0.5672 2.5945c -0.5672,0.9034 -1.5756,0.9034 -1.5756 0.9034ZM 21.1029,467.7381 ZM 21.1029,467.0448 c 0.2941,0.0000 0.5305,-0.1628 0.5305 -0.1628c 0.2363,-0.1628 0.4097,-0.5042 0.4097 -0.5042c 0.1733,-0.3414 0.2679,-0.8718 0.2679 -0.8718c 0.0945,-0.5305 0.0945,-1.2658 0.0945 -1.2658c 0.0000,-0.7353 -0.0945,-1.2605 -0.0945 -1.2605c -0.0945,-0.5252 -0.2679,-0.8561 -0.2679 -0.8561c -0.1733,-0.3309 -0.4097,-0.4884 -0.4097 -0.4884c -0.2363,-0.1576 -0.5305,-0.1576 -0.5305 -0.1576c -0.2941,-0.0000 -0.5357,0.1576 -0.5357 0.1576c -0.2416,0.1576 -0.4149,0.4884 -0.4149 0.4884c -0.1733,0.3309 -0.2679,0.8561 -0.2679 0.8561c -0.0945,0.5252 -0.0945,1.2605 -0.0945 1.2605c 0.0000,1.4706 0.3624,2.1376 0.3624 2.1376c 0.3624,0.6670 0.9506,0.6670 0.9506 0.6670ZM 23.7080,467.6120 ZM 26.3235,467.7381 c -1.0189,-0.0000 -1.5861,-0.9034 -1.5861 -0.9034c -0.5672,-0.9034 -0.5672,-2.5945 -0.5672 -2.5945c 0.0000,-1.6912 0.5672,-2.5735 0.5672 -2.5735c 0.5672,-0.8824 1.5861,-0.8824 1.5861 -0.8824c 1.0084,0.0000 1.5756,0.8824 1.5756 0.8824c 0.5672,0.8824 0.5672,2.5735 0.5672 2.5735c 0.0000,1.6912 -0.5672,2.5945 -0.5672 2.5945c -0.5672,0.9034 -1.5756,0.9034 -1.5756 0.9034ZM 26.3235,467.7381 ZM 26.3235,467.0448 c 0.2941,0.0000 0.5305,-0.1628 0.5305 -0.1628c 0.2363,-0.1628 0.4097,-0.5042 0.4097 -0.5042c 0.1733,-0.3414 0.2679,-0.8718 0.2679 -0.8718c 0.0945,-0.5305 0.0945,-1.2658 0.0945 -1.2658c 0.0000,-0.7353 -0.0945,-1.2605 -0.0945 -1.2605c -0.0945,-0.5252 -0.2679,-0.8561 -0.2679 -0.8561c -0.1733,-0.3309 -0.4097,-0.4884 -0.4097 -0.4884c -0.2363,-0.1576 -0.5305,-0.1576 -0.5305 -0.1576c -0.2941,-0.0000 -0.5357,0.1576 -0.5357 0.1576c -0.2416,0.1576 -0.4149,0.4884 -0.4149 0.4884c -0.1733,0.3309 -0.2679,0.8561 -0.2679 0.8561c -0.0945,0.5252 -0.0945,1.2605 -0.0945 1.2605c 0.0000,1.4706 0.3624,2.1376 0.3624 2.1376c 0.3624,0.6670 0.9506,0.6670 0.9506 0.6670Z"/></g><g stroke-linejoin="bevel" stroke-opacity="0.0" fill-opacity="1.0" stroke="rgb(0,0,0)" stroke-width="0.0" fill="rgb(0,0,0)" stroke-linecap="butt" stroke-miterlimit="10.0"><path d="M 10.0000,381.7787 ZM 10.4307,378.8165 h 2.4160 v 0.6618 h -2.4160 v -0.6618 ZM 13.2668,381.7787 ZM 13.6870,381.2640 c 0.7563,-0.7563 1.3445,-1.3655 1.3445 -1.3655c 0.5882,-0.6092 0.9874,-1.1292 0.9874 -1.1292c 0.3992,-0.5200 0.6092,-0.9559 0.6092 -0.9559c 0.2101,-0.4359 0.2101,-0.8456 0.2101 -0.8456c 0.0000,-0.5777 -0.3151,-0.9454 -0.3151 -0.9454c -0.3151,-0.3676 -0.9559,-0.3676 -0.9559 -0.3676c -0.4202,-0.0000 -0.7773,0.2363 -0.7773 0.2363c -0.3571,0.2363 -0.6513,0.5725 -0.6513 0.5725l -0.4937,-0.4937 c 0.4202,-0.4622 0.8929,-0.7405 0.8929 -0.7405c 0.4727,-0.2784 1.1345,-0.2784 1.1345 -0.2784c 0.9349,0.0000 1.4706,0.5410 1.4706 0.5410c 0.5357,0.5410 0.5357,1.4338 0.5357 1.4338c 0.0000,0.4727 -0.2048,0.9506 -0.2048 0.9506c -0.2048,0.4779 -0.5672,0.9874 -0.5672 0.9874c -0.3624,0.5095 -0.8613,1.0609 -0.8613 1.0609c -0.4989,0.5515 -1.0977,1.1712 -1.0977 1.1712c 0.2731,-0.0210 0.5672,-0.0420 0.5672 -0.0420c 0.2941,-0.0210 0.5567,-0.0210 0.5567 -0.0210h 1.9433 v 0.7458 h -4.3277 v -0.5147 ZM 18.4874,381.7787 ZM 21.1029,381.9048 c -1.0189,-0.0000 -1.5861,-0.9034 -1.5861 -0.9034c -0.5672,-0.9034 -0.5672,-2.5945 -0.5672 -2.5945c 0.0000,-1.6912 0.5672,-2.5735 0.5672 -2.5735c 0.5672,-0.8824 1.5861,-0.8824 1.5861 -0.8824c 1.0084,0.0000 1.5756,0.8824 1.5756 0.8824c 0.5672,0.8824 0.5672,2.5735 0.5672 2.5735c 0.0000,1.6912 -0.5672,2.5945 -0.5672 2.5945c -0.5672,0.9034 -1.5756,0.9034 -1.5756 0.9034ZM 21.1029,381.9048 ZM 21.1029,381.2115 c 0.2941,0.0000 0.5305,-0.1628 0.5305 -0.1628c 0.2363,-0.1628 0.4097,-0.5042 0.4097 -0.5042c 0.1733,-0.3414 0.2679,-0.8718 0.2679 -0.8718c 0.0945,-0.5305 0.0945,-1.2658 0.0945 -1.2658c 0.0000,-0.7353 -0.0945,-1.2605 -0.0945 -1.2605c -0.0945,-0.5252 -0.2679,-0.8561 -0.2679 -0.8561c -0.1733,-0.3309 -0.4097,-0.4884 -0.4097 -0.4884c -0.2363,-0.1576 -0.5305,-0.1576 -0.5305 -0.1576c -0.2941,-0.0000 -0.5357,0.1576 -0.5357 0.1576c -0.2416,0.1576 -0.4149,0.4884 -0.4149 0.4884c -0.1733,0.3309 -0.2679,0.8561 -0.2679 0.8561c -0.0945,0.5252 -0.0945,1.2605 -0.0945 1.2605c 0.0000,1.4706 0.3624,2.1376 0.3624 2.1376c 0.3624,0.6670 0.9506,0.6670 0.9506 0.6670ZM 23.7080,381.7787 ZM 26.3235,381.9048 c -1.0189,-0.0000 -1.5861,-0.9034 -1.5861 -0.9034c -0.5672,-0.9034 -0.5672,-2.5945 -0.5672 -2.5945c 0.0000,-1.6912 0.5672,-2.5735 0.5672 -2.5735c 0.5672,-0.8824 1.5861,-0.8824 1.5861 -0.8824c 1.0084,0.0000 1.5756,0.8824 1.5756 0.8824c 0.5672,0.8824 0.5672,2.5735 0.5672 2.5735c 0.0000,1.6912 -0.5672,2.5945 -0.5672 2.5945c -0.5672,0.9034 -1.5756,0.9034 -1.5756 0.9034ZM 26.3235,381.9048 ZM 26.3235,381.2115 c 0.2941,0.0000 0.5305,-0.1628 0.5305 -0.1628c 0.2363,-0.1628 0.4097,-0.5042 0.4097 -0.5042c 0.1733,-0.3414 0.2679,-0.8718 0.2679 -0.8718c 0.0945,-0.5305 0.0945,-1.2658 0.0945 -1.2658c 0.0000,-0.7353 -0.0945,-1.2605 -0.0945 -1.2605c -0.0945,-0.5252 -0.2679,-0.8561 -0.2679 -0.8561c -0.1733,-0.3309 -0.4097,-0.4884 -0.4097 -0.4884c -0.2363,-0.1576 -0.5305,-0.1576 -0.5305 -0.1576c -0.2941,-0.0000 -0.5357,0.1576 -0.5357 0.1576c -0.2416,0.1576 -0.4149,0.4884 -0.4149 0.4884c -0.1733,0.3309 -0.2679,0.8561 -0.2679 0.8561c -0.0945,0.5252 -0.0945,1.2605 -0.0945 1.2605c 0.0000,1.4706 0.3624,2.1376 0.3624 2.1376c 0.3624,0.6670 0.9506,0.6670 0.9506 0.6670Z"/></g><g stroke-linejoin="bevel" stroke-opacity="0.0" fill-opacity="1.0" stroke="rgb(0,0,0)" stroke-width="0.0" fill="rgb(0,0,0)" stroke-linecap="butt" stroke-miterlimit="10.0"><path d="M 23.7395,295.9454 ZM 26.3550,296.0714 c -1.0189,-0.0000 -1.5861,-0.9034 -1.5861 -0.9034c -0.5672,-0.9034 -0.5672,-2.5945 -0.5672 -2.5945c 0.0000,-1.6912 0.5672,-2.5735 0.5672 -2.5735c 0.5672,-0.8824 1.5861,-0.8824 1.5861 -0.8824c 1.0084,0.0000 1.5756,0.8824 1.5756 0.8824c 0.5672,0.8824 0.5672,2.5735 0.5672 2.5735c 0.0000,1.6912 -0.5672,2.5945 -0.5672 2.5945c -0.5672,0.9034 -1.5756,0.9034 -1.5756 0.9034ZM 26.3550,296.0714 ZM 26.3550,295.3782 c 0.2941,0.0000 0.5305,-0.1628 0.5305 -0.1628c 0.2363,-0.1628 0.4097,-0.5042 0.4097 -0.5042c 0.1733,-0.3414 0.2679,-0.8718 0.2679 -0.8718c 0.0945,-0.5305 0.0945,-1.2658 0.0945 -1.2658c 0.0000,-0.7353 -0.0945,-1.2605 -0.0945 -1.2605c -0.0945,-0.5252 -0.2679,-0.8561 -0.2679 -0.8561c -0.1733,-0.3309 -0.4097,-0.4884 -0.4097 -0.4884c -0.2363,-0.1576 -0.5305,-0.1576 -0.5305 -0.1576c -0.2941,-0.0000 -0.5357,0.1576 -0.5357 0.1576c -0.2416,0.1576 -0.4149,0.4884 -0.4149 0.4884c -0.1733,0.3309 -0.2679,0.8561 -0.2679 0.8561c -0.0945,0.5252 -0.0945,1.2605 -0.0945 1.2605c 0.0000,1.4706 0.3624,2.1376 0.3624 2.1376c 0.3624,0.6670 0.9506,0.6670 0.9506 0.6670Z"/></g><g stroke-linejoin="bevel" stroke-opacity="0.0" fill-opacity="1.0" stroke="rgb(0,0,0)" stroke-width="0.0" fill="rgb(0,0,0)" stroke-linecap="butt" stroke-miterlimit="10.0"><path d="M 13.2143,210.1120 ZM 13.6345,209.5973 c 0.7563,-0.7563 1.3445,-1.3655 1.3445 -1.3655c 0.5882,-0.6092 0.9874,-1.1292 0.9874 -1.1292c 0.3992,-0.5200 0.6092,-0.9559 0.6092 -0.9559c 0.2101,-0.4359 0.2101,-0.8456 0.2101 -0.8456c 0.0000,-0.5777 -0.3151,-0.9454 -0.3151 -0.9454c -0.3151,-0.3676 -0.9559,-0.3676 -0.9559 -0.3676c -0.4202,-0.0000 -0.7773,0.2363 -0.7773 0.2363c -0.3571,0.2363 -0.6513,0.5725 -0.6513 0.5725l -0.4937,-0.4937 c 0.4202,-0.4622 0.8929,-0.7405 0.8929 -0.7405c 0.4727,-0.2784 1.1345,-0.2784 1.1345 -0.2784c 0.9349,0.0000 1.4706,0.5410 1.4706 0.5410c 0.5357,0.5410 0.5357,1.4338 0.5357 1.4338c 0.0000,0.4727 -0.2048,0.9506 -0.2048 0.9506c -0.2048,0.4779 -0.5672,0.9874 -0.5672 0.9874c -0.3624,0.5095 -0.8613,1.0609 -0.8613 1.0609c -0.4989,0.5515 -1.0977,1.1712 -1.0977 1.1712c 0.2731,-0.0210 0.5672,-0.0420 0.5672 -0.0420c 0.2941,-0.0210 0.5567,-0.0210 0.5567 -0.0210h 1.9433 v 0.7458 h -4.3277 v -0.5147 ZM 18.4349,210.1120 ZM 21.0504,210.2381 c -1.0189,-0.0000 -1.5861,-0.9034 -1.5861 -0.9034c -0.5672,-0.9034 -0.5672,-2.5945 -0.5672 -2.5945c 0.0000,-1.6912 0.5672,-2.5735 0.5672 -2.5735c 0.5672,-0.8824 1.5861,-0.8824 1.5861 -0.8824c 1.0084,0.0000 1.5756,0.8824 1.5756 0.8824c 0.5672,0.8824 0.5672,2.5735 0.5672 2.5735c 0.0000,1.6912 -0.5672,2.5945 -0.5672 2.5945c -0.5672,0.9034 -1.5756,0.9034 -1.5756 0.9034ZM 21.0504,210.2381 ZM 21.0504,209.5448 c 0.2941,0.0000 0.5305,-0.1628 0.5305 -0.1628c 0.2363,-0.1628 0.4097,-0.5042 0.4097 -0.5042c 0.1733,-0.3414 0.2679,-0.8718 0.2679 -0.8718c 0.0945,-0.5305 0.0945,-1.2658 0.0945 -1.2658c 0.0000,-0.7353 -0.0945,-1.2605 -0.0945 -1.2605c -0.0945,-0.5252 -0.2679,-0.8561 -0.2679 -0.8561c -0.1733,-0.3309 -0.4097,-0.4884 -0.4097 -0.4884c -0.2363,-0.1576 -0.5305,-0.1576 -0.5305 -0.1576c -0.2941,-0.0000 -0.5357,0.1576 -0.5357 0.1576c -0.2416,0.1576 -0.4149,0.4884 -0.4149 0.4884c -0.1733,0.3309 -0.2679,0.8561 -0.2679 0.8561c -0.0945,0.5252 -0.0945,1.2605 -0.0945 1.2605c 0.0000,1.4706 0.3624,2.1376 0.3624 2.1376c 0.3624,0.6670 0.9506,0.6670 0.9506 0.6670ZM 23.6555,210.1120 ZM 26.2710,210.2381 c -1.0189,-0.0000 -1.5861,-0.9034 -1.5861 -0.9034c -0.5672,-0.9034 -0.5672,-2.5945 -0.5672 -2.5945c 0.0000,-1.6912 0.5672,-2.5735 0.5672 -2.5735c 0.5672,-0.8824 1.5861,-0.8824 1.5861 -0.8824c 1.0084,0.0000 1.5756,0.8824 1.5756 0.8824c 0.5672,0.8824 0.5672,2.5735 0.5672 2.5735c 0.0000,1.6912 -0.5672,2.5945 -0.5672 2.5945c -0.5672,0.9034 -1.5756,0.9034 -1.5756 0.9034ZM 26.2710,210.2381 ZM 26.2710,209.5448 c 0.2941,0.0000 0.5305,-0.1628 0.5305 -0.1628c 0.2363,-0.1628 0.4097,-0.5042 0.4097 -0.5042c 0.1733,-0.3414 0.2679,-0.8718 0.2679 -0.8718c 0.0945,-0.5305 0.0945,-1.2658 0.0945 -1.2658c 0.0000,-0.7353 -0.0945,-1.2605 -0.0945 -1.2605c -0.0945,-0.5252 -0.2679,-0.8561 -0.2679 -0.8561c -0.1733,-0.3309 -0.4097,-0.4884 -0.4097 -0.4884c -0.2363,-0.1576 -0.5305,-0.1576 -0.5305 -0.1576c -0.2941,-0.0000 -0.5357,0.1576 -0.5357 0.1576c -0.2416,0.1576 -0.4149,0.4884 -0.4149 0.4884c -0.1733,0.3309 -0.2679,0.8561 -0.2679 0.8561c -0.0945,0.5252 -0.0945,1.2605 -0.0945 1.2605c 0.0000,1.4706 0.3624,2.1376 0.3624 2.1376c 0.3624,0.6670 0.9506,0.6670 0.9506 0.6670Z"/></g><g stroke-linejoin="bevel" stroke-opacity="0.0" fill-opacity="1.0" stroke="rgb(0,0,0)" stroke-width="0.0" fill="rgb(0,0,0)" stroke-linecap="butt" stroke-miterlimit="10.0"><path d="M 13.0147,124.2787 ZM 16.2080,121.7367 v -1.9433 c 0.0000,-0.2731 0.0158,-0.6460 0.0158 -0.6460c 0.0158,-0.3729 0.0368,-0.6460 0.0368 -0.6460h -0.0420 c -0.1261,0.2416 -0.2626,0.4727 -0.2626 0.4727c -0.1366,0.2311 -0.2836,0.4727 -0.2836 0.4727l -1.5651,2.2899 h 2.1008 ZM 16.2080,121.7367 ZM 17.9412,122.4300 h -0.9139 v 1.8487 h -0.8193 v -1.8487 h -3.0147 v -0.5672 l 2.8676,-4.2857 h 0.9664 v 4.1597 h 0.9139 v 0.6933 ZM 18.2353,124.2787 ZM 20.8508,124.4048 c -1.0189,-0.0000 -1.5861,-0.9034 -1.5861 -0.9034c -0.5672,-0.9034 -0.5672,-2.5945 -0.5672 -2.5945c 0.0000,-1.6912 0.5672,-2.5735 0.5672 -2.5735c 0.5672,-0.8824 1.5861,-0.8824 1.5861 -0.8824c 1.0084,0.0000 1.5756,0.8824 1.5756 0.8824c 0.5672,0.8824 0.5672,2.5735 0.5672 2.5735c 0.0000,1.6912 -0.5672,2.5945 -0.5672 2.5945c -0.5672,0.9034 -1.5756,0.9034 -1.5756 0.9034ZM 20.8508,124.4048 ZM 20.8508,123.7115 c 0.2941,0.0000 0.5305,-0.1628 0.5305 -0.1628c 0.2363,-0.1628 0.4097,-0.5042 0.4097 -0.5042c 0.1733,-0.3414 0.2679,-0.8718 0.2679 -0.8718c 0.0945,-0.5305 0.0945,-1.2658 0.0945 -1.2658c 0.0000,-0.7353 -0.0945,-1.2605 -0.0945 -1.2605c -0.0945,-0.5252 -0.2679,-0.8561 -0.2679 -0.8561c -0.1733,-0.3309 -0.4097,-0.4884 -0.4097 -0.4884c -0.2363,-0.1576 -0.5305,-0.1576 -0.5305 -0.1576c -0.2941,-0.0000 -0.5357,0.1576 -0.5357 0.1576c -0.2416,0.1576 -0.4149,0.4884 -0.4149 0.4884c -0.1733,0.3309 -0.2679,0.8561 -0.2679 0.8561c -0.0945,0.5252 -0.0945,1.2605 -0.0945 1.2605c 0.0000,1.4706 0.3624,2.1376 0.3624 2.1376c 0.3624,0.6670 0.9506,0.6670 0.9506 0.6670ZM 23.4559,124.2787 ZM 26.0714,124.4048 c -1.0189,-0.0000 -1.5861,-0.9034 -1.5861 -0.9034c -0.5672,-0.9034 -0.5672,-2.5945 -0.5672 -2.5945c 0.0000,-1.6912 0.5672,-2.5735 0.5672 -2.5735c 0.5672,-0.8824 1.5861,-0.8824 1.5861 -0.8824c 1.0084,0.0000 1.5756,0.8824 1.5756 0.8824c 0.5672,0.8824 0.5672,2.5735 0.5672 2.5735c 0.0000,1.6912 -0.5672,2.5945 -0.5672 2.5945c -0.5672,0.9034 -1.5756,0.9034 -1.5756 0.9034ZM 26.0714,124.4048 ZM 26.0714,123.7115 c 0.2941,0.0000 0.5305,-0.1628 0.5305 -0.1628c 0.2363,-0.1628 0.4097,-0.5042 0.4097 -0.5042c 0.1733,-0.3414 0.2679,-0.8718 0.2679 -0.8718c 0.0945,-0.5305 0.0945,-1.2658 0.0945 -1.2658c 0.0000,-0.7353 -0.0945,-1.2605 -0.0945 -1.2605c -0.0945,-0.5252 -0.2679,-0.8561 -0.2679 -0.8561c -0.1733,-0.3309 -0.4097,-0.4884 -0.4097 -0.4884c -0.2363,-0.1576 -0.5305,-0.1576 -0.5305 -0.1576c -0.2941,-0.0000 -0.5357,0.1576 -0.5357 0.1576c -0.2416,0.1576 -0.4149,0.4884 -0.4149 0.4884c -0.1733,0.3309 -0.2679,0.8561 -0.2679 0.8561c -0.0945,0.5252 -0.0945,1.2605 -0.0945 1.2605c 0.0000,1.4706 0.3624,2.1376 0.3624 2.1376c 0.3624,0.6670 0.9506,0.6670 0.9506 0.6670Z"/></g><g stroke-linejoin="bevel" stroke-opacity="0.0" fill-opacity="1.0" stroke="rgb(0,0,0)" stroke-width="0.0" fill="rgb(0,0,0)" stroke-linecap="butt" stroke-miterlimit="10.0"><path d="M 13.3403,38.4454 ZM 16.1555,37.8887 c 0.2521,0.0000 0.4622,-0.1050 0.4622 -0.1050c 0.2101,-0.1050 0.3676,-0.2994 0.3676 -0.2994c 0.1576,-0.1943 0.2468,-0.4622 0.2468 -0.4622c 0.0893,-0.2679 0.0893,-0.6040 0.0893 -0.6040c 0.0000,-0.6618 -0.3046,-1.0399 -0.3046 -1.0399c -0.3046,-0.3782 -0.9349,-0.3782 -0.9349 -0.3782c -0.3151,-0.0000 -0.6880,0.2048 -0.6880 0.2048c -0.3729,0.2048 -0.7090,0.6775 -0.7090 0.6775c 0.0840,0.9874 0.4569,1.4968 0.4569 1.4968c 0.3729,0.5095 1.0137,0.5095 1.0137 0.5095ZM 16.1555,37.8887 ZM 17.5315,32.8676 c -0.2101,-0.2416 -0.4989,-0.3834 -0.4989 -0.3834c -0.2889,-0.1418 -0.6040,-0.1418 -0.6040 -0.1418c -0.3466,-0.0000 -0.6618,0.1471 -0.6618 0.1471c -0.3151,0.1471 -0.5567,0.4832 -0.5567 0.4832c -0.2416,0.3361 -0.3887,0.8771 -0.3887 0.8771c -0.1471,0.5410 -0.1576,1.3393 -0.1576 1.3393c 0.3151,-0.3887 0.7353,-0.6145 0.7353 -0.6145c 0.4202,-0.2258 0.8298,-0.2258 0.8298 -0.2258c 0.8718,0.0000 1.3918,0.5147 1.3918 0.5147c 0.5200,0.5147 0.5200,1.5546 0.5200 1.5546c 0.0000,0.4832 -0.1576,0.8771 -0.1576 0.8771c -0.1576,0.3939 -0.4307,0.6775 -0.4307 0.6775c -0.2731,0.2836 -0.6303,0.4412 -0.6303 0.4412c -0.3571,0.1576 -0.7668,0.1576 -0.7668 0.1576c -0.4937,-0.0000 -0.9139,-0.1996 -0.9139 -0.1996c -0.4202,-0.1996 -0.7300,-0.6040 -0.7300 -0.6040c -0.3099,-0.4044 -0.4884,-1.0084 -0.4884 -1.0084c -0.1786,-0.6040 -0.1786,-1.4128 -0.1786 -1.4128c 0.0000,-1.0084 0.2101,-1.7174 0.2101 -1.7174c 0.2101,-0.7090 0.5672,-1.1555 0.5672 -1.1555c 0.3571,-0.4464 0.8141,-0.6513 0.8141 -0.6513c 0.4569,-0.2048 0.9611,-0.2048 0.9611 -0.2048c 0.5462,0.0000 0.9401,0.2048 0.9401 0.2048c 0.3939,0.2048 0.6775,0.5095 0.6775 0.5095ZM 18.5609,38.4454 ZM 21.1765,38.5714 c -1.0189,-0.0000 -1.5861,-0.9034 -1.5861 -0.9034c -0.5672,-0.9034 -0.5672,-2.5945 -0.5672 -2.5945c 0.0000,-1.6912 0.5672,-2.5735 0.5672 -2.5735c 0.5672,-0.8824 1.5861,-0.8824 1.5861 -0.8824c 1.0084,0.0000 1.5756,0.8824 1.5756 0.8824c 0.5672,0.8824 0.5672,2.5735 0.5672 2.5735c 0.0000,1.6912 -0.5672,2.5945 -0.5672 2.5945c -0.5672,0.9034 -1.5756,0.9034 -1.5756 0.9034ZM 21.1765,38.5714 ZM 21.1765,37.8782 c 0.2941,0.0000 0.5305,-0.1628 0.5305 -0.1628c 0.2363,-0.1628 0.4097,-0.5042 0.4097 -0.5042c 0.1733,-0.3414 0.2679,-0.8718 0.2679 -0.8718c 0.0945,-0.5305 0.0945,-1.2658 0.0945 -1.2658c 0.0000,-0.7353 -0.0945,-1.2605 -0.0945 -1.2605c -0.0945,-0.5252 -0.2679,-0.8561 -0.2679 -0.8561c -0.1733,-0.3309 -0.4097,-0.4884 -0.4097 -0.4884c -0.2363,-0.1576 -0.5305,-0.1576 -0.5305 -0.1576c -0.2941,-0.0000 -0.5357,0.1576 -0.5357 0.1576c -0.2416,0.1576 -0.4149,0.4884 -0.4149 0.4884c -0.1733,0.3309 -0.2679,0.8561 -0.2679 0.8561c -0.0945,0.5252 -0.0945,1.2605 -0.0945 1.2605c 0.0000,1.4706 0.3624,2.1376 0.3624 2.1376c 0.3624,0.6670 0.9506,0.6670 0.9506 0.6670ZM 23.7815,38.4454 ZM 26.3971,38.5714 c -1.0189,-0.0000 -1.5861,-0.9034 -1.5861 -0.9034c -0.5672,-0.9034 -0.5672,-2.5945 -0.5672 -2.5945c 0.0000,-1.6912 0.5672,-2.5735 0.5672 -2.5735c 0.5672,-0.8824 1.5861,-0.8824 1.5861 -0.8824c 1.0084,0.0000 1.5756,0.8824 1.5756 0.8824c 0.5672,0.8824 0.5672,2.5735 0.5672 2.5735c 0.0000,1.6912 -0.5672,2.5945 -0.5672 2.5945c -0.5672,0.9034 -1.5756,0.9034 -1.5756 0.9034ZM 26.3971,38.5714 ZM 26.3971,37.8782 c 0.2941,0.0000 0.5305,-0.1628 0.5305 -0.1628c 0.2363,-0.1628 0.4097,-0.5042 0.4097 -0.5042c 0.1733,-0.3414 0.2679,-0.8718 0.2679 -0.8718c 0.0945,-0.5305 0.0945,-1.2658 0.0945 -1.2658c 0.0000,-0.7353 -0.0945,-1.2605 -0.0945 -1.2605c -0.0945,-0.5252 -0.2679,-0.8561 -0.2679 -0.8561c -0.1733,-0.3309 -0.4097,-0.4884 -0.4097 -0.4884c -0.2363,-0.1576 -0.5305,-0.1576 -0.5305 -0.1576c -0.2941,-0.0000 -0.5357,0.1576 -0.5357 0.1576c -0.2416,0.1576 -0.4149,0.4884 -0.4149 0.4884c -0.1733,0.3309 -0.2679,0.8561 -0.2679 0.8561c -0.0945,0.5252 -0.0945,1.2605 -0.0945 1.2605c 0.0000,1.4706 0.3624,2.1376 0.3624 2.1376c 0.3624,0.6670 0.9506,0.6670 0.9506 0.6670Z"/></g><g stroke-linejoin="miter" stroke-opacity="1.0" fill-opacity="0.0" stroke="rgb(0,0,0)" stroke-width="0.9999999999999997" fill="rgb(0,0,0)" stroke-linecap="square" stroke-miterlimit="10.0"><path d="M 38.0357,550.0000 h 750.0735 "/></g><g stroke-linejoin="miter" stroke-opacity="1.0" fill-opacity="0.0" stroke="rgb(0,0,0)" stroke-width="0.9999999999999997" fill="rgb(0,0,0)" stroke-linecap="butt" stroke-miterlimit="10.0"><path d="M 38.0357,550.0000 v -2.0000 "/></g><g stroke-linejoin="miter" stroke-opacity="1.0" fill-opacity="0.0" stroke="rgb(0,0,0)" stroke-width="0.9999999999999997" fill="rgb(0,0,0)" stroke-linecap="butt" stroke-miterlimit="10.0"><path d="M 53.0372,550.0000 v -2.0000 "/></g><g stroke-linejoin="miter" stroke-opacity="1.0" fill-opacity="0.0" stroke="rgb(0,0,0)" stroke-width="0.9999999999999997" fill="rgb(0,0,0)" stroke-linecap="butt" stroke-miterlimit="10.0"><path d="M 68.0387,550.0000 v -2.0000 "/></g><g stroke-linejoin="miter" stroke-opacity="1.0" fill-opacity="0.0" stroke="rgb(0,0,0)" stroke-width="0.9999999999999997" fill="rgb(0,0,0)" stroke-linecap="butt" stroke-miterlimit="10.0"><path d="M 83.0401,550.0000 v -2.0000 "/></g><g stroke-linejoin="miter" stroke-opacity="1.0" fill-opacity="0.0" stroke="rgb(0,0,0)" stroke-width="0.9999999999999997" fill="rgb(0,0,0)" stroke-linecap="butt" stroke-miterlimit="10.0"><path d="M 98.0416,550.0000 v -2.0000 "/></g><g stroke-linejoin="miter" stroke-opacity="1.0" fill-opacity="0.0" stroke="rgb(0,0,0)" stroke-width="0.9999999999999997" fill="rgb(0,0,0)" stroke-linecap="butt" stroke-miterlimit="10.0"><path d="M 113.0431,550.0000 v -2.0000 "/></g><g stroke-linejoin="miter" stroke-opacity="1.0" fill-opacity="0.0" stroke="rgb(0,0,0)" stroke-width="0.9999999999999997" fill="rgb(0,0,0)" stroke-linecap="butt" stroke-miterlimit="10.0"><path d="M 128.0445,550.0000 v -2.0000 "/></g><g stroke-linejoin="miter" stroke-opacity="1.0" fill-opacity="0.0" stroke="rgb(0,0,0)" stroke-width="0.9999999999999997" fill="rgb(0,0,0)" stroke-linecap="butt" stroke-miterlimit="10.0"><path d="M 143.0460,550.0000 v -2.0000 "/></g><g stroke-linejoin="miter" stroke-opacity="1.0" fill-opacity="0.0" stroke="rgb(0,0,0)" stroke-width="0.9999999999999997" fill="rgb(0,0,0)" stroke-linecap="butt" stroke-miterlimit="10.0"><path d="M 158.0475,550.0000 v -2.0000 "/></g><g stroke-linejoin="miter" stroke-opacity="1.0" fill-opacity="0.0" stroke="rgb(0,0,0)" stroke-width="0.9999999999999997" fill="rgb(0,0,0)" stroke-linecap="butt" stroke-miterlimit="10.0"><path d="M 173.0489,550.0000 v -2.0000 "/></g><g stroke-linejoin="miter" stroke-opacity="1.0" fill-opacity="0.0" stroke="rgb(0,0,0)" stroke-width="0.9999999999999997" fill="rgb(0,0,0)" stroke-linecap="butt" stroke-miterlimit="10.0"><path d="M 188.0504,550.0000 v -2.0000 "/></g><g stroke-linejoin="miter" stroke-opacity="1.0" fill-opacity="0.0" stroke="rgb(0,0,0)" stroke-width="0.9999999999999997" fill="rgb(0,0,0)" stroke-linecap="butt" stroke-miterlimit="10.0"><path d="M 203.0519,550.0000 v -2.0000 "/></g><g stroke-linejoin="miter" stroke-opacity="1.0" fill-opacity="0.0" stroke="rgb(0,0,0)" stroke-width="0.9999999999999997" fill="rgb(0,0,0)" stroke-linecap="butt" stroke-miterlimit="10.0"><path d="M 218.0534,550.0000 v -2.0000 "/></g><g stroke-linejoin="miter" stroke-opacity="1.0" fill-opacity="0.0" stroke="rgb(0,0,0)" stroke-width="0.9999999999999997" fill="rgb(0,0,0)" stroke-linecap="butt" stroke-miterlimit="10.0"><path d="M 233.0548,550.0000 v -2.0000 "/></g><g stroke-linejoin="miter" stroke-opacity="1.0" fill-opacity="0.0" stroke="rgb(0,0,0)" stroke-width="0.9999999999999997" fill="rgb(0,0,0)" stroke-linecap="butt" stroke-miterlimit="10.0"><path d="M 248.0563,550.0000 v -2.0000 "/></g><g stroke-linejoin="miter" stroke-opacity="1.0" fill-opacity="0.0" stroke="rgb(0,0,0)" stroke-width="0.9999999999999997" fill="rgb(0,0,0)" stroke-linecap="butt" stroke-miterlimit="10.0"><path d="M 263.0578,550.0000 v -2.0000 "/></g><g stroke-linejoin="miter" stroke-opacity="1.0" fill-opacity="0.0" stroke="rgb(0,0,0)" stroke-width="0.9999999999999997" fill="rgb(0,0,0)" stroke-linecap="butt" stroke-miterlimit="10.0"><path d="M 278.0592,550.0000 v -2.0000 "/></g><g stroke-linejoin="miter" stroke-opacity="1.0" fill-opacity="0.0" stroke="rgb(0,0,0)" stroke-width="0.9999999999999997" fill="rgb(0,0,0)" stroke-linecap="butt" stroke-miterlimit="10.0"><path d="M 293.0607,550.0000 v -2.0000 "/></g><g stroke-linejoin="miter" stroke-opacity="1.0" fill-opacity="0.0" stroke="rgb(0,0,0)" stroke-width="0.9999999999999997" fill="rgb(0,0,0)" stroke-linecap="butt" stroke-miterlimit="10.0"><path d="M 308.0622,550.0000 v -2.0000 "/></g><g stroke-linejoin="miter" stroke-opacity="1.0" fill-opacity="0.0" stroke="rgb(0,0,0)" stroke-width="0.9999999999999997" fill="rgb(0,0,0)" stroke-linecap="butt" stroke-miterlimit="10.0"><path d="M 323.0637,550.0000 v -2.0000 "/></g><g stroke-linejoin="miter" stroke-opacity="1.0" fill-opacity="0.0" stroke="rgb(0,0,0)" stroke-width="0.9999999999999997" fill="rgb(0,0,0)" stroke-linecap="butt" stroke-miterlimit="10.0"><path d="M 338.0651,550.0000 v -2.0000 "/></g><g stroke-linejoin="miter" stroke-opacity="1.0" fill-opacity="0.0" stroke="rgb(0,0,0)" stroke-width="0.9999999999999997" fill="rgb(0,0,0)" stroke-linecap="butt" stroke-miterlimit="10.0"><path d="M 353.0666,550.0000 v -2.0000 "/></g><g stroke-linejoin="miter" stroke-opacity="1.0" fill-opacity="0.0" stroke="rgb(0,0,0)" stroke-width="0.9999999999999997" fill="rgb(0,0,0)" stroke-linecap="butt" stroke-miterlimit="10.0"><path d="M 368.0681,550.0000 v -2.0000 "/></g><g stroke-linejoin="miter" stroke-opacity="1.0" fill-opacity="0.0" stroke="rgb(0,0,0)" stroke-width="0.9999999999999997" fill="rgb(0,0,0)" stroke-linecap="butt" stroke-miterlimit="10.0"><path d="M 383.0695,550.0000 v -2.0000 "/></g><g stroke-linejoin="miter" stroke-opacity="1.0" fill-opacity="0.0" stroke="rgb(0,0,0)" stroke-width="0.9999999999999997" fill="rgb(0,0,0)" stroke-linecap="butt" stroke-miterlimit="10.0"><path d="M 398.0710,550.0000 v -2.0000 "/></g><g stroke-linejoin="miter" stroke-opacity="1.0" fill-opacity="0.0" stroke="rgb(0,0,0)" stroke-width="0.9999999999999997" fill="rgb(0,0,0)" stroke-linecap="butt" stroke-miterlimit="10.0"><path d="M 413.0725,550.0000 v -2.0000 "/></g><g stroke-linejoin="miter" stroke-opacity="1.0" fill-opacity="0.0" stroke="rgb(0,0,0)" stroke-width="0.9999999999999997" fill="rgb(0,0,0)" stroke-linecap="butt" stroke-miterlimit="10.0"><path d="M 428.0739,550.0000 v -2.0000 "/></g><g stroke-linejoin="miter" stroke-opacity="1.0" fill-opacity="0.0" stroke="rgb(0,0,0)" stroke-width="0.9999999999999997" fill="rgb(0,0,0)" stroke-linecap="butt" stroke-miterlimit="10.0"><path d="M 443.0754,550.0000 v -2.0000 "/></g><g stroke-linejoin="miter" stroke-opacity="1.0" fill-opacity="0.0" stroke="rgb(0,0,0)" stroke-width="0.9999999999999997" fill="rgb(0,0,0)" stroke-linecap="butt" stroke-miterlimit="10.0"><path d="M 458.0769,550.0000 v -2.0000 "/></g><g stroke-linejoin="miter" stroke-opacity="1.0" fill-opacity="0.0" stroke="rgb(0,0,0)" stroke-width="0.9999999999999997" fill="rgb(0,0,0)" stroke-linecap="butt" stroke-miterlimit="10.0"><path d="M 473.0784,550.0000 v -2.0000 "/></g><g stroke-linejoin="miter" stroke-opacity="1.0" fill-opacity="0.0" stroke="rgb(0,0,0)" stroke-width="0.9999999999999997" fill="rgb(0,0,0)" stroke-linecap="butt" stroke-miterlimit="10.0"><path d="M 488.0798,550.0000 v -2.0000 "/></g><g stroke-linejoin="miter" stroke-opacity="1.0" fill-opacity="0.0" stroke="rgb(0,0,0)" stroke-width="0.9999999999999997" fill="rgb(0,0,0)" stroke-linecap="butt" stroke-miterlimit="10.0"><path d="M 503.0813,550.0000 v -2.0000 "/></g><g stroke-linejoin="miter" stroke-opacity="1.0" fill-opacity="0.0" stroke="rgb(0,0,0)" stroke-width="0.9999999999999997" fill="rgb(0,0,0)" stroke-linecap="butt" stroke-miterlimit="10.0"><path d="M 518.0828,550.0000 v -2.0000 "/></g><g stroke-linejoin="miter" stroke-opacity="1.0" fill-opacity="0.0" stroke="rgb(0,0,0)" stroke-width="0.9999999999999997" fill="rgb(0,0,0)" stroke-linecap="butt" stroke-miterlimit="10.0"><path d="M 533.0842,550.0000 v -2.0000 "/></g><g stroke-linejoin="miter" stroke-opacity="1.0" fill-opacity="0.0" stroke="rgb(0,0,0)" stroke-width="0.9999999999999997" fill="rgb(0,0,0)" stroke-linecap="butt" stroke-miterlimit="10.0"><path d="M 548.0857,550.0000 v -2.0000 "/></g><g stroke-linejoin="miter" stroke-opacity="1.0" fill-opacity="0.0" stroke="rgb(0,0,0)" stroke-width="0.9999999999999997" fill="rgb(0,0,0)" stroke-linecap="butt" stroke-miterlimit="10.0"><path d="M 563.0872,550.0000 v -2.0000 "/></g><g stroke-linejoin="miter" stroke-opacity="1.0" fill-opacity="0.0" stroke="rgb(0,0,0)" stroke-width="0.9999999999999997" fill="rgb(0,0,0)" stroke-linecap="butt" stroke-miterlimit="10.0"><path d="M 578.0887,550.0000 v -2.0000 "/></g><g stroke-linejoin="miter" stroke-opacity="1.0" fill-opacity="0.0" stroke="rgb(0,0,0)" stroke-width="0.9999999999999997" fill="rgb(0,0,0)" stroke-linecap="butt" stroke-miterlimit="10.0"><path d="M 593.0901,550.0000 v -2.0000 "/></g><g stroke-linejoin="miter" stroke-opacity="1.0" fill-opacity="0.0" stroke="rgb(0,0,0)" stroke-width="0.9999999999999997" fill="rgb(0,0,0)" stroke-linecap="butt" stroke-miterlimit="10.0"><path d="M 608.0916,550.0000 v -2.0000 "/></g><g stroke-linejoin="miter" stroke-opacity="1.0" fill-opacity="0.0" stroke="rgb(0,0,0)" stroke-width="0.9999999999999997" fill="rgb(0,0,0)" stroke-linecap="butt" stroke-miterlimit="10.0"><path d="M 623.0931,550.0000 v -2.0000 "/></g><g stroke-linejoin="miter" stroke-opacity="1.0" fill-opacity="0.0" stroke="rgb(0,0,0)" stroke-width="0.9999999999999997" fill="rgb(0,0,0)" stroke-linecap="butt" stroke-miterlimit="10.0"><path d="M 638.0945,550.0000 v -2.0000 "/></g><g stroke-linejoin="miter" stroke-opacity="1.0" fill-opacity="0.0" stroke="rgb(0,0,0)" stroke-width="0.9999999999999997" fill="rgb(0,0,0)" stroke-linecap="butt" stroke-miterlimit="10.0"><path d="M 653.0960,550.0000 v -2.0000 "/></g><g stroke-linejoin="miter" stroke-opacity="1.0" fill-opacity="0.0" stroke="rgb(0,0,0)" stroke-width="0.9999999999999997" fill="rgb(0,0,0)" stroke-linecap="butt" stroke-miterlimit="10.0"><path d="M 668.0975,550.0000 v -2.0000 "/></g><g stroke-linejoin="miter" stroke-opacity="1.0" fill-opacity="0.0" stroke="rgb(0,0,0)" stroke-width="0.9999999999999997" fill="rgb(0,0,0)" stroke-linecap="butt" stroke-miterlimit="10.0"><path d="M 683.0989,550.0000 v -2.0000 "/></g><g stroke-linejoin="miter" stroke-opacity="1.0" fill-opacity="0.0" stroke="rgb(0,0,0)" stroke-width="0.9999999999999997" fill="rgb(0,0,0)" stroke-linecap="butt" stroke-miterlimit="10.0"><path d="M 698.1004,550.0000 v -2.0000 "/></g><g stroke-linejoin="miter" stroke-opacity="1.0" fill-opacity="0.0" stroke="rgb(0,0,0)" stroke-width="0.9999999999999997" fill="rgb(0,0,0)" stroke-linecap="butt" stroke-miterlimit="10.0"><path d="M 713.1019,550.0000 v -2.0000 "/></g><g stroke-linejoin="miter" stroke-opacity="1.0" fill-opacity="0.0" stroke="rgb(0,0,0)" stroke-width="0.9999999999999997" fill="rgb(0,0,0)" stroke-linecap="butt" stroke-miterlimit="10.0"><path d="M 728.1034,550.0000 v -2.0000 "/></g><g stroke-linejoin="miter" stroke-opacity="1.0" fill-opacity="0.0" stroke="rgb(0,0,0)" stroke-width="0.9999999999999997" fill="rgb(0,0,0)" stroke-linecap="butt" stroke-miterlimit="10.0"><path d="M 743.1048,550.0000 v -2.0000 "/></g><g stroke-linejoin="miter" stroke-opacity="1.0" fill-opacity="0.0" stroke="rgb(0,0,0)" stroke-width="0.9999999999999997" fill="rgb(0,0,0)" stroke-linecap="butt" stroke-miterlimit="10.0"><path d="M 758.1063,550.0000 v -2.0000 "/></g><g stroke-linejoin="miter" stroke-opacity="1.0" fill-opacity="0.0" stroke="rgb(0,0,0)" stroke-width="0.9999999999999997" fill="rgb(0,0,0)" stroke-linecap="butt" stroke-miterlimit="10.0"><path d="M 773.1078,550.0000 v -2.0000 "/></g><g stroke-linejoin="miter" stroke-opacity="1.0" fill-opacity="0.0" stroke="rgb(0,0,0)" stroke-width="0.9999999999999997" fill="rgb(0,0,0)" stroke-linecap="butt" stroke-miterlimit="10.0"><path d="M 788.1092,550.0000 v -2.0000 "/></g><g stroke-linejoin="miter" stroke-opacity="1.0" fill-opacity="0.0" stroke="rgb(0,0,0)" stroke-width="0.9999999999999997" fill="rgb(0,0,0)" stroke-linecap="butt" stroke-miterlimit="10.0"><path d="M 38.0357,550.0000 v -5.0000 "/></g><g stroke-linejoin="miter" stroke-opacity="1.0" fill-opacity="0.0" stroke="rgb(0,0,0)" stroke-width="0.9999999999999997" fill="rgb(0,0,0)" stroke-linecap="butt" stroke-miterlimit="10.0"><path d="M 188.0504,550.0000 v -5.0000 "/></g><g stroke-linejoin="miter" stroke-opacity="1.0" fill-opacity="0.0" stroke="rgb(0,0,0)" stroke-width="0.9999999999999997" fill="rgb(0,0,0)" stroke-linecap="butt" stroke-miterlimit="10.0"><path d="M 338.0651,550.0000 v -5.0000 "/></g><g stroke-linejoin="miter" stroke-opacity="1.0" fill-opacity="0.0" stroke="rgb(0,0,0)" stroke-width="0.9999999999999997" fill="rgb(0,0,0)" stroke-linecap="butt" stroke-miterlimit="10.0"><path d="M 488.0798,550.0000 v -5.0000 "/></g><g stroke-linejoin="miter" stroke-opacity="1.0" fill-opacity="0.0" stroke="rgb(0,0,0)" stroke-width="0.9999999999999997" fill="rgb(0,0,0)" stroke-linecap="butt" stroke-miterlimit="10.0"><path d="M 638.0945,550.0000 v -5.0000 "/></g><g stroke-linejoin="miter" stroke-opacity="1.0" fill-opacity="0.0" stroke="rgb(0,0,0)" stroke-width="0.9999999999999997" fill="rgb(0,0,0)" stroke-linecap="butt" stroke-miterlimit="10.0"><path d="M 788.1092,550.0000 v -5.0000 "/></g><g stroke-linejoin="bevel" stroke-opacity="0.0" fill-opacity="1.0" stroke="rgb(0,0,0)" stroke-width="0.0" fill="rgb(0,0,0)" stroke-linecap="butt" stroke-miterlimit="10.0"><path d="M 35.8876,570.0000 ZM 38.5032,570.1261 c -1.0189,-0.0000 -1.5861,-0.9034 -1.5861 -0.9034c -0.5672,-0.9034 -0.5672,-2.5945 -0.5672 -2.5945c 0.0000,-1.6912 0.5672,-2.5735 0.5672 -2.5735c 0.5672,-0.8824 1.5861,-0.8824 1.5861 -0.8824c 1.0084,0.0000 1.5756,0.8824 1.5756 0.8824c 0.5672,0.8824 0.5672,2.5735 0.5672 2.5735c 0.0000,1.6912 -0.5672,2.5945 -0.5672 2.5945c -0.5672,0.9034 -1.5756,0.9034 -1.5756 0.9034ZM 38.5032,570.1261 ZM 38.5032,569.4328 c 0.2941,0.0000 0.5305,-0.1628 0.5305 -0.1628c 0.2363,-0.1628 0.4097,-0.5042 0.4097 -0.5042c 0.1733,-0.3414 0.2679,-0.8718 0.2679 -0.8718c 0.0945,-0.5305 0.0945,-1.2658 0.0945 -1.2658c 0.0000,-0.7353 -0.0945,-1.2605 -0.0945 -1.2605c -0.0945,-0.5252 -0.2679,-0.8561 -0.2679 -0.8561c -0.1733,-0.3309 -0.4097,-0.4884 -0.4097 -0.4884c -0.2363,-0.1576 -0.5305,-0.1576 -0.5305 -0.1576c -0.2941,-0.0000 -0.5357,0.1576 -0.5357 0.1576c -0.2416,0.1576 -0.4149,0.4884 -0.4149 0.4884c -0.1733,0.3309 -0.2679,0.8561 -0.2679 0.8561c -0.0945,0.5252 -0.0945,1.2605 -0.0945 1.2605c 0.0000,1.4706 0.3624,2.1376 0.3624 2.1376c 0.3624,0.6670 0.9506,0.6670 0.9506 0.6670Z"/></g><g stroke-linejoin="bevel" stroke-opacity="0.0" fill-opacity="1.0" stroke="rgb(0,0,0)" stroke-width="0.0" fill="rgb(0,0,0)" stroke-linecap="butt" stroke-miterlimit="10.0"><path d="M 181.9895,570.0000 ZM 184.6050,570.1261 c -1.0189,-0.0000 -1.5861,-0.9034 -1.5861 -0.9034c -0.5672,-0.9034 -0.5672,-2.5945 -0.5672 -2.5945c 0.0000,-1.6912 0.5672,-2.5735 0.5672 -2.5735c 0.5672,-0.8824 1.5861,-0.8824 1.5861 -0.8824c 1.0084,0.0000 1.5756,0.8824 1.5756 0.8824c 0.5672,0.8824 0.5672,2.5735 0.5672 2.5735c 0.0000,1.6912 -0.5672,2.5945 -0.5672 2.5945c -0.5672,0.9034 -1.5756,0.9034 -1.5756 0.9034ZM 184.6050,570.1261 ZM 184.6050,569.4328 c 0.2941,0.0000 0.5305,-0.1628 0.5305 -0.1628c 0.2363,-0.1628 0.4097,-0.5042 0.4097 -0.5042c 0.1733,-0.3414 0.2679,-0.8718 0.2679 -0.8718c 0.0945,-0.5305 0.0945,-1.2658 0.0945 -1.2658c 0.0000,-0.7353 -0.0945,-1.2605 -0.0945 -1.2605c -0.0945,-0.5252 -0.2679,-0.8561 -0.2679 -0.8561c -0.1733,-0.3309 -0.4097,-0.4884 -0.4097 -0.4884c -0.2363,-0.1576 -0.5305,-0.1576 -0.5305 -0.1576c -0.2941,-0.0000 -0.5357,0.1576 -0.5357 0.1576c -0.2416,0.1576 -0.4149,0.4884 -0.4149 0.4884c -0.1733,0.3309 -0.2679,0.8561 -0.2679 0.8561c -0.0945,0.5252 -0.0945,1.2605 -0.0945 1.2605c 0.0000,1.4706 0.3624,2.1376 0.3624 2.1376c 0.3624,0.6670 0.9506,0.6670 0.9506 0.6670ZM 187.2101,570.0000 ZM 187.8929,569.4748 c 0.0000,-0.3046 0.1838,-0.4884 0.1838 -0.4884c 0.1838,-0.1838 0.4464,-0.1838 0.4464 -0.1838c 0.2521,0.0000 0.4359,0.1838 0.4359 0.1838c 0.1838,0.1838 0.1838,0.4884 0.1838 0.4884c 0.0000,0.2836 -0.1838,0.4674 -0.1838 0.4674c -0.1838,0.1838 -0.4359,0.1838 -0.4359 0.1838c -0.2626,-0.0000 -0.4464,-0.1838 -0.4464 -0.1838c -0.1838,-0.1838 -0.1838,-0.4674 -0.1838 -0.4674ZM 189.8256,570.0000 ZM 190.2458,569.4853 c 0.7563,-0.7563 1.3445,-1.3655 1.3445 -1.3655c 0.5882,-0.6092 0.9874,-1.1292 0.9874 -1.1292c 0.3992,-0.5200 0.6092,-0.9559 0.6092 -0.9559c 0.2101,-0.4359 0.2101,-0.8456 0.2101 -0.8456c 0.0000,-0.5777 -0.3151,-0.9454 -0.3151 -0.9454c -0.3151,-0.3676 -0.9559,-0.3676 -0.9559 -0.3676c -0.4202,-0.0000 -0.7773,0.2363 -0.7773 0.2363c -0.3571,0.2363 -0.6513,0.5725 -0.6513 0.5725l -0.4937,-0.4937 c 0.4202,-0.4622 0.8929,-0.7405 0.8929 -0.7405c 0.4727,-0.2784 1.1345,-0.2784 1.1345 -0.2784c 0.9349,0.0000 1.4706,0.5410 1.4706 0.5410c 0.5357,0.5410 0.5357,1.4338 0.5357 1.4338c 0.0000,0.4727 -0.2048,0.9506 -0.2048 0.9506c -0.2048,0.4779 -0.5672,0.9874 -0.5672 0.9874c -0.3624,0.5095 -0.8613,1.0609 -0.8613 1.0609c -0.4989,0.5515 -1.0977,1.1712 -1.0977 1.1712c 0.2731,-0.0210 0.5672,-0.0420 0.5672 -0.0420c 0.2941,-0.0210 0.5567,-0.0210 0.5567 -0.0210h 1.9433 v 0.7458 h -4.3277 v -0.5147 Z"/></g><g stroke-linejoin="bevel" stroke-opacity="0.0" fill-opacity="1.0" stroke="rgb(0,0,0)" stroke-width="0.0" fill="rgb(0,0,0)" stroke-linecap="butt" stroke-miterlimit="10.0"><path d="M 331.9149,570.0000 ZM 334.5305,570.1261 c -1.0189,-0.0000 -1.5861,-0.9034 -1.5861 -0.9034c -0.5672,-0.9034 -0.5672,-2.5945 -0.5672 -2.5945c 0.0000,-1.6912 0.5672,-2.5735 0.5672 -2.5735c 0.5672,-0.8824 1.5861,-0.8824 1.5861 -0.8824c 1.0084,0.0000 1.5756,0.8824 1.5756 0.8824c 0.5672,0.8824 0.5672,2.5735 0.5672 2.5735c 0.0000,1.6912 -0.5672,2.5945 -0.5672 2.5945c -0.5672,0.9034 -1.5756,0.9034 -1.5756 0.9034ZM 334.5305,570.1261 ZM 334.5305,569.4328 c 0.2941,0.0000 0.5305,-0.1628 0.5305 -0.1628c 0.2363,-0.1628 0.4097,-0.5042 0.4097 -0.5042c 0.1733,-0.3414 0.2679,-0.8718 0.2679 -0.8718c 0.0945,-0.5305 0.0945,-1.2658 0.0945 -1.2658c 0.0000,-0.7353 -0.0945,-1.2605 -0.0945 -1.2605c -0.0945,-0.5252 -0.2679,-0.8561 -0.2679 -0.8561c -0.1733,-0.3309 -0.4097,-0.4884 -0.4097 -0.4884c -0.2363,-0.1576 -0.5305,-0.1576 -0.5305 -0.1576c -0.2941,-0.0000 -0.5357,0.1576 -0.5357 0.1576c -0.2416,0.1576 -0.4149,0.4884 -0.4149 0.4884c -0.1733,0.3309 -0.2679,0.8561 -0.2679 0.8561c -0.0945,0.5252 -0.0945,1.2605 -0.0945 1.2605c 0.0000,1.4706 0.3624,2.1376 0.3624 2.1376c 0.3624,0.6670 0.9506,0.6670 0.9506 0.6670ZM 337.1355,570.0000 ZM 337.8183,569.4748 c 0.0000,-0.3046 0.1838,-0.4884 0.1838 -0.4884c 0.1838,-0.1838 0.4464,-0.1838 0.4464 -0.1838c 0.2521,0.0000 0.4359,0.1838 0.4359 0.1838c 0.1838,0.1838 0.1838,0.4884 0.1838 0.4884c 0.0000,0.2836 -0.1838,0.4674 -0.1838 0.4674c -0.1838,0.1838 -0.4359,0.1838 -0.4359 0.1838c -0.2626,-0.0000 -0.4464,-0.1838 -0.4464 -0.1838c -0.1838,-0.1838 -0.1838,-0.4674 -0.1838 -0.4674ZM 339.7511,570.0000 ZM 342.9443,567.4580 v -1.9433 c 0.0000,-0.2731 0.0158,-0.6460 0.0158 -0.6460c 0.0158,-0.3729 0.0368,-0.6460 0.0368 -0.6460h -0.0420 c -0.1261,0.2416 -0.2626,0.4727 -0.2626 0.4727c -0.1366,0.2311 -0.2836,0.4727 -0.2836 0.4727l -1.5651,2.2899 h 2.1008 ZM 342.9443,567.4580 ZM 344.6775,568.1513 h -0.9139 v 1.8487 h -0.8193 v -1.8487 h -3.0147 v -0.5672 l 2.8676,-4.2857 h 0.9664 v 4.1597 h 0.9139 v 0.6933 Z"/></g><g stroke-linejoin="bevel" stroke-opacity="0.0" fill-opacity="1.0" stroke="rgb(0,0,0)" stroke-width="0.0" fill="rgb(0,0,0)" stroke-linecap="butt" stroke-miterlimit="10.0"><path d="M 481.9926,570.0000 ZM 484.6082,570.1261 c -1.0189,-0.0000 -1.5861,-0.9034 -1.5861 -0.9034c -0.5672,-0.9034 -0.5672,-2.5945 -0.5672 -2.5945c 0.0000,-1.6912 0.5672,-2.5735 0.5672 -2.5735c 0.5672,-0.8824 1.5861,-0.8824 1.5861 -0.8824c 1.0084,0.0000 1.5756,0.8824 1.5756 0.8824c 0.5672,0.8824 0.5672,2.5735 0.5672 2.5735c 0.0000,1.6912 -0.5672,2.5945 -0.5672 2.5945c -0.5672,0.9034 -1.5756,0.9034 -1.5756 0.9034ZM 484.6082,570.1261 ZM 484.6082,569.4328 c 0.2941,0.0000 0.5305,-0.1628 0.5305 -0.1628c 0.2363,-0.1628 0.4097,-0.5042 0.4097 -0.5042c 0.1733,-0.3414 0.2679,-0.8718 0.2679 -0.8718c 0.0945,-0.5305 0.0945,-1.2658 0.0945 -1.2658c 0.0000,-0.7353 -0.0945,-1.2605 -0.0945 -1.2605c -0.0945,-0.5252 -0.2679,-0.8561 -0.2679 -0.8561c -0.1733,-0.3309 -0.4097,-0.4884 -0.4097 -0.4884c -0.2363,-0.1576 -0.5305,-0.1576 -0.5305 -0.1576c -0.2941,-0.0000 -0.5357,0.1576 -0.5357 0.1576c -0.2416,0.1576 -0.4149,0.4884 -0.4149 0.4884c -0.1733,0.3309 -0.2679,0.8561 -0.2679 0.8561c -0.0945,0.5252 -0.0945,1.2605 -0.0945 1.2605c 0.0000,1.4706 0.3624,2.1376 0.3624 2.1376c 0.3624,0.6670 0.9506,0.6670 0.9506 0.6670ZM 487.2132,570.0000 ZM 487.8960,569.4748 c 0.0000,-0.3046 0.1838,-0.4884 0.1838 -0.4884c 0.1838,-0.1838 0.4464,-0.1838 0.4464 -0.1838c 0.2521,0.0000 0.4359,0.1838 0.4359 0.1838c 0.1838,0.1838 0.1838,0.4884 0.1838 0.4884c 0.0000,0.2836 -0.1838,0.4674 -0.1838 0.4674c -0.1838,0.1838 -0.4359,0.1838 -0.4359 0.1838c -0.2626,-0.0000 -0.4464,-0.1838 -0.4464 -0.1838c -0.1838,-0.1838 -0.1838,-0.4674 -0.1838 -0.4674ZM 489.8288,570.0000 ZM 492.6439,569.4433 c 0.2521,0.0000 0.4622,-0.1050 0.4622 -0.1050c 0.2101,-0.1050 0.3676,-0.2994 0.3676 -0.2994c 0.1576,-0.1943 0.2468,-0.4622 0.2468 -0.4622c 0.0893,-0.2679 0.0893,-0.6040 0.0893 -0.6040c 0.0000,-0.6618 -0.3046,-1.0399 -0.3046 -1.0399c -0.3046,-0.3782 -0.9349,-0.3782 -0.9349 -0.3782c -0.3151,-0.0000 -0.6880,0.2048 -0.6880 0.2048c -0.3729,0.2048 -0.7090,0.6775 -0.7090 0.6775c 0.0840,0.9874 0.4569,1.4968 0.4569 1.4968c 0.3729,0.5095 1.0137,0.5095 1.0137 0.5095ZM 492.6439,569.4433 ZM 494.0200,564.4223 c -0.2101,-0.2416 -0.4989,-0.3834 -0.4989 -0.3834c -0.2889,-0.1418 -0.6040,-0.1418 -0.6040 -0.1418c -0.3466,-0.0000 -0.6618,0.1471 -0.6618 0.1471c -0.3151,0.1471 -0.5567,0.4832 -0.5567 0.4832c -0.2416,0.3361 -0.3887,0.8771 -0.3887 0.8771c -0.1471,0.5410 -0.1576,1.3393 -0.1576 1.3393c 0.3151,-0.3887 0.7353,-0.6145 0.7353 -0.6145c 0.4202,-0.2258 0.8298,-0.2258 0.8298 -0.2258c 0.8718,0.0000 1.3918,0.5147 1.3918 0.5147c 0.5200,0.5147 0.5200,1.5546 0.5200 1.5546c 0.0000,0.4832 -0.1576,0.8771 -0.1576 0.8771c -0.1576,0.3939 -0.4307,0.6775 -0.4307 0.6775c -0.2731,0.2836 -0.6303,0.4412 -0.6303 0.4412c -0.3571,0.1576 -0.7668,0.1576 -0.7668 0.1576c -0.4937,-0.0000 -0.9139,-0.1996 -0.9139 -0.1996c -0.4202,-0.1996 -0.7300,-0.6040 -0.7300 -0.6040c -0.3099,-0.4044 -0.4884,-1.0084 -0.4884 -1.0084c -0.1786,-0.6040 -0.1786,-1.4128 -0.1786 -1.4128c 0.0000,-1.0084 0.2101,-1.7174 0.2101 -1.7174c 0.2101,-0.7090 0.5672,-1.1555 0.5672 -1.1555c 0.3571,-0.4464 0.8141,-0.6513 0.8141 -0.6513c 0.4569,-0.2048 0.9611,-0.2048 0.9611 -0.2048c 0.5462,0.0000 0.9401,0.2048 0.9401 0.2048c 0.3939,0.2048 0.6775,0.5095 0.6775 0.5095Z"/></g><g stroke-linejoin="bevel" stroke-opacity="0.0" fill-opacity="1.0" stroke="rgb(0,0,0)" stroke-width="0.0" fill="rgb(0,0,0)" stroke-linecap="butt" stroke-miterlimit="10.0"><path d="M 632.0126,570.0000 ZM 634.6282,570.1261 c -1.0189,-0.0000 -1.5861,-0.9034 -1.5861 -0.9034c -0.5672,-0.9034 -0.5672,-2.5945 -0.5672 -2.5945c 0.0000,-1.6912 0.5672,-2.5735 0.5672 -2.5735c 0.5672,-0.8824 1.5861,-0.8824 1.5861 -0.8824c 1.0084,0.0000 1.5756,0.8824 1.5756 0.8824c 0.5672,0.8824 0.5672,2.5735 0.5672 2.5735c 0.0000,1.6912 -0.5672,2.5945 -0.5672 2.5945c -0.5672,0.9034 -1.5756,0.9034 -1.5756 0.9034ZM 634.6282,570.1261 ZM 634.6282,569.4328 c 0.2941,0.0000 0.5305,-0.1628 0.5305 -0.1628c 0.2363,-0.1628 0.4097,-0.5042 0.4097 -0.5042c 0.1733,-0.3414 0.2679,-0.8718 0.2679 -0.8718c 0.0945,-0.5305 0.0945,-1.2658 0.0945 -1.2658c 0.0000,-0.7353 -0.0945,-1.2605 -0.0945 -1.2605c -0.0945,-0.5252 -0.2679,-0.8561 -0.2679 -0.8561c -0.1733,-0.3309 -0.4097,-0.4884 -0.4097 -0.4884c -0.2363,-0.1576 -0.5305,-0.1576 -0.5305 -0.1576c -0.2941,-0.0000 -0.5357,0.1576 -0.5357 0.1576c -0.2416,0.1576 -0.4149,0.4884 -0.4149 0.4884c -0.1733,0.3309 -0.2679,0.8561 -0.2679 0.8561c -0.0945,0.5252 -0.0945,1.2605 -0.0945 1.2605c 0.0000,1.4706 0.3624,2.1376 0.3624 2.1376c 0.3624,0.6670 0.9506,0.6670 0.9506 0.6670ZM 637.2332,570.0000 ZM 637.9160,569.4748 c 0.0000,-0.3046 0.1838,-0.4884 0.1838 -0.4884c 0.1838,-0.1838 0.4464,-0.1838 0.4464 -0.1838c 0.2521,0.0000 0.4359,0.1838 0.4359 0.1838c 0.1838,0.1838 0.1838,0.4884 0.1838 0.4884c 0.0000,0.2836 -0.1838,0.4674 -0.1838 0.4674c -0.1838,0.1838 -0.4359,0.1838 -0.4359 0.1838c -0.2626,-0.0000 -0.4464,-0.1838 -0.4464 -0.1838c -0.1838,-0.1838 -0.1838,-0.4674 -0.1838 -0.4674ZM 639.8487,570.0000 ZM 641.0567,568.2038 c 0.0000,0.2836 0.1103,0.5147 0.1103 0.5147c 0.1103,0.2311 0.3046,0.4044 0.3046 0.4044c 0.1943,0.1733 0.4569,0.2679 0.4569 0.2679c 0.2626,0.0945 0.5672,0.0945 0.5672 0.0945c 0.5882,0.0000 0.9506,-0.3256 0.9506 -0.3256c 0.3624,-0.3256 0.3624,-0.8508 0.3624 -0.8508c 0.0000,-0.3256 -0.1471,-0.5567 -0.1471 -0.5567c -0.1471,-0.2311 -0.3992,-0.4044 -0.3992 -0.4044c -0.2521,-0.1733 -0.5830,-0.3151 -0.5830 -0.3151c -0.3309,-0.1418 -0.6880,-0.2889 -0.6880 -0.2889c -0.3992,0.2731 -0.6670,0.6355 -0.6670 0.6355c -0.2679,0.3624 -0.2679,0.8246 -0.2679 0.8246ZM 641.0567,568.2038 ZM 642.9475,566.3445 c 0.3361,-0.3046 0.5200,-0.6408 0.5200 -0.6408c 0.1838,-0.3361 0.1838,-0.7038 0.1838 -0.7038c 0.0000,-0.5042 -0.3046,-0.8456 -0.3046 -0.8456c -0.3046,-0.3414 -0.8613,-0.3414 -0.8613 -0.3414c -0.4727,-0.0000 -0.7773,0.2941 -0.7773 0.2941c -0.3046,0.2941 -0.3046,0.7878 -0.3046 0.7878c 0.0000,0.3046 0.1261,0.5200 0.1261 0.5200c 0.1261,0.2153 0.3414,0.3834 0.3414 0.3834c 0.2153,0.1681 0.4937,0.2994 0.4937 0.2994c 0.2784,0.1313 0.5830,0.2468 0.5830 0.2468ZM 642.9475,566.3445 ZM 640.2794,568.2878 c 0.0000,-0.3256 0.1103,-0.6040 0.1103 -0.6040c 0.1103,-0.2784 0.2836,-0.5042 0.2836 -0.5042c 0.1733,-0.2258 0.3992,-0.3992 0.3992 -0.3992c 0.2258,-0.1733 0.4674,-0.2994 0.4674 -0.2994v -0.0420 c -0.3676,-0.2626 -0.6513,-0.6355 -0.6513 -0.6355c -0.2836,-0.3729 -0.2836,-0.9086 -0.2836 -0.9086c 0.0000,-0.3887 0.1471,-0.7038 0.1471 -0.7038c 0.1471,-0.3151 0.3992,-0.5410 0.3992 -0.5410c 0.2521,-0.2258 0.5987,-0.3519 0.5987 -0.3519c 0.3466,-0.1261 0.7563,-0.1261 0.7563 -0.1261c 0.4412,0.0000 0.7878,0.1313 0.7878 0.1313c 0.3466,0.1313 0.5935,0.3676 0.5935 0.3676c 0.2468,0.2363 0.3782,0.5672 0.3782 0.5672c 0.1313,0.3309 0.1313,0.7195 0.1313 0.7195c 0.0000,0.2626 -0.0893,0.5042 -0.0893 0.5042c -0.0893,0.2416 -0.2206,0.4517 -0.2206 0.4517c -0.1313,0.2101 -0.2941,0.3782 -0.2941 0.3782c -0.1628,0.1681 -0.3204,0.2836 -0.3204 0.2836v 0.0420 c 0.2206,0.1261 0.4307,0.2889 0.4307 0.2889c 0.2101,0.1628 0.3729,0.3676 0.3729 0.3676c 0.1628,0.2048 0.2626,0.4674 0.2626 0.4674c 0.0998,0.2626 0.0998,0.5987 0.0998 0.5987c 0.0000,0.3782 -0.1576,0.7038 -0.1576 0.7038c -0.1576,0.3256 -0.4412,0.5672 -0.4412 0.5672c -0.2836,0.2416 -0.6828,0.3782 -0.6828 0.3782c -0.3992,0.1366 -0.8824,0.1366 -0.8824 0.1366c -0.4727,-0.0000 -0.8771,-0.1366 -0.8771 -0.1366c -0.4044,-0.1366 -0.6933,-0.3834 -0.6933 -0.3834c -0.2889,-0.2468 -0.4569,-0.5830 -0.4569 -0.5830c -0.1681,-0.3361 -0.1681,-0.7353 -0.1681 -0.7353Z"/></g><g stroke-linejoin="bevel" stroke-opacity="0.0" fill-opacity="1.0" stroke="rgb(0,0,0)" stroke-width="0.0" fill="rgb(0,0,0)" stroke-linecap="butt" stroke-miterlimit="10.0"><path d="M 786.2185,570.0000 ZM 787.0483,569.2857 h 1.5336 v -4.9370 h -1.2185 v -0.5567 c 0.4622,-0.0840 0.8036,-0.2048 0.8036 -0.2048c 0.3414,-0.1208 0.6145,-0.2889 0.6145 -0.2889h 0.6618 v 5.9874 h 1.3866 v 0.7143 h -3.7815 v -0.7143 Z"/></g><g stroke-linejoin="round" stroke-opacity="1.0" fill-opacity="0.0" stroke="rgb(0,0,255)" stroke-width="0.9999999999999997" fill="rgb(0,0,0)" stroke-linecap="round" stroke-miterlimit="10.0"><path d="M 10.0000,585.0000 h 20.0000 "/></g><g stroke-linejoin="bevel" stroke-opacity="0.0" fill-opacity="1.0" stroke="rgb(0,0,0)" stroke-width="0.0" fill="rgb(0,0,0)" stroke-linecap="butt" stroke-miterlimit="10.0"><path d="M 35.0735,586.6071 ZM 35.8613,581.5021 h 0.8718 v 3.1197 c 0.0000,0.7248 0.2258,1.0452 0.2258 1.0452c 0.2258,0.3204 0.7300,0.3204 0.7300 0.3204c 0.3992,0.0000 0.7038,-0.2048 0.7038 -0.2048c 0.3046,-0.2048 0.6723,-0.6565 0.6723 -0.6565v -3.6239 h 0.8613 v 5.1050 h -0.7143 l -0.0735,-0.7983 h -0.0315 c -0.3571,0.4202 -0.7511,0.6723 -0.7511 0.6723c -0.3939,0.2521 -0.9296,0.2521 -0.9296 0.2521c -0.8193,-0.0000 -1.1922,-0.5042 -1.1922 -0.5042c -0.3729,-0.5042 -0.3729,-1.4916 -0.3729 -1.4916v -3.2353 ZM 40.7878,586.6071 ZM 43.0357,588.4559 c -0.6513,-1.0504 -1.0189,-2.2164 -1.0189 -2.2164c -0.3676,-1.1660 -0.3676,-2.5525 -0.3676 -2.5525c 0.0000,-1.3866 0.3676,-2.5473 0.3676 -2.5473c 0.3676,-1.1607 1.0189,-2.2216 1.0189 -2.2216l 0.5357,0.2521 c -0.6092,1.0084 -0.9086,2.1586 -0.9086 2.1586c -0.2994,1.1502 -0.2994,2.3582 -0.2994 2.3582c 0.0000,1.2080 0.2994,2.3582 0.2994 2.3582c 0.2994,1.1502 0.9086,2.1586 0.9086 2.1586l -0.5357,0.2521 h 0.0000 ZM 43.9706,586.6071 ZM 45.7878,583.9391 l -1.5441,-2.4370 h 0.9349 l 0.6828,1.1239 c 0.1155,0.2101 0.2416,0.4254 0.2416 0.4254c 0.1261,0.2153 0.2626,0.4254 0.2626 0.4254h 0.0420 c 0.1155,-0.2101 0.2311,-0.4254 0.2311 -0.4254c 0.1155,-0.2153 0.2311,-0.4254 0.2311 -0.4254l 0.6197,-1.1239 h 0.9034 l -1.5441,2.5315 l 1.6597,2.5735 h -0.9349 l -0.7458,-1.1870 l -0.2731,-0.4622 c 0.0000,0.0000 -0.2836,-0.4517 -0.2836 -0.4517h -0.0420 c -0.1366,0.2206 -0.2626,0.4464 -0.2626 0.4464c -0.1261,0.2258 -0.2521,0.4674 -0.2521 0.4674l -0.6933,1.1870 h -0.9034 ZM 48.6555,586.6071 ZM 49.0546,588.2038 c 0.6092,-1.0084 0.9086,-2.1586 0.9086 -2.1586c 0.2994,-1.1502 0.2994,-2.3582 0.2994 -2.3582c 0.0000,-1.2080 -0.2994,-2.3582 -0.2994 -2.3582c -0.2994,-1.1502 -0.9086,-2.1586 -0.9086 -2.1586l 0.5357,-0.2521 c 0.6513,1.0609 1.0189,2.2216 1.0189 2.2216c 0.3676,1.1607 0.3676,2.5473 0.3676 2.5473c 0.0000,1.3866 -0.3676,2.5525 -0.3676 2.5525c -0.3676,1.1660 -1.0189,2.2164 -1.0189 2.2164l -0.5357,-0.2521 h 0.0000 Z"/></g></svg>