<?xml version="1.0" encoding="UTF-8"?>
<!DOCTYPE svg PUBLIC "-//W3C//DTD SVG 1.1//EN"
    "http://www.w3.org/Graphics/SVG/1.1/DTD/svg11.dtd"><svg xmlns="http://www.w3.org/2000/svg" height="600.0000" stroke-opacity="1" viewBox="0.0 0.0 800.0 600.0" font-size="1" width="800.0000" xmlns:xlink="http://www.w3.org/1999/xlink" stroke="rgb(0,0,0)" version="1.1"><defs></defs><g stroke-linejoin="bevel" stroke-opacity="0.0" fill-opacity="1.0" stroke="rgb(0,0,0)" stroke-width="0.0" fill="rgb(255,255,255)" stroke-linecap="butt" stroke-miterlimit="10.0"><path d="M 0.0000,0.0000 v 600.0000 h 800.0000 v -600.0000 Z"/></g><g stroke-linejoin="bevel" stroke-opacity="0.0" fill-opacity="1.0" stroke="rgb(0,0,0)" stroke-width="0.0" fill="rgb(0,0,0)" stroke-linecap="butt" stroke-miterlimit="10.0"><path d="M 371.8480,14.1016 ZM 373.6807,11.2834 c 0.5390,0.4620 1.1935,0.7546 1.1935 0.7546c 0.6545,0.2926 1.2859,0.2926 1.2859 0.2926c 0.7084,0.0000 1.0549,-0.2618 1.0549 -0.2618c 0.3465,-0.2618 0.3465,-0.7084 0.3465 -0.7084c 0.0000,-0.2310 -0.1001,-0.4004 -0.1001 -0.4004c -0.1001,-0.1694 -0.2926,-0.3003 -0.2926 -0.3003c -0.1925,-0.1309 -0.4620,-0.2464 -0.4620 -0.2464l -0.5929,-0.2541 l -1.3090,-0.5544 c -0.3850,-0.1540 -0.7469,-0.4004 -0.7469 -0.4004c -0.3619,-0.2464 -0.6468,-0.5775 -0.6468 -0.5775c -0.2849,-0.3311 -0.4543,-0.7700 -0.4543 -0.7700c -0.1694,-0.4389 -0.1694,-0.9933 -0.1694 -0.9933c 0.0000,-0.6160 0.2618,-1.1627 0.2618 -1.1627c 0.2618,-0.5467 0.7392,-0.9548 0.7392 -0.9548c 0.4774,-0.4081 1.1319,-0.6391 1.1319 -0.6391c 0.6545,-0.2310 1.4399,-0.2310 1.4399 -0.2310c 0.8778,0.0000 1.7325,0.3388 1.7325 0.3388c 0.8547,0.3388 1.5015,0.9856 1.5015 0.9856l -1.1550,1.4322 c -0.4928,-0.3850 -0.9856,-0.5929 -0.9856 -0.5929c -0.4928,-0.2079 -1.0934,-0.2079 -1.0934 -0.2079c -0.5852,-0.0000 -0.9317,0.2387 -0.9317 0.2387c -0.3465,0.2387 -0.3465,0.6699 -0.3465 0.6699c 0.0000,0.2310 0.1155,0.3927 0.1155 0.3927c 0.1155,0.1617 0.3234,0.2926 0.3234 0.2926c 0.2079,0.1309 0.4851,0.2464 0.4851 0.2464c 0.2772,0.1155 0.6006,0.2541 0.6006 0.2541l 1.2936,0.5236 c 0.9240,0.3696 1.4553,1.0164 1.4553 1.0164c 0.5313,0.6468 0.5313,1.7094 0.5313 1.7094c 0.0000,0.6314 -0.2541,1.1935 -0.2541 1.1935c -0.2541,0.5621 -0.7392,0.9856 -0.7392 0.9856c -0.4851,0.4235 -1.1935,0.6776 -1.1935 0.6776c -0.7084,0.2541 -1.6016,0.2541 -1.6016 0.2541c -0.9856,-0.0000 -1.9636,-0.3619 -1.9636 -0.3619c -0.9779,-0.3619 -1.7479,-1.0857 -1.7479 -1.0857ZM 380.4107,14.1016 ZM 380.9651,10.2823 c 0.0000,-0.9548 0.3080,-1.7017 0.3080 -1.7017c 0.3080,-0.7469 0.8239,-1.2551 0.8239 -1.2551c 0.5159,-0.5082 1.1935,-0.7777 1.1935 -0.7777c 0.6776,-0.2695 1.4014,-0.2695 1.4014 -0.2695c 0.7238,0.0000 1.3937,0.2695 1.3937 0.2695c 0.6699,0.2695 1.1858,0.7777 1.1858 0.7777c 0.5159,0.5082 0.8239,1.2551 0.8239 1.2551c 0.3080,0.7469 0.3080,1.7017 0.3080 1.7017c 0.0000,0.9548 -0.3080,1.7017 -0.3080 1.7017c -0.3080,0.7469 -0.8239,1.2551 -0.8239 1.2551c -0.5159,0.5082 -1.1858,0.7777 -1.1858 0.7777c -0.6699,0.2695 -1.3937,0.2695 -1.3937 0.2695c -0.7238,-0.0000 -1.4014,-0.2695 -1.4014 -0.2695c -0.6776,-0.2695 -1.1935,-0.7777 -1.1935 -0.7777c -0.5159,-0.5082 -0.8239,-1.2551 -0.8239 -1.2551c -0.3080,-0.7469 -0.3080,-1.7017 -0.3080 -1.7017ZM 380.9651,10.2823 ZM 383.2906,10.2823 c 0.0000,1.0010 0.3465,1.5862 0.3465 1.5862c 0.3465,0.5852 1.0549,0.5852 1.0549 0.5852c 0.6930,0.0000 1.0472,-0.5852 1.0472 -0.5852c 0.3542,-0.5852 0.3542,-1.5862 0.3542 -1.5862c 0.0000,-1.0010 -0.3542,-1.5862 -0.3542 -1.5862c -0.3542,-0.5852 -1.0472,-0.5852 -1.0472 -0.5852c -0.7084,-0.0000 -1.0549,0.5852 -1.0549 0.5852c -0.3465,0.5852 -0.3465,1.5862 -0.3465 1.5862ZM 388.9579,14.1016 ZM 389.9589,3.3060 h 2.2639 v 8.5164 c 0.0000,0.3542 0.1309,0.4928 0.1309 0.4928c 0.1309,0.1386 0.2695,0.1386 0.2695 0.1386h 0.1309 c 0.0000,0.0000 0.1463,-0.0308 0.1463 -0.0308l 0.2772,1.6786 c -0.1848,0.0770 -0.4697,0.1309 -0.4697 0.1309c -0.2849,0.0539 -0.6699,0.0539 -0.6699 0.0539c -0.5852,-0.0000 -0.9856,-0.1848 -0.9856 -0.1848c -0.4004,-0.1848 -0.6391,-0.5159 -0.6391 -0.5159c -0.2387,-0.3311 -0.3465,-0.8008 -0.3465 -0.8008c -0.1078,-0.4697 -0.1078,-1.0549 -0.1078 -1.0549v -8.4240 ZM 393.3624,14.1016 ZM 394.2864,6.4630 h 2.2639 v 4.4507 c 0.0000,0.8316 0.2310,1.1396 0.2310 1.1396c 0.2310,0.3080 0.7238,0.3080 0.7238 0.3080c 0.4312,0.0000 0.7238,-0.2002 0.7238 -0.2002c 0.2926,-0.2002 0.6314,-0.6468 0.6314 -0.6468v -5.0513 h 2.2639 v 7.6386 h -1.8480 l -0.1694,-1.0626 h -0.0462 c -0.4928,0.5852 -1.0549,0.9163 -1.0549 0.9163c -0.5621,0.3311 -1.3475,0.3311 -1.3475 0.3311c -1.2474,-0.0000 -1.8095,-0.8162 -1.8095 -0.8162c -0.5621,-0.8162 -0.5621,-2.2639 -0.5621 -2.2639v -4.7433 ZM 402.1099,14.1016 ZM 403.4189,8.2341 h -1.0472 v -1.6786 l 1.1704,-0.0924 l 0.2618,-2.0329 h 1.8789 v 2.0329 h 1.8326 v 1.7710 h -1.8326 v 3.0647 c 0.0000,0.6468 0.2695,0.9317 0.2695 0.9317c 0.2695,0.2849 0.7161,0.2849 0.7161 0.2849c 0.1848,0.0000 0.3773,-0.0462 0.3773 -0.0462c 0.1925,-0.0462 0.3465,-0.1078 0.3465 -0.1078l 0.3542,1.6478 c -0.3080,0.0924 -0.7238,0.1848 -0.7238 0.1848c -0.4158,0.0924 -0.9702,0.0924 -0.9702 0.0924c -0.7084,-0.0000 -1.2089,-0.2156 -1.2089 -0.2156c -0.5005,-0.2156 -0.8162,-0.6006 -0.8162 -0.6006c -0.3157,-0.3850 -0.4620,-0.9317 -0.4620 -0.9317c -0.1463,-0.5467 -0.1463,-1.2089 -0.1463 -1.2089v -3.0955 ZM 408.0082,14.1016 ZM 410.1335,5.3388 c -0.5698,-0.0000 -0.9394,-0.3311 -0.9394 -0.3311c -0.3696,-0.3311 -0.3696,-0.8547 -0.3696 -0.8547c 0.0000,-0.5236 0.3696,-0.8470 0.3696 -0.8470c 0.3696,-0.3234 0.9394,-0.3234 0.9394 -0.3234c 0.5852,0.0000 0.9471,0.3234 0.9471 0.3234c 0.3619,0.3234 0.3619,0.8470 0.3619 0.8470c 0.0000,0.5236 -0.3619,0.8547 -0.3619 0.8547c -0.3619,0.3311 -0.9471,0.3311 -0.9471 0.3311ZM 410.1335,5.3388 ZM 409.0092,6.4630 h 2.2639 v 7.6386 h -2.2639 v -7.6386 ZM 412.2587,14.1016 ZM 412.8131,10.2823 c 0.0000,-0.9548 0.3080,-1.7017 0.3080 -1.7017c 0.3080,-0.7469 0.8239,-1.2551 0.8239 -1.2551c 0.5159,-0.5082 1.1935,-0.7777 1.1935 -0.7777c 0.6776,-0.2695 1.4014,-0.2695 1.4014 -0.2695c 0.7238,0.0000 1.3937,0.2695 1.3937 0.2695c 0.6699,0.2695 1.1858,0.7777 1.1858 0.7777c 0.5159,0.5082 0.8239,1.2551 0.8239 1.2551c 0.3080,0.7469 0.3080,1.7017 0.3080 1.7017c 0.0000,0.9548 -0.3080,1.7017 -0.3080 1.7017c -0.3080,0.7469 -0.8239,1.2551 -0.8239 1.2551c -0.5159,0.5082 -1.1858,0.7777 -1.1858 0.7777c -0.6699,0.2695 -1.3937,0.2695 -1.3937 0.2695c -0.7238,-0.0000 -1.4014,-0.2695 -1.4014 -0.2695c -0.6776,-0.2695 -1.1935,-0.7777 -1.1935 -0.7777c -0.5159,-0.5082 -0.8239,-1.2551 -0.8239 -1.2551c -0.3080,-0.7469 -0.3080,-1.7017 -0.3080 -1.7017ZM 412.8131,10.2823 ZM 415.1386,10.2823 c 0.0000,1.0010 0.3465,1.5862 0.3465 1.5862c 0.3465,0.5852 1.0549,0.5852 1.0549 0.5852c 0.6930,0.0000 1.0472,-0.5852 1.0472 -0.5852c 0.3542,-0.5852 0.3542,-1.5862 0.3542 -1.5862c 0.0000,-1.0010 -0.3542,-1.5862 -0.3542 -1.5862c -0.3542,-0.5852 -1.0472,-0.5852 -1.0472 -0.5852c -0.7084,-0.0000 -1.0549,0.5852 -1.0549 0.5852c -0.3465,0.5852 -0.3465,1.5862 -0.3465 1.5862ZM 420.8060,14.1016 ZM 421.8070,6.4630 h 1.8480 l 0.1540,0.9702 h 0.0616 c 0.4928,-0.4620 1.0780,-0.8085 1.0780 -0.8085c 0.5852,-0.3465 1.3706,-0.3465 1.3706 -0.3465c 1.2474,0.0000 1.8095,0.8162 1.8095 0.8162c 0.5621,0.8162 0.5621,2.2639 0.5621 2.2639v 4.7433 h -2.2639 v -4.4507 c 0.0000,-0.8316 -0.2233,-1.1396 -0.2233 -1.1396c -0.2233,-0.3080 -0.7161,-0.3080 -0.7161 -0.3080c -0.4312,-0.0000 -0.7392,0.1925 -0.7392 0.1925c -0.3080,0.1925 -0.6776,0.5467 -0.6776 0.5467v 5.1591 h -2.2639 v -7.6386 Z"/></g><g stroke-linejoin="miter" stroke-opacity="1.0" fill-opacity="0.0" stroke="rgb(211,211,211)" stroke-width="0.9999999999999997" fill="rgb(0,0,0)" stroke-dashoffset="0.0" stroke-linecap="butt" stroke-miterlimit="10.0" stroke-dasharray="4.999999999999998,4.999999999999998"><path d="M 38.0357,35.0000 v 515.0000 "/></g><g stroke-linejoin="miter" stroke-opacity="1.0" fill-opacity="0.0" stroke="rgb(211,211,211)" stroke-width="0.9999999999999997" fill="rgb(0,0,0)" stroke-dashoffset="0.0" stroke-linecap="butt" stroke-miterlimit="10.0" stroke-dasharray="4.999999999999998,4.999999999999998"><path d="M 188.0504,35.0000 v 515.0000 "/></g><g stroke-linejoin="miter" stroke-opacity="1.0" fill-opacity="0.0" stroke="rgb(211,211,211)" stroke-width="0.9999999999999997" fill="rgb(0,0,0)" stroke-dashoffset="0.0" stroke-linecap="butt" stroke-miterlimit="10.0" stroke-dasharray="4.999999999999998,4.999999999999998"><path d="M 338.0651,35.0000 v 515.0000 "/></g><g stroke-linejoin="miter" stroke-opacity="1.0" fill-opacity="0.0" stroke="rgb(211,211,211)" stroke-width="0.9999999999999997" fill="rgb(0,0,0)" stroke-dashoffset="0.0" stroke-linecap="butt" stroke-miterlimit="10.0" stroke-dasharray="4.999999999999998,4.999999999999998"><path d="M 488.0798,35.0000 v 515.0000 "/></g><g stroke-linejoin="miter" stroke-opacity="1.0" fill-opacity="0.0" stroke="rgb(211,211,211)" stroke-width="0.9999999999999997" fill="rgb(0,0,0)" stroke-dashoffset="0.0" stroke-linecap="butt" stroke-miterlimit="10.0" stroke-dasharray="4.999999999999998,4.999999999999998"><path d="M 638.0945,35.0000 v 515.0000 "/></g><g stroke-linejoin="miter" stroke-opacity="1.0" fill-opacity="0.0" stroke="rgb(211,211,211)" stroke-width="0.9999999999999997" fill="rgb(0,0,0)" stroke-dashoffset="0.0" stroke-linecap="butt" stroke-miterlimit="10.0" stroke-dasharray="4.999999999999998,4.999999999999998"><path d="M 788.1092,35.0000 v 515.0000 "/></g><g stroke-linejoin="miter" stroke-opacity="1.0" fill-opacity="0.0" stroke="rgb(211,211,211)" stroke-width="0.9999999999999997" fill="rgb(0,0,0)" stroke-dashoffset="0.0" stroke-linecap="butt" stroke-miterlimit="10.0" stroke-dasharray="4.999999999999998,4.999999999999998"><path d="M 38.0357,550.0000 h 750.0735 "/></g><g stroke-linejoin="miter" stroke-opacity="1.0" fill-opacity="0.0" stroke="rgb(211,211,211)" stroke-width="0.9999999999999997" fill="rgb(0,0,0)" stroke-dashoffset="0.0" stroke-linecap="butt" stroke-miterlimit="10.0" stroke-dasharray="4.999999999999998,4.999999999999998"><path d="M 38.0357,464.1667 h 750.0735 "/></g><g stroke-linejoin="miter" stroke-opacity="1.0" fill-opacity="0.0" stroke="rgb(211,211,211)" stroke-width="0.9999999999999997" fill="rgb(0,0,0)" stroke-dashoffset="0.0" stroke-linecap="butt" stroke-miterlimit="10.0" stroke-dasharray="4.999999999999998,4.999999999999998"><path d="M 38.0357,378.3333 h 750.0735 "/></g><g stroke-linejoin="miter" stroke-opacity="1.0" fill-opacity="0.0" stroke="rgb(211,211,211)" stroke-width="0.9999999999999997" fill="rgb(0,0,0)" stroke-dashoffset="0.0" stroke-linecap="butt" stroke-miterlimit="10.0" stroke-dasharray="4.999999999999998,4.999999999999998"><path d="M 38.0357,292.5000 h 750.0735 "/></g><g stroke-linejoin="miter" stroke-opacity="1.0" fill-opacity="0.0" stroke="rgb(211,211,211)" stroke-width="0.9999999999999997" fill="rgb(0,0,0)" stroke-dashoffset="0.0" stroke-linecap="butt" stroke-miterlimit="10.0" stroke-dasharray="4.999999999999998,4.999999999999998"><path d="M 38.0357,206.6667 h 750.0735 "/></g><g stroke-linejoin="miter" stroke-opacity="1.0" fill-opacity="0.0" stroke="rgb(211,211,211)" stroke-width="0.9999999999999997" fill="rgb(0,0,0)" stroke-dashoffset="0.0" stroke-linecap="butt" stroke-miterlimit="10.0" stroke-dasharray="4.999999999999998,4.999999999999998"><path d="M 38.0357,120.8333 h 750.0735 "/></g><g stroke-linejoin="miter" stroke-opacity="1.0" fill-opacity="0.0" stroke="rgb(211,211,211)" stroke-width="0.9999999999999997" fill="rgb(0,0,0)" stroke-dashoffset="0.0" stroke-linecap="butt" stroke-miterlimit="10.0" stroke-dasharray="4.999999999999998,4.999999999999998"><path d="M 38.0357,35.0000 h 750.0735 "/></g><g stroke-linejoin="round" stroke-opacity="1.0" fill-opacity="0.0" stroke="rgb(0,0,255)" stroke-width="0.9999999999999997" fill="rgb(0,0,0)" stroke-linecap="round" stroke-miterlimit="10.0"><defs><clipPath id="myClip1"><path d="M 38.0357,35.0000 v 515.0000 h 750.0735 v -515.0000 Z"/></clipPath></defs><g clip-path="url(#myClip1)"><path d="M 38.0357,294.8886 l 0.7501,0.3911 l 0.7501,-1.4635 l 0.7501,-1.9920 l 0.7501,-1.8007 l 0.7501,-1.2515 l 0.7501,-0.5740 l 0.7501,0.0882 l 0.7501,0.6510 l 0.7501,1.0714 l 0.7501,1.1575 l 0.7501,1.2859 l 0.7501,1.2914 l 0.7501,1.1930 l 0.7501,1.1875 l 0.7501,0.9383 l 0.7501,0.6443 l 0.7501,0.3288 l 0.7501,0.0121 l 0.7501,0.1079 l 0.7501,-0.1826 l 0.7501,-0.4504 l 0.7501,-0.3262 l 0.7501,-0.5358 l 0.7501,-0.7138 l 0.7501,-0.8555 l 0.7501,-0.9583 l 0.7501,-0.9044 l 0.7501,-0.9319 l 0.7501,-0.9256 l 0.7501,-0.9689 l 0.7501,-0.9009 l 0.7501,-0.8063 l 0.7501,-0.6896 l 0.7501,-0.5557 l 0.7501,-0.4093 l 0.7501,-0.2554 l 0.7501,-0.5069 l 0.7501,-0.3409 l 0.7501,-0.1702 l 0.7501,0.0008 l 0.7501,0.1676 l 0.7501,0.3266 l 0.7501,0.4743 l 0.7501,0.1960 l 0.7501,0.3218 l 0.7501,0.4379 l 0.7501,0.5422 l 0.7501,0.6329 l 0.7501,0.7088 l 0.7501,0.7689 l 0.7501,0.8125 l 0.7501,0.8395 l 0.7501,0.8141 l 0.7501,0.8091 l 0.7501,0.7892 l 0.7501,0.7555 l 0.7501,0.7089 l 0.7501,0.6506 l 0.7501,0.5822 l 0.7501,0.8340 l 0.7501,0.7445 l 0.7501,0.6442 l 0.7501,0.5350 l 0.7501,0.4190 l 0.7501,0.2981 l 0.7501,0.1744 l 0.7501,0.0497 l 0.7501,-0.0739 l 0.7501,-0.1948 l 0.7501,-0.3113 l 0.7501,-0.4218 l 0.7501,-0.5250 l 0.7501,-0.1354 l 0.7501,-0.2264 l 0.7501,-0.3133 l 0.7501,-0.3949 l 0.7501,-0.4704 l 0.7501,-0.5388 l 0.7501,-0.5996 l 0.7501,-0.6521 l 0.7501,-0.6958 l 0.7501,-0.7305 l 0.7501,-0.7559 l 0.7501,-0.7719 l 0.7501,-0.7785 l 0.7501,-0.7759 l 0.7501,-0.7643 l 0.7501,-0.8746 l 0.7501,-0.8447 l 0.7501,-0.8057 l 0.7501,-0.7581 l 0.7501,-0.7026 l 0.7501,-0.6400 l 0.7501,-0.5711 l 0.7501,-0.4968 l 0.7501,-0.4180 l 0.7501,-0.3356 l 0.7501,-0.2504 l 0.7501,-0.1634 l 0.7501,-0.0756 l 0.7501,0.0122 l 0.7501,0.0991 l 0.7501,0.1843 l 0.7501,0.2669 l 0.7501,-0.2395 l 0.7501,-0.1591 l 0.7501,-0.0778 l 0.7501,0.0035 l 0.7501,0.0841 l 0.7501,0.1633 l 0.7501,0.2403 l 0.7501,0.3146 l 0.7501,0.3855 l 0.7501,0.4524 l 0.7501,0.5148 l 0.7501,0.5723 l 0.7501,0.6243 l 0.7501,0.6707 l 0.7501,0.7109 l 0.7501,0.4635 l 0.7501,0.4931 l 0.7501,0.5184 l 0.7501,0.5392 l 0.7501,0.5555 l 0.7501,0.5671 l 0.7501,0.5742 l 0.7501,0.5766 l 0.7501,0.5744 l 0.7501,0.5677 l 0.7501,0.5567 l 0.7501,0.5414 l 0.7501,0.5221 l 0.7501,0.4989 l 0.7501,0.4721 l 0.7501,0.4419 l 0.7501,0.4087 l 0.7501,0.3726 l 0.7501,0.3340 l 0.7501,0.2932 l 0.7501,0.2505 l 0.7501,0.2063 l 0.7501,0.1609 l 0.7501,0.1146 l 0.7501,0.0678 l 0.7501,0.5016 l 0.7501,0.4519 l 0.7501,0.3993 l 0.7501,0.3443 l 0.7501,0.2873 l 0.7501,0.2286 l 0.7501,0.1688 l 0.7501,0.1081 l 0.7501,0.0470 l 0.7501,-0.0140 l 0.7501,-0.0746 l 0.7501,-0.1344 l 0.7501,-0.1930 l 0.7501,-0.2500 l 0.7501,-0.3052 l 0.7501,-0.3581 l 0.7501,-0.4085 l 0.7501,-0.4561 l 0.7501,-0.5006 l 0.7501,-0.5418 l 0.7501,-0.5795 l 0.7501,-0.6134 l 0.7501,-0.6434 l 0.7501,-0.6694 l 0.7501,-0.6913 l 0.7501,-0.7089 l 0.7501,-0.7222 l 0.7501,-0.7313 l 0.7501,-0.7359 l 0.7501,-0.7363 l 0.7501,-0.7324 l 0.7501,-0.8338 l 0.7501,-0.8210 l 0.7501,-0.8037 l 0.7501,-0.7818 l 0.7501,-0.7557 l 0.7501,-0.7254 l 0.7501,-0.6912 l 0.7501,-0.6533 l 0.7501,-0.6120 l 0.7501,-0.5675 l 0.7501,-0.5201 l 0.7501,-0.4701 l 0.7501,-0.4178 l 0.7501,-0.3634 l 0.7501,-0.3073 l 0.7501,-0.2499 l 0.7501,-0.1913 l 0.7501,-0.1320 l 0.7501,-0.0722 l 0.7501,-0.0123 l 0.7501,0.0474 l 0.7501,0.1066 l 0.7501,0.1651 l 0.7501,0.2225 l 0.7501,0.2785 l 0.7501,0.3329 l 0.7501,0.3854 l 0.7501,0.4358 l 0.7501,0.4838 l 0.7501,0.5292 l 0.7501,0.5718 l 0.7501,0.6115 l 0.7501,0.6481 l 0.7501,0.2031 l 0.7501,0.2348 l 0.7501,0.2652 l 0.7501,0.2942 l 0.7501,0.3217 l 0.7501,0.3476 l 0.7501,0.3718 l 0.7501,0.3941 l 0.7501,0.4145 l 0.7501,0.4329 l 0.7501,0.4492 l 0.7501,0.4634 l 0.7501,0.4754 l 0.7501,0.4852 l 0.7501,0.4927 l 0.7501,0.4979 l 0.7501,0.5009 l 0.7501,0.5017 l 0.7501,0.5002 l 0.7501,0.4964 l 0.7501,0.4905 l 0.7501,0.4824 l 0.7501,0.4722 l 0.7501,0.4600 l 0.7501,0.4458 l 0.7501,0.4297 l 0.7501,0.4118 l 0.7501,0.3921 l 0.7501,0.3709 l 0.7501,0.3481 l 0.7501,0.3239 l 0.7501,0.7324 l 0.7501,0.7044 l 0.7501,0.6734 l 0.7501,0.6398 l 0.7501,0.6035 l 0.7501,0.5649 l 0.7501,0.5240 l 0.7501,0.4811 l 0.7501,0.4364 l 0.7501,0.3900 l 0.7501,0.3422 l 0.7501,0.2930 l 0.7501,0.2429 l 0.7501,0.1919 l 0.7501,0.1403 l 0.7501,0.0883 l 0.7501,0.0361 l 0.7501,-0.0161 l 0.7501,-0.0681 l 0.7501,-0.1197 l 0.7501,-0.1707 l 0.7501,-0.2208 l 0.7501,-0.2700 l 0.7501,-0.3180 l 0.7501,-0.3646 l 0.7501,-0.4097 l 0.7501,-0.4531 l 0.7501,-0.4947 l 0.7501,-0.5342 l 0.7501,-0.5716 l 0.7501,-0.6068 l 0.7501,-0.6396 l 0.7501,-0.6699 l 0.7501,-0.6976 l 0.7501,-0.7227 l 0.7501,-0.7450 l 0.7501,-0.7645 l 0.7501,-0.7811 l 0.7501,-0.7949 l 0.7501,-0.8056 l 0.7501,-0.8134 l 0.7501,-0.8183 l 0.7501,-0.8201 l 0.7501,-0.8190 l 0.7501,-0.8150 l 0.7501,-0.8081 l 0.7501,-0.7982 l 0.7501,-0.7856 l 0.7501,-0.7702 l 0.7501,-1.1327 l 0.7501,-1.1111 l 0.7501,-1.0856 l 0.7501,-1.0564 l 0.7501,-1.0235 l 0.7501,-0.9872 l 0.7501,-0.9475 l 0.7501,-0.9047 l 0.7501,-0.8588 l 0.7501,-0.8102 l 0.7501,-0.7588 l 0.7501,-0.7050 l 0.7501,-0.6489 l 0.7501,-0.5907 l 0.7501,-0.5307 l 0.7501,-0.4690 l 0.7501,-0.4059 l 0.7501,-0.3416 l 0.7501,-0.2763 l 0.7501,-0.2102 l 0.7501,-0.1435 l 0.7501,-0.0766 l 0.7501,-0.0095 l 0.7501,0.0575 l 0.7501,0.1241 l 0.7501,0.1902 l 0.7501,0.2556 l 0.7501,0.3199 l 0.7501,0.3831 l 0.7501,0.4450 l 0.7501,0.5053 l 0.7501,0.5638 l 0.7501,0.6204 l 0.7501,0.6750 l 0.7501,0.7272 l 0.7501,0.7771 l 0.7501,0.8245 l 0.7501,0.8691 l 0.7501,0.9110 l 0.7501,0.9499 l 0.7501,0.9858 l 0.7501,1.0185 l 0.7501,1.0481 l 0.7501,1.0743 l 0.7501,1.0972 l 0.7501,1.1167 l 0.7501,1.1327 l 0.7501,1.1453 l 0.7501,1.1543 l 0.7501,1.1598 l 0.7501,1.1618 l 0.7501,1.1603 l 0.7501,1.1554 l 0.7501,1.1469 l 0.7501,1.1351 l 0.7501,1.1199 l 0.7501,1.1014 l 0.7501,1.0797 l 0.7501,1.0548 l 0.7501,1.0269 l 0.7501,0.9959 l 0.7501,0.9622 l 0.7501,0.9257 l 0.7501,1.8684 l 0.7501,1.8249 l 0.7501,1.7761 l 0.7501,1.7224 l 0.7501,1.6637 l 0.7501,1.6004 l 0.7501,1.5326 l 0.7501,1.4605 l 0.7501,1.3844 l 0.7501,1.3045 l 0.7501,1.2210 l 0.7501,1.1343 l 0.7501,1.0444 l 0.7501,0.9518 l 0.7501,0.8567 l 0.7501,0.7593 l 0.7501,0.6600 l 0.7501,0.5590 l 0.7501,0.4566 l 0.7501,0.3532 l 0.7501,0.2489 l 0.7501,0.1441 l 0.7501,0.0391 l 0.7501,-0.0659 l 0.7501,-0.1705 l 0.7501,-0.2745 l 0.7501,-0.3776 l 0.7501,-0.4795 l 0.7501,-0.5799 l 0.7501,-0.6786 l 0.7501,-0.7753 l 0.7501,-0.8698 l 0.7501,-0.9619 l 0.7501,-1.0512 l 0.7501,-1.1376 l 0.7501,-1.2208 l 0.7501,-1.3007 l 0.7501,-1.3770 l 0.7501,-1.4496 l 0.7501,-1.5182 l 0.7501,-1.5828 l 0.7501,-1.6431 l 0.7501,-1.6991 l 0.7501,-1.7505 l 0.7501,-1.7974 l 0.7501,-1.8395 l 0.7501,-1.8768 l 0.7501,-1.9092 l 0.7501,-1.9366 l 0.7501,-1.9591 l 0.7501,-1.9765 l 0.7501,-1.9888 l 0.7501,-1.9961 l 0.7501,-1.9982 l 0.7501,-1.9953 l 0.7501,-1.9874 l 0.7501,-1.9744 l 0.7501,-1.9565 l 0.7501,-1.9338 l 0.7501,-1.9062 l 0.7501,-1.8739 l 0.7501,-1.8369 l 0.7501,-1.7955 l 0.7501,-1.7496 l 0.7501,-1.6995 l 0.7501,-3.2625 l 0.7501,-3.2019 l 0.7501,-3.1336 l 0.7501,-3.0576 l 0.7501,-2.9742 l 0.7501,-2.8837 l 0.7501,-2.7863 l 0.7501,-2.6822 l 0.7501,-2.5718 l 0.7501,-2.4553 l 0.7501,-2.3331 l 0.7501,-2.2053 l 0.7501,-2.0725 l 0.7501,-1.9348 l 0.7501,-1.7927 l 0.7501,-1.6465 l 0.7501,-1.4965 l 0.7501,-1.3432 l 0.7501,-1.1869 l 0.7501,-1.0280 l 0.7501,-0.8668 l 0.7501,-0.7038 l 0.7501,-0.5393 l 0.7501,-0.3738 l 0.7501,-0.2076 l 0.7501,-0.0412 l 0.7501,0.1252 l 0.7501,0.2911 l 0.7501,0.4561 l 0.7501,0.6199 l 0.7501,0.7820 l 0.7501,0.9422 l 0.7501,1.1000 l 0.7501,1.2551 l 0.7501,1.4071 l 0.7501,1.5558 l 0.7501,1.7007 l 0.7501,1.8416 l 0.7501,1.9782 l 0.7501,2.1101 l 0.7501,2.2372 l 0.7501,2.3590 l 0.7501,2.4754 l 0.7501,2.5861 l 0.7501,2.6909 l 0.7501,2.7896 l 0.7501,2.8819 l 0.7501,2.9678 l 0.7501,3.0469 l 0.7501,3.1192 l 0.7501,3.1845 l 0.7501,3.2428 l 0.7501,3.2938 l 0.7501,3.3375 l 0.7501,3.3739 l 0.7501,3.4028 l 0.7501,3.4243 l 0.7501,3.4383 l 0.7501,3.4448 l 0.7501,3.4438 l 0.7501,3.4354 l 0.7501,3.4195 l 0.7501,3.3963 l 0.7501,4.4900 l 0.7501,4.4510 l 0.7501,4.4025 l 0.7501,4.3446 l 0.7501,4.2775 l 0.7501,4.2013 l 0.7501,4.1163 l 0.7501,4.0226 l 0.7501,3.9205 l 0.7501,3.8102 l 0.7501,3.6919 l 0.7501,3.5660 l 0.7501,3.4327 l 0.7501,3.2923 l 0.7501,3.1452 l 0.7501,2.9917 l 0.7501,2.8320 l 0.7501,2.6666 l 0.7501,2.4958 l 0.7501,2.3200 l 0.7501,2.1396 l 0.7501,1.9549 l 0.7501,1.7664 l 0.7501,1.5744 l 0.7501,1.3793 l 0.7501,1.1816 l 0.7501,0.9817 l 0.7501,0.7799 l 0.7501,0.5767 l 0.7501,0.3725 l 0.7501,0.1678 l 0.7501,-0.0371 l 0.7501,-0.2417 l 0.7501,-0.4457 l 0.7501,-0.6486 l 0.7501,-0.8500 l 0.7501,-1.0495 l 0.7501,-1.2468 l 0.7501,-1.4414 l 0.7501,-1.6329 l 0.7501,-1.8210 l 0.7501,-2.0053 l 0.7501,-2.1855 l 0.7501,-2.3612 l 0.7501,-2.5321 l 0.7501,-2.6979 l 0.7501,-2.8582 l 0.7501,-3.0127 l 0.7501,-3.1612 l 0.7501,-3.3034 l 0.7501,-3.4390 l 0.7501,-3.5677 l 0.7501,-3.6894 l 0.7501,-3.8038 l 0.7501,-3.9108 l 0.7501,-4.0101 l 0.7501,-4.1015 l 0.7501,-4.1849 l 0.7501,-4.2602 l 0.7501,-4.3273 l 0.7501,-4.3859 l 0.7501,-4.4361 l 0.7501,-4.4778 l 0.7501,-4.5109 l 0.7501,-4.5354 l 0.7501,-4.5512 l 0.7501,-4.5583 l 0.7501,-4.5568 l 0.7501,-4.5466 l 0.7501,-4.5279 l 0.7501,-4.5006 l 0.7501,-4.4649 l 0.7501,-4.4208 l 0.7501,-4.3684 l 0.7501,-4.3078 l 0.7501,-4.2393 l 0.7501,-4.1629 l 0.7501,-4.0788 l 0.7501,-3.9871 l 0.7501,-3.8881 l 0.7501,-3.7820 l 0.7501,-3.6689 l 0.7501,-3.5491 l 0.7501,-3.4229 l 0.7501,-3.2904 l 0.7501,-3.1520 l 0.7501,-3.0079 l 0.7501,-2.8584 l 0.7501,-2.7038 l 0.7501,-2.5443 l 0.7501,-2.3803 l 0.7501,-2.2121 l 0.7501,-2.0399 l 0.7501,-1.8642 l 0.7501,-1.6852 l 0.7501,-1.5033 l 0.7501,-1.3188 l 0.7501,-8.5776 l 0.7501,-8.3830 l 0.7501,-8.1734 l 0.7501,-7.9494 l 0.7501,-7.7112 l 0.7501,-7.4594 l 0.7501,-7.1945 l 0.7501,-6.9169 l 0.7501,-6.6272 l 0.7501,-6.3259 l 0.7501,-6.0136 l 0.7501,-5.6908 l 0.7501,-5.3582 l 0.7501,-5.0163 l 0.7501,-4.6659 l 0.7501,-4.3074 l 0.7501,-3.9416 l 0.7501,-3.5691 l 0.7501,-3.1906 l 0.7501,-2.8068 l 0.7501,-2.4183 l 0.7501,-2.0258 l 0.7501,-1.6300 l 0.7501,-1.2317 l 0.7501,-0.8314 l 0.7501,-0.4300 l 0.7501,-0.0281 l 0.7501,0.3737 l 0.7501,0.7746 l 0.7501,1.1739 l 0.7501,1.5710 l 0.7501,1.9651 l 0.7501,2.3556 l 0.7501,2.7419 l 0.7501,3.1233 l 0.7501,3.4992 l 0.7501,3.8689 l 0.7501,4.2318 l 0.7501,4.5874 l 0.7501,4.9349 l 0.7501,5.2740 l 0.7501,5.6039 l 0.7501,5.9243 l 0.7501,6.2344 l 0.7501,6.5340 l 0.7501,6.8224 l 0.7501,7.0993 l 0.7501,7.3641 l 0.7501,7.6165 l 0.7501,7.8560 l 0.7501,8.0824 l 0.7501,8.2952 l 0.7501,8.4941 l 0.7501,8.6789 l 0.7501,8.8492 l 0.7501,9.0048 l 0.7501,9.1455 l 0.7501,9.2711 l 0.7501,9.3813 l 0.7501,9.4761 l 0.7501,9.5553 l 0.7501,9.6188 l 0.7501,9.6666 l 0.7501,9.6986 l 0.7501,9.7147 l 0.7501,9.7151 l 0.7501,9.6997 l 0.7501,9.6685 l 0.7501,9.6217 l 0.7501,9.5594 l 0.7501,9.4816 l 0.7501,9.3886 l 0.7501,9.2806 l 0.7501,9.1576 l 0.7501,9.0201 l 0.7501,8.8681 l 0.7501,8.7020 l 0.7501,8.5221 l 0.7501,8.3287 l 0.7501,8.1220 l 0.7501,7.9026 l 0.7501,7.6707 l 0.7501,7.4267 l 0.7501,7.1711 l 0.7501,6.9042 l 0.7501,6.6266 l 0.7501,6.3386 l 0.7501,6.0408 l 0.7501,5.7336 l 0.7501,5.4175 l 0.7501,5.0931 l 0.7501,4.7608 l 0.7501,4.4213 l 0.7501,4.0750 l 0.7501,3.7224 l 0.7501,3.3643 l 0.7501,3.0010 l 0.7501,2.6332 l 0.7501,2.2616 l 0.7501,1.8865 l 0.7501,1.5087 l 0.7501,1.1287 l 0.7501,0.7472 l 0.7501,0.3646 l 0.7501,-0.0183 l 0.7501,-0.4011 l 0.7501,-0.7831 l 0.7501,-1.1638 l 0.7501,-1.5425 l 0.7501,-1.9187 l 0.7501,-2.2918 l 0.7501,-2.6614 l 0.7501,-3.0267 l 0.7501,-3.3873 l 0.7501,-3.7426 l 0.7501,-4.0921 l 0.7501,-4.4353 l 0.7501,-4.7716 l 0.7501,-5.1007 l 0.7501,-5.4219 l 0.7501,-5.7349 l 0.7501,-6.0391 l 0.7501,-6.3342 l 0.7501,-6.6197 l 0.7501,-6.8951 l 0.7501,-7.1602 l 0.7501,-7.4145 l 0.7501,3.6372 l 0.7501,3.4000 l 0.7501,3.1579 l 0.7501,2.9111 l 0.7501,2.6601 l 0.7501,2.4053 l 0.7501,2.1470 l 0.7501,1.8856 l 0.7501,1.6215 l 0.7501,1.3551 l 0.7501,1.0869 l 0.7501,0.8171 l 0.7501,0.5462 l 0.7501,0.2746 l 0.7501,0.0027 l 0.7501,-0.2691 l 0.7501,-0.5405 l 0.7501,-0.8109 l 0.7501,-1.0801 l 0.7501,-1.3477 l 0.7501,-1.6132 l 0.7501,-1.8763 l 0.7501,-2.1366 l 0.7501,-2.3937 l 0.7501,-2.6473 l 0.7501,-2.8970 l 0.7501,-3.1424 l 0.7501,-3.3833 l 0.7501,-3.6192 l 0.7501,-3.8499 l 0.7501,-4.0750 l 0.7501,-4.2942 l 0.7501,-4.5072 l 0.7501,-4.7137 l 0.7501,-4.9135 l 0.7501,-5.1062 l 0.7501,-5.2916 l 0.7501,-5.4694 l 0.7501,-5.6394 l 0.7501,-5.8015 l 0.7501,-5.9552 l 0.7501,-6.1005 l 0.7501,-6.2372 l 0.7501,-6.3651 l 0.7501,-6.4840 l 0.7501,-6.5937 l 0.7501,-6.6942 l 0.7501,-6.7853 l 0.7501,-6.8668 l 0.7501,-6.9388 l 0.7501,-7.0010 l 0.7501,-7.0535 l 0.7501,-7.0961 l 0.7501,-7.1289 l 0.7501,-7.1517 l 0.7501,-7.1647 l 0.7501,-7.1677 l 0.7501,-7.1608 l 0.7501,-7.1440 l 0.7501,-7.1174 l 0.7501,-7.0810 l 0.7501,-7.0348 l 0.7501,-6.9790 l 0.7501,-6.9136 l 0.7501,-6.8387 l 0.7501,-6.7545 l 0.7501,-6.6611 l 0.7501,-6.5586 l 0.7501,-6.4472 l 0.7501,-6.3270 l 0.7501,-6.1983 l 0.7501,-6.0611 l 0.7501,-5.9158 l 0.7501,-5.7624 l 0.7501,-5.6013 l 0.7501,-5.4327 l 0.7501,-5.2567 l 0.7501,-5.0737 l 0.7501,-4.8839 l 0.7501,-4.6876 l 0.7501,-4.4850 l 0.7501,-4.2765 l 0.7501,-4.0622 l 0.7501,-3.8425 l 0.7501,-3.6178 l 0.7501,-3.3882 l 0.7501,-3.1542 l 0.7501,-2.9160 l 0.7501,-2.6740 l 0.7501,-2.4285 l 0.7501,-2.1798 l 0.7501,-1.9283 l 0.7501,-1.6742 l 0.7501,-1.4180 l 0.7501,-1.1600 l 0.7501,-0.9005 l 0.7501,-0.6398 l 0.7501,-0.3784 l 0.7501,-0.1164 l 0.7501,0.1456 l 0.7501,0.4073 l 0.7501,0.6685 l 0.7501,0.9288 l 0.7501,1.1878 l 0.7501,1.4452 l 0.7501,1.7007 l 0.7501,1.9539 l 0.7501,2.2045 l 0.7501,2.4523 l 0.7501,2.6968 l 0.7501,2.9377 l 0.7501,3.1748 l 0.7501,3.4078 l 0.7501,3.6363 l 0.7501,3.8601 l 0.7501,4.0789 l 0.7501,4.2924 l 0.7501,4.5003 l 0.7501,4.7024 l 0.7501,4.8985 l 0.7501,5.0882 l 0.7501,5.2714 l 0.7501,5.4478 l 0.7501,5.6172 l 0.7501,5.7795 l 0.7501,5.9343 l 0.7501,6.0816 l 0.7501,6.2211 l 0.7501,6.3527 l 0.7501,-0.1104 l 0.7501,0.0067 l 0.7501,0.1237 l 0.7501,0.2405 l 0.7501,0.3571 l 0.7501,0.4731 l 0.7501,0.5886 l 0.7501,0.7033 l 0.7501,0.8171 l 0.7501,0.9298 l 0.7501,1.0414 l 0.7501,1.1517 l 0.7501,1.2605 l 0.7501,1.3677 l 0.7501,1.4732 l 0.7501,1.5768 l 0.7501,1.6785 l 0.7501,1.7780 l 0.7501,1.8754 l 0.7501,1.9704 l 0.7501,2.0629 l 0.7501,2.1529 l 0.7501,2.2402 l 0.7501,2.3247 l 0.7501,2.4063 l 0.7501,2.4850 l 0.7501,2.5606 l 0.7501,2.6330 l 0.7501,2.7022 l 0.7501,2.7681 l 0.7501,2.8305 l 0.7501,2.8895 l 0.7501,2.9449 l 0.7501,2.9967 l 0.7501,3.0449 l 0.7501,3.0893 l 0.7501,3.1300 l 0.7501,3.1668 l 0.7501,3.1998 l 0.7501,3.2289 l 0.7501,3.2541 l 0.7501,3.2753 l 0.7501,3.2926 l 0.7501,3.3059 l 0.7501,3.3151 l 0.7501,3.3204 l 0.7501,3.3217 l 0.7501,3.3189 l 0.7501,3.3122 l 0.7501,3.3015 l 0.7501,3.2868 l 0.7501,3.2682 l 0.7501,3.2456 l 0.7501,3.2192 l 0.7501,3.1889 l 0.7501,3.1549 l 0.7501,3.1170 l 0.7501,3.0755 l 0.7501,3.0302 l 0.7501,2.9814 l 0.7501,2.9291 l 0.7501,2.8732 l 0.7501,2.8140 l 0.7501,2.7514 l 0.7501,2.6856 l 0.7501,2.6166 l 0.7501,2.5445 l 0.7501,2.4694 l 0.7501,2.3915 l 0.7501,2.3107 l 0.7501,2.2272 l 0.7501,2.1410 l 0.7501,2.0524 l 0.7501,1.9614 l 0.7501,1.8680 l 0.7501,1.7725 l 0.7501,1.6749 l 0.7501,1.5754 l 0.7501,1.4740 l 0.7501,1.3710 l 0.7501,1.2663 l 0.7501,1.1602 l 0.7501,1.0527 l 0.7501,0.9440 l 0.7501,0.8342 l 0.7501,0.7234 l 0.7501,0.6118 l 0.7501,0.4995 l 0.7501,0.3867 l 0.7501,0.2734 l 0.7501,0.1597 l 0.7501,0.0459 l 0.7501,-0.0679 l 0.7501,-0.1817 l 0.7501,-0.2953 l 0.7501,-0.4085 l 0.7501,-0.5213 l 0.7501,-0.6334 l 0.7501,-0.7449 l 0.7501,-0.8554 l 0.7501,-0.9650 l 0.7501,-1.0735 l 0.7501,-1.1808 l 0.7501,-1.2868 l 0.7501,-1.3913 l 0.7501,-1.4942 l 0.7501,-1.5954 l 0.7501,-1.6948 l 0.7501,-1.7922 l 0.7501,-1.8877 l 0.7501,-1.9810 l 0.7501,-2.0721 l 0.7501,-2.1609 l 0.7501,-2.2472 l 0.7501,-2.3310 l 0.7501,-2.4122 l 0.7501,-2.4906 l 0.7501,-2.5663 l 0.7501,-2.6391 l 0.7501,-2.7090 l 0.7501,-2.7758 l 0.7501,-2.8396 l 0.7501,-2.9001 l 0.7501,-2.9575 l 0.7501,-3.0115 l 0.7501,-3.0622 l 0.7501,-3.1095 l 0.7501,-0.5354 l 0.7501,-0.5760 l 0.7501,-0.6160 l 0.7501,-0.6553 l 0.7501,-0.6939 l 0.7501,-0.7317 l 0.7501,-0.7687 l 0.7501,-0.8049 l 0.7501,-0.8402 l 0.7501,-0.8746 l 0.7501,-0.9080 l 0.7501,-0.9404 l 0.7501,-0.9717 l 0.7501,-1.0020 l 0.7501,-1.0312 l 0.7501,-1.0593 l 0.7501,-1.0863 l 0.7501,-1.1120 l 0.7501,-1.1365 l 0.7501,-1.1598 l 0.7501,-1.1819 l 0.7501,-1.2026 l 0.7501,-1.2220 l 0.7501,-1.2401 l 0.7501,-1.2569 l 0.7501,-1.2723 l 0.7501,-1.2864 l 0.7501,-1.2990 l 0.7501,-1.3102 l 0.7501,-1.3200 l 0.7501,-1.3284 l 0.7501,-1.3354 l 0.7501,-1.3409 l 0.7501,-1.3450 l 0.7501,-1.3477 l 0.7501,-1.3489 l 0.7501,-1.3486 l 0.7501,-1.3469 l 0.7501,-1.3438 l 0.7501,-1.3392 "/></g></g><g stroke-linejoin="miter" stroke-opacity="1.0" fill-opacity="0.0" stroke="rgb(0,0,0)" stroke-width="0.9999999999999997" fill="rgb(0,0,0)" stroke-linecap="square" stroke-miterlimit="10.0"><path d="M 38.0357,550.0000 v -515.0000 "/></g><g stroke-linejoin="miter" stroke-opacity="1.0" fill-opacity="0.0" stroke="rgb(0,0,0)" stroke-width="0.9999999999999997" fill="rgb(0,0,0)" stroke-linecap="butt" stroke-miterlimit="10.0"><path d="M 38.0357,550.0000 h 2.0000 "/></g><g stroke-linejoin="miter" stroke-opacity="1.0" fill-opacity="0.0" stroke="rgb(0,0,0)" stroke-width="0.9999999999999997" fill="rgb(0,0,0)" stroke-linecap="butt" stroke-miterlimit="10.0"><path d="M 38.0357,541.4167 h 2.0000 "/></g><g stroke-linejoin="miter" stroke-opacity="1.0" fill-opacity="0.0" stroke="rgb(0,0,0)" stroke-width="0.9999999999999997" fill="rgb(0,0,0)" stroke-linecap="butt" stroke-miterlimit="10.0"><path d="M 38.0357,532.8333 h 2.0000 "/></g><g stroke-linejoin="miter" stroke-opacity="1.0" fill-opacity="0.0" stroke="rgb(0,0,0)" stroke-width="0.9999999999999997" fill="rgb(0,0,0)" stroke-linecap="butt" stroke-miterlimit="10.0"><path d="M 38.0357,524.2500 h 2.0000 "/></g><g stroke-linejoin="miter" stroke-opacity="1.0" fill-opacity="0.0" stroke="rgb(0,0,0)" stroke-width="0.9999999999999997" fill="rgb(0,0,0)" stroke-linecap="butt" stroke-miterlimit="10.0"><path d="M 38.0357,515.6667 h 2.0000 "/></g><g stroke-linejoin="miter" stroke-opacity="1.0" fill-opacity="0.0" stroke="rgb(0,0,0)" stroke-width="0.9999999999999997" fill="rgb(0,0,0)" stroke-linecap="butt" stroke-miterlimit="10.0"><path d="M 38.0357,507.0833 h 2.0000 "/></g><g stroke-linejoin="miter" stroke-opacity="1.0" fill-opacity="0.0" stroke="rgb(0,0,0)" stroke-width="0.9999999999999997" fill="rgb(0,0,0)" stroke-linecap="butt" stroke-miterlimit="10.0"><path d="M 38.0357,498.5000 h 2.0000 "/></g><g stroke-linejoin="miter" stroke-opacity="1.0" fill-opacity="0.0" stroke="rgb(0,0,0)" stroke-width="0.9999999999999997" fill="rgb(0,0,0)" stroke-linecap="butt" stroke-miterlimit="10.0"><path d="M 38.0357,489.9167 h 2.0000 "/></g><g stroke-linejoin="miter" stroke-opacity="1.0" fill-opacity="0.0" stroke="rgb(0,0,0)" stroke-width="0.9999999999999997" fill="rgb(0,0,0)" stroke-linecap="butt" stroke-miterlimit="10.0"><path d="M 38.0357,481.3333 h 2.0000 "/></g><g stroke-linejoin="miter" stroke-opacity="1.0" fill-opacity="0.0" stroke="rgb(0,0,0)" stroke-width="0.9999999999999997" fill="rgb(0,0,0)" stroke-linecap="butt" stroke-miterlimit="10.0"><path d="M 38.0357,472.7500 h 2.0000 "/></g><g stroke-linejoin="miter" stroke-opacity="1.0" fill-opacity="0.0" stroke="rgb(0,0,0)" stroke-width="0.9999999999999997" fill="rgb(0,0,0)" stroke-linecap="butt" stroke-miterlimit="10.0"><path d="M 38.0357,464.1667 h 2.0000 "/></g><g stroke-linejoin="miter" stroke-opacity="1.0" fill-opacity="0.0" stroke="rgb(0,0,0)" stroke-width="0.9999999999999997" fill="rgb(0,0,0)" stroke-linecap="butt" stroke-miterlimit="10.0"><path d="M 38.0357,455.5833 h 2.0000 "/></g><g stroke-linejoin="miter" stroke-opacity="1.0" fill-opacity="0.0" stroke="rgb(0,0,0)" stroke-width="0.9999999999999997" fill="rgb(0,0,0)" stroke-linecap="butt" stroke-miterlimit="10.0"><path d="M 38.0357,447.0000 h 2.0000 "/></g><g stroke-linejoin="miter" stroke-opacity="1.0" fill-opacity="0.0" stroke="rgb(0,0,0)" stroke-width="0.9999999999999997" fill="rgb(0,0,0)" stroke-linecap="butt" stroke-miterlimit="10.0"><path d="M 38.0357,438.4167 h 2.0000 "/></g><g stroke-linejoin="miter" stroke-opacity="1.0" fill-opacity="0.0" stroke="rgb(0,0,0)" stroke-width="0.9999999999999997" fill="rgb(0,0,0)" stroke-linecap="butt" stroke-miterlimit="10.0"><path d="M 38.0357,429.8333 h 2.0000 "/></g><g stroke-linejoin="miter" stroke-opacity="1.0" fill-opacity="0.0" stroke="rgb(0,0,0)" stroke-width="0.9999999999999997" fill="rgb(0,0,0)" stroke-linecap="butt" stroke-miterlimit="10.0"><path d="M 38.0357,421.2500 h 2.0000 "/></g><g stroke-linejoin="miter" stroke-opacity="1.0" fill-opacity="0.0" stroke="rgb(0,0,0)" stroke-width="0.9999999999999997" fill="rgb(0,0,0)" stroke-linecap="butt" stroke-miterlimit="10.0"><path d="M 38.0357,412.6667 h 2.0000 "/></g><g stroke-linejoin="miter" stroke-opacity="1.0" fill-opacity="0.0" stroke="rgb(0,0,0)" stroke-width="0.9999999999999997" fill="rgb(0,0,0)" stroke-linecap="butt" stroke-miterlimit="10.0"><path d="M 38.0357,404.0833 h 2.0000 "/></g><g stroke-linejoin="miter" stroke-opacity="1.0" fill-opacity="0.0" stroke="rgb(0,0,0)" stroke-width="0.9999999999999997" fill="rgb(0,0,0)" stroke-linecap="butt" stroke-miterlimit="10.0"><path d="M 38.0357,395.5000 h 2.0000 "/></g><g stroke-linejoin="miter" stroke-opacity="1.0" fill-opacity="0.0" stroke="rgb(0,0,0)" stroke-width="0.9999999999999997" fill="rgb(0,0,0)" stroke-linecap="butt" stroke-miterlimit="10.0"><path d="M 38.0357,386.9167 h 2.0000 "/></g><g stroke-linejoin="miter" stroke-opacity="1.0" fill-opacity="0.0" stroke="rgb(0,0,0)" stroke-width="0.9999999999999997" fill="rgb(0,0,0)" stroke-linecap="butt" stroke-miterlimit="10.0"><path d="M 38.0357,378.3333 h 2.0000 "/></g><g stroke-linejoin="miter" stroke-opacity="1.0" fill-opacity="0.0" stroke="rgb(0,0,0)" stroke-width="0.9999999999999997" fill="rgb(0,0,0)" stroke-linecap="butt" stroke-miterlimit="10.0"><path d="M 38.0357,369.7500 h 2.0000 "/></g><g stroke-linejoin="miter" stroke-opacity="1.0" fill-opacity="0.0" stroke="rgb(0,0,0)" stroke-width="0.9999999999999997" fill="rgb(0,0,0)" stroke-linecap="butt" stroke-miterlimit="10.0"><path d="M 38.0357,361.1667 h 2.0000 "/></g><g stroke-linejoin="miter" stroke-opacity="1.0" fill-opacity="0.0" stroke="rgb(0,0,0)" stroke-width="0.9999999999999997" fill="rgb(0,0,0)" stroke-linecap="butt" stroke-miterlimit="10.0"><path d="M 38.0357,352.5833 h 2.0000 "/></g><g stroke-linejoin="miter" stroke-opacity="1.0" fill-opacity="0.0" stroke="rgb(0,0,0)" stroke-width="0.9999999999999997" fill="rgb(0,0,0)" stroke-linecap="butt" stroke-miterlimit="10.0"><path d="M 38.0357,344.0000 h 2.0000 "/></g><g stroke-linejoin="miter" stroke-opacity="1.0" fill-opacity="0.0" stroke="rgb(0,0,0)" stroke-width="0.9999999999999997" fill="rgb(0,0,0)" stroke-linecap="butt" stroke-miterlimit="10.0"><path d="M 38.0357,335.4167 h 2.0000 "/></g><g stroke-linejoin="miter" stroke-opacity="1.0" fill-opacity="0.0" stroke="rgb(0,0,0)" stroke-width="0.9999999999999997" fill="rgb(0,0,0)" stroke-linecap="butt" stroke-miterlimit="10.0"><path d="M 38.0357,326.8333 h 2.0000 "/></g><g stroke-linejoin="miter" stroke-opacity="1.0" fill-opacity="0.0" stroke="rgb(0,0,0)" stroke-width="0.9999999999999997" fill="rgb(0,0,0)" stroke-linecap="butt" stroke-miterlimit="10.0"><path d="M 38.0357,318.2500 h 2.0000 "/></g><g stroke-linejoin="miter" stroke-opacity="1.0" fill-opacity="0.0" stroke="rgb(0,0,0)" stroke-width="0.9999999999999997" fill="rgb(0,0,0)" stroke-linecap="butt" stroke-miterlimit="10.0"><path d="M 38.0357,309.6667 h 2.0000 "/></g><g stroke-linejoin="miter" stroke-opacity="1.0" fill-opacity="0.0" stroke="rgb(0,0,0)" stroke-width="0.9999999999999997" fill="rgb(0,0,0)" stroke-linecap="butt" stroke-miterlimit="10.0"><path d="M 38.0357,301.0833 h 2.0000 "/></g><g stroke-linejoin="miter" stroke-opacity="1.0" fill-opacity="0.0" stroke="rgb(0,0,0)" stroke-width="0.9999999999999997" fill="rgb(0,0,0)" stroke-linecap="butt" stroke-miterlimit="10.0"><path d="M 38.0357,292.5000 h 2.0000 "/></g><g stroke-linejoin="miter" stroke-opacity="1.0" fill-opacity="0.0" stroke="rgb(0,0,0)" stroke-width="0.9999999999999997" fill="rgb(0,0,0)" stroke-linecap="butt" stroke-miterlimit="10.0"><path d="M 38.0357,283.9167 h 2.0000 "/></g><g stroke-linejoin="miter" stroke-opacity="1.0" fill-opacity="0.0" stroke="rgb(0,0,0)" stroke-width="0.9999999999999997" fill="rgb(0,0,0)" stroke-linecap="butt" stroke-miterlimit="10.0"><path d="M 38.0357,275.3333 h 2.0000 "/></g><g stroke-linejoin="miter" stroke-opacity="1.0" fill-opacity="0.0" stroke="rgb(0,0,0)" stroke-width="0.9999999999999997" fill="rgb(0,0,0)" stroke-linecap="butt" stroke-miterlimit="10.0"><path d="M 38.0357,266.7500 h 2.0000 "/></g><g stroke-linejoin="miter" stroke-opacity="1.0" fill-opacity="0.0" stroke="rgb(0,0,0)" stroke-width="0.9999999999999997" fill="rgb(0,0,0)" stroke-linecap="butt" stroke-miterlimit="10.0"><path d="M 38.0357,258.1667 h 2.0000 "/></g><g stroke-linejoin="miter" stroke-opacity="1.0" fill-opacity="0.0" stroke="rgb(0,0,0)" stroke-width="0.9999999999999997" fill="rgb(0,0,0)" stroke-linecap="butt" stroke-miterlimit="10.0"><path d="M 38.0357,249.5833 h 2.0000 "/></g><g stroke-linejoin="miter" stroke-opacity="1.0" fill-opacity="0.0" stroke="rgb(0,0,0)" stroke-width="0.9999999999999997" fill="rgb(0,0,0)" stroke-linecap="butt" stroke-miterlimit="10.0"><path d="M 38.0357,241.0000 h 2.0000 "/></g><g stroke-linejoin="miter" stroke-opacity="1.0" fill-opacity="0.0" stroke="rgb(0,0,0)" stroke-width="0.9999999999999997" fill="rgb(0,0,0)" stroke-linecap="butt" stroke-miterlimit="10.0"><path d="M 38.0357,232.4167 h 2.0000 "/></g><g stroke-linejoin="miter" stroke-opacity="1.0" fill-opacity="0.0" stroke="rgb(0,0,0)" stroke-width="0.9999999999999997" fill="rgb(0,0,0)" stroke-linecap="butt" stroke-miterlimit="10.0"><path d="M 38.0357,223.8333 h 2.0000 "/></g><g stroke-linejoin="miter" stroke-opacity="1.0" fill-opacity="0.0" stroke="rgb(0,0,0)" stroke-width="0.9999999999999997" fill="rgb(0,0,0)" stroke-linecap="butt" stroke-miterlimit="10.0"><path d="M 38.0357,215.2500 h 2.0000 "/></g><g stroke-linejoin="miter" stroke-opacity="1.0" fill-opacity="0.0" stroke="rgb(0,0,0)" stroke-width="0.9999999999999997" fill="rgb(0,0,0)" stroke-linecap="butt" stroke-miterlimit="10.0"><path d="M 38.0357,206.6667 h 2.0000 "/></g><g stroke-linejoin="miter" stroke-opacity="1.0" fill-opacity="0.0" stroke="rgb(0,0,0)" stroke-width="0.9999999999999997" fill="rgb(0,0,0)" stroke-linecap="butt" stroke-miterlimit="10.0"><path d="M 38.0357,198.0833 h 2.0000 "/></g><g stroke-linejoin="miter" stroke-opacity="1.0" fill-opacity="0.0" stroke="rgb(0,0,0)" stroke-width="0.9999999999999997" fill="rgb(0,0,0)" stroke-linecap="butt" stroke-miterlimit="10.0"><path d="M 38.0357,189.5000 h 2.0000 "/></g><g stroke-linejoin="miter" stroke-opacity="1.0" fill-opacity="0.0" stroke="rgb(0,0,0)" stroke-width="0.9999999999999997" fill="rgb(0,0,0)" stroke-linecap="butt" stroke-miterlimit="10.0"><path d="M 38.0357,180.9167 h 2.0000 "/></g><g stroke-linejoin="miter" stroke-opacity="1.0" fill-opacity="0.0" stroke="rgb(0,0,0)" stroke-width="0.9999999999999997" fill="rgb(0,0,0)" stroke-linecap="butt" stroke-miterlimit="10.0"><path d="M 38.0357,172.3333 h 2.0000 "/></g><g stroke-linejoin="miter" stroke-opacity="1.0" fill-opacity="0.0" stroke="rgb(0,0,0)" stroke-width="0.9999999999999997" fill="rgb(0,0,0)" stroke-linecap="butt" stroke-miterlimit="10.0"><path d="M 38.0357,163.7500 h 2.0000 "/></g><g stroke-linejoin="miter" stroke-opacity="1.0" fill-opacity="0.0" stroke="rgb(0,0,0)" stroke-width="0.9999999999999997" fill="rgb(0,0,0)" stroke-linecap="butt" stroke-miterlimit="10.0"><path d="M 38.0357,155.1667 h 2.0000 "/></g><g stroke-linejoin="miter" stroke-opacity="1.0" fill-opacity="0.0" stroke="rgb(0,0,0)" stroke-width="0.9999999999999997" fill="rgb(0,0,0)" stroke-linecap="butt" stroke-miterlimit="10.0"><path d="M 38.0357,146.5833 h 2.0000 "/></g><g stroke-linejoin="miter" stroke-opacity="1.0" fill-opacity="0.0" stroke="rgb(0,0,0)" stroke-width="0.9999999999999997" fill="rgb(0,0,0)" stroke-linecap="butt" stroke-miterlimit="10.0"><path d="M 38.0357,138.0000 h 2.0000 "/></g><g stroke-linejoin="miter" stroke-opacity="1.0" fill-opacity="0.0" stroke="rgb(0,0,0)" stroke-width="0.9999999999999997" fill="rgb(0,0,0)" stroke-linecap="butt" stroke-miterlimit="10.0"><path d="M 38.0357,129.4167 h 2.0000 "/></g><g stroke-linejoin="miter" stroke-opacity="1.0" fill-opacity="0.0" stroke="rgb(0,0,0)" stroke-width="0.9999999999999997" fill="rgb(0,0,0)" stroke-linecap="butt" stroke-miterlimit="10.0"><path d="M 38.0357,120.8333 h 2.0000 "/></g><g stroke-linejoin="miter" stroke-opacity="1.0" fill-opacity="0.0" stroke="rgb(0,0,0)" stroke-width="0.9999999999999997" fill="rgb(0,0,0)" stroke-linecap="butt" stroke-miterlimit="10.0"><path d="M 38.0357,112.2500 h 2.0000 "/></g><g stroke-linejoin="miter" stroke-opacity="1.0" fill-opacity="0.0" stroke="rgb(0,0,0)" stroke-width="0.9999999999999997" fill="rgb(0,0,0)" stroke-linecap="butt" stroke-miterlimit="10.0"><path d="M 38.0357,103.6667 h 2.0000 "/></g><g stroke-linejoin="miter" stroke-opacity="1.0" fill-opacity="0.0" stroke="rgb(0,0,0)" stroke-width="0.9999999999999997" fill="rgb(0,0,0)" stroke-linecap="butt" stroke-miterlimit="10.0"><path d="M 38.0357,95.0833 h 2.0000 "/></g><g stroke-linejoin="miter" stroke-opacity="1.0" fill-opacity="0.0" stroke="rgb(0,0,0)" stroke-width="0.9999999999999997" fill="rgb(0,0,0)" stroke-linecap="butt" stroke-miterlimit="10.0"><path d="M 38.0357,86.5000 h 2.0000 "/></g><g stroke-linejoin="miter" stroke-opacity="1.0" fill-opacity="0.0" stroke="rgb(0,0,0)" stroke-width="0.9999999999999997" fill="rgb(0,0,0)" stroke-linecap="butt" stroke-miterlimit="10.0"><path d="M 38.0357,77.9167 h 2.0000 "/></g><g stroke-linejoin="miter" stroke-opacity="1.0" fill-opacity="0.0" stroke="rgb(0,0,0)" stroke-width="0.9999999999999997" fill="rgb(0,0,0)" stroke-linecap="butt" stroke-miterlimit="10.0"><path d="M 38.0357,69.3333 h 2.0000 "/></g><g stroke-linejoin="miter" stroke-opacity="1.0" fill-opacity="0.0" stroke="rgb(0,0,0)" stroke-width="0.9999999999999997" fill="rgb(0,0,0)" stroke-linecap="butt" stroke-miterlimit="10.0"><path d="M 38.0357,60.7500 h 2.0000 "/></g><g stroke-linejoin="miter" stroke-opacity="1.0" fill-opacity="0.0" stroke="rgb(0,0,0)" stroke-width="0.9999999999999997" fill="rgb(0,0,0)" stroke-linecap="butt" stroke-miterlimit="10.0"><path d="M 38.0357,52.1667 h 2.0000 "/></g><g stroke-linejoin="miter" stroke-opacity="1.0" fill-opacity="0.0" stroke="rgb(0,0,0)" stroke-width="0.9999999999999997" fill="rgb(0,0,0)" stroke-linecap="butt" stroke-miterlimit="10.0"><path d="M 38.0357,43.5833 h 2.0000 "/></g><g stroke-linejoin="miter" stroke-opacity="1.0" fill-opacity="0.0" stroke="rgb(0,0,0)" stroke-width="0.9999999999999997" fill="rgb(0,0,0)" stroke-linecap="butt" stroke-miterlimit="10.0"><path d="M 38.0357,35.0000 h 2.0000 "/></g><g stroke-linejoin="miter" stroke-opacity="1.0" fill-opacity="0.0" stroke="rgb(0,0,0)" stroke-width="0.9999999999999997" fill="rgb(0,0,0)" stroke-linecap="butt" stroke-miterlimit="10.0"><path d="M 38.0357,550.0000 h 5.0000 "/></g><g stroke-linejoin="miter" stroke-opacity="1.0" fill-opacity="0.0" stroke="rgb(0,0,0)" stroke-width="0.9999999999999997" fill="rgb(0,0,0)" stroke-linecap="butt" stroke-miterlimit="10.0"><path d="M 38.0357,464.1667 h 5.0000 "/></g><g stroke-linejoin="miter" stroke-opacity="1.0" fill-opacity="0.0" stroke="rgb(0,0,0)" stroke-width="0.9999999999999997" fill="rgb(0,0,0)" stroke-linecap="butt" stroke-miterlimit="10.0"><path d="M 38.0357,378.3333 h 5.0000 "/></g><g stroke-linejoin="miter" stroke-opacity="1.0" fill-opacity="0.0" stroke="rgb(0,0,0)" stroke-width="0.9999999999999997" fill="rgb(0,0,0)" stroke-linecap="butt" stroke-miterlimit="10.0"><path d="M 38.0357,292.5000 h 5.0000 "/></g><g stroke-linejoin="miter" stroke-opacity="1.0" fill-opacity="0.0" stroke="rgb(0,0,0)" stroke-width="0.9999999999999997" fill="rgb(0,0,0)" stroke-linecap="butt" stroke-miterlimit="10.0"><path d="M 38.0357,206.6667 h 5.0000 "/></g><g stroke-linejoin="miter" stroke-opacity="1.0" fill-opacity="0.0" stroke="rgb(0,0,0)" stroke-width="0.9999999999999997" fill="rgb(0,0,0)" stroke-linecap="butt" stroke-miterlimit="10.0"><path d="M 38.0357,120.8333 h 5.0000 "/></g><g stroke-linejoin="miter" stroke-opacity="1.0" fill-opacity="0.0" stroke="rgb(0,0,0)" stroke-width="0.9999999999999997" fill="rgb(0,0,0)" stroke-linecap="butt" stroke-miterlimit="10.0"><path d="M 38.0357,35.0000 h 5.0000 "/></g><g stroke-linejoin="bevel" stroke-opacity="0.0" fill-opacity="1.0" stroke="rgb(0,0,0)" stroke-width="0.0" fill="rgb(0,0,0)" stroke-linecap="butt" stroke-miterlimit="10.0"><path d="M 10.0000,553.4454 ZM 10.4307,550.4832 h 2.4160 v 0.6618 h -2.4160 v -0.6618 ZM 13.2668,553.4454 ZM 14.0966,552.7311 h 1.5336 v -4.9370 h -1.2185 v -0.5567 c 0.4622,-0.0840 0.8036,-0.2048 0.8036 -0.2048c 0.3414,-0.1208 0.6145,-0.2889 0.6145 -0.2889h 0.6618 v 5.9874 h 1.3866 v 0.7143 h -3.7815 v -0.7143 ZM 18.4874,553.4454 ZM 19.1702,552.0903 c 0.2941,0.3046 0.6985,0.5357 0.6985 0.5357c 0.4044,0.2311 0.9926,0.2311 0.9926 0.2311c 0.3046,0.0000 0.5725,-0.1103 0.5725 -0.1103c 0.2679,-0.1103 0.4674,-0.3099 0.4674 -0.3099c 0.1996,-0.1996 0.3151,-0.4832 0.3151 -0.4832c 0.1155,-0.2836 0.1155,-0.6303 0.1155 -0.6303c 0.0000,-0.6933 -0.3887,-1.0819 -0.3887 -1.0819c -0.3887,-0.3887 -1.0399,-0.3887 -1.0399 -0.3887c -0.3466,-0.0000 -0.5935,0.1050 -0.5935 0.1050c -0.2468,0.1050 -0.5515,0.3046 -0.5515 0.3046l -0.4622,-0.2941 l 0.2206,-3.2248 h 3.3508 v 0.7458 h -2.5945 l -0.1786,1.9853 c 0.2416,-0.1261 0.4832,-0.1996 0.4832 -0.1996c 0.2416,-0.0735 0.5462,-0.0735 0.5462 -0.0735c 0.4307,0.0000 0.8088,0.1261 0.8088 0.1261c 0.3782,0.1261 0.6618,0.3834 0.6618 0.3834c 0.2836,0.2574 0.4464,0.6513 0.4464 0.6513c 0.1628,0.3939 0.1628,0.9401 0.1628 0.9401c 0.0000,0.5462 -0.1891,0.9664 -0.1891 0.9664c -0.1891,0.4202 -0.5042,0.7090 -0.5042 0.7090c -0.3151,0.2889 -0.7195,0.4412 -0.7195 0.4412c -0.4044,0.1523 -0.8456,0.1523 -0.8456 0.1523c -0.3992,-0.0000 -0.7300,-0.0788 -0.7300 -0.0788c -0.3309,-0.0788 -0.5987,-0.2048 -0.5987 -0.2048c -0.2679,-0.1261 -0.4832,-0.2889 -0.4832 -0.2889c -0.2153,-0.1628 -0.3834,-0.3414 -0.3834 -0.3414ZM 23.7080,553.4454 ZM 26.3235,553.5714 c -1.0189,-0.0000 -1.5861,-0.9034 -1.5861 -0.9034c -0.5672,-0.9034 -0.5672,-2.5945 -0.5672 -2.5945c 0.0000,-1.6912 0.5672,-2.5735 0.5672 -2.5735c 0.5672,-0.8824 1.5861,-0.8824 1.5861 -0.8824c 1.0084,0.0000 1.5756,0.8824 1.5756 0.8824c 0.5672,0.8824 0.5672,2.5735 0.5672 2.5735c 0.0000,1.6912 -0.5672,2.5945 -0.5672 2.5945c -0.5672,0.9034 -1.5756,0.9034 -1.5756 0.9034ZM 26.3235,553.5714 ZM 26.3235,552.8782 c 0.2941,0.0000 0.5305,-0.1628 0.5305 -0.1628c 0.2363,-0.1628 0.4097,-0.5042 0.4097 -0.5042c 0.1733,-0.3414 0.2679,-0.8718 0.2679 -0.8718c 0.0945,-0.5305 0.0945,-1.2658 0.0945 -1.2658c 0.0000,-0.7353 -0.0945,-1.2605 -0.0945 -1.2605c -0.0945,-0.5252 -0.2679,-0.8561 -0.2679 -0.8561c -0.1733,-0.3309 -0.4097,-0.4884 -0.4097 -0.4884c -0.2363,-0.1576 -0.5305,-0.1576 -0.5305 -0.1576c -0.2941,-0.0000 -0.5357,0.1576 -0.5357 0.1576c -0.2416,0.1576 -0.4149,0.4884 -0.4149 0.4884c -0.1733,0.3309 -0.2679,0.8561 -0.2679 0.8561c -0.0945,0.5252 -0.0945,1.2605 -0.0945 1.2605c 0.0000,1.4706 0.3624,2.1376 0.3624 2.1376c 0.3624,0.6670 0.9506,0.6670 0.9506 0.6670Z"/></g><g stroke-linejoin="bevel" stroke-opacity="0.0" fill-opacity="1.0" stroke="rgb(0,0,0)" stroke-width="0.0" fill="rgb(0,0,0)" stroke-linecap="butt" stroke-miterlimit="10.0"><path d="M 10.0000,467.6120 ZM 10.4307,464.6499 h 2.4160 v 0.6618 h -2.4160 v -0.6618 ZM 13.2668,467.6120 ZM 14.0966,466.8978 h 1.5336 v -4.9370 h -1.2185 v -0.5567 c 0.4622,-0.0840 0.8036,-0.2048 0.8036 -0.2048c 0.3414,-0.1208 0.6145,-0.2889 0.6145 -0.2889h 0.6618 v 5.9874 h 1.3866 v 0.7143 h -3.7815 v -0.7143 ZM 18.4874,467.6120 ZM 21.1029,467.7381 c -1.0189,-0.0000 -1.5861,-0.9034 -1.5861 -0.9034c -0.5672,-0.9034 -0.5672,-2.5945 -0.5672 -2.5945c 0.0000,-1.6912 0.5672,-2.5735 0.5672 -2.5735c 0.5672,-0.8824 1.5861,-0.8824 1.5861 -0.8824c 1.0084,0.0000 1.5756,0.8824 1.5756 0.8824c 0.5672,0.8824 0.5672,2.5735 0.5672 2.5735c 0.0000,1.6912 -0.5672,2.5945 -0.5672 2.5945c -0.5672,0.9034 -1.5756,0.9034 -1.5756 0.9034ZM 21.1029,467.7381 ZM 21.1029,467.0448 c 0.2941,0.0000 0.5305,-0.1628 0.5305 -0.1628c 0.2363,-0.1628 0.4097,-0.5042 0.4097 -0.5042c 0.1733,-0.3414 0.2679,-0.8718 0.2679 -0.8718c 0.0945,-0.5305 0.0945,-1.2658 0.0945 -1.2658c 0.0000,-0.7353 -0.0945,-1.2605 -0.0945 -1.2605c -0.0945,-0.5252 -0.2679,-0.8561 -0.2679 -0.8561c -0.1733,-0.3309 -0.4097,-0.4884 -0.4097 -0.4884c -0.2363,-0.1576 -0.5305,-0.1576 -0.5305 -0.1576c -0.2941,-0.0000 -0.5357,0.1576 -0.5357 0.1576c -0.2416,0.1576 -0.4149,0.4884 -0.4149 0.4884c -0.1733,0.3309 -0.2679,0.8561 -0.2679 0.8561c -0.0945,0.5252 -0.0945,1.2605 -0.0945 1.2605c 0.0000,1.4706 0.3624,2.1376 0.3624 2.1376c 0.3624,0.6670 0.9506,0.6670 0.9506 0.6670ZM 23.7080,467.6120 ZM 26.3235,467.7381 c -1.0189,-0.0000 -1.5861,-0.9034 -1.5861 -0.9034c -0.5672,-0.9034 -0.5672,-2.5945 -0.5672 -2.5945c 0.0000,-1.6912 0.5672,-2.5735 0.5672 -2.5735c 0.5672,-0.8824 1.5861,-0.8824 1.5861 -0.8824c 1.0084,0.0000 1.5756,0.8824 1.5756 0.8824c 0.5672,0.8824 0.5672,2.5735 0.5672 2.5735c 0.0000,1.6912 -0.5672,2.5945 -0.5672 2.5945c -0.5672,0.9034 -1.5756,0.9034 -1.5756 0.9034ZM 26.3235,467.7381 ZM 26.3235,467.0448 c 0.2941,0.0000 0.5305,-0.1628 0.5305 -0.1628c 0.2363,-0.1628 0.4097,-0.5042 0.4097 -0.5042c 0.1733,-0.3414 0.2679,-0.8718 0.2679 -0.8718c 0.0945,-0.5305 0.0945,-1.2658 0.0945 -1.2658c 0.0000,-0.7353 -0.0945,-1.2605 -0.0945 -1.2605c -0.0945,-0.5252 -0.2679,-0.8561 -0.2679 -0.8561c -0.1733,-0.3309 -0.4097,-0.4884 -0.4097 -0.4884c -0.2363,-0.1576 -0.5305,-0.1576 -0.5305 -0.1576c -0.2941,-0.0000 -0.5357,0.1576 -0.5357 0.1576c -0.2416,0.1576 -0.4149,0.4884 -0.4149 0.4884c -0.1733,0.3309 -0.2679,0.8561 -0.2679 0.8561c -0.0945,0.5252 -0.0945,1.2605 -0.0945 1.2605c 0.0000,1.4706 0.3624,2.1376 0.3624 2.1376c 0.3624,0.6670 0.9506,0.6670 0.9506 0.6670Z"/></g><g stroke-linejoin="bevel" stroke-opacity="0.0" fill-opacity="1.0" stroke="rgb(0,0,0)" stroke-width="0.0" fill="rgb(0,0,0)" stroke-linecap="butt" stroke-miterlimit="10.0"><path d="M 15.2206,381.7787 ZM 15.6513,378.8165 h 2.4160 v 0.6618 h -2.4160 v -0.6618 ZM 18.4874,381.7787 ZM 19.1702,380.4237 c 0.2941,0.3046 0.6985,0.5357 0.6985 0.5357c 0.4044,0.2311 0.9926,0.2311 0.9926 0.2311c 0.3046,0.0000 0.5725,-0.1103 0.5725 -0.1103c 0.2679,-0.1103 0.4674,-0.3099 0.4674 -0.3099c 0.1996,-0.1996 0.3151,-0.4832 0.3151 -0.4832c 0.1155,-0.2836 0.1155,-0.6303 0.1155 -0.6303c 0.0000,-0.6933 -0.3887,-1.0819 -0.3887 -1.0819c -0.3887,-0.3887 -1.0399,-0.3887 -1.0399 -0.3887c -0.3466,-0.0000 -0.5935,0.1050 -0.5935 0.1050c -0.2468,0.1050 -0.5515,0.3046 -0.5515 0.3046l -0.4622,-0.2941 l 0.2206,-3.2248 h 3.3508 v 0.7458 h -2.5945 l -0.1786,1.9853 c 0.2416,-0.1261 0.4832,-0.1996 0.4832 -0.1996c 0.2416,-0.0735 0.5462,-0.0735 0.5462 -0.0735c 0.4307,0.0000 0.8088,0.1261 0.8088 0.1261c 0.3782,0.1261 0.6618,0.3834 0.6618 0.3834c 0.2836,0.2574 0.4464,0.6513 0.4464 0.6513c 0.1628,0.3939 0.1628,0.9401 0.1628 0.9401c 0.0000,0.5462 -0.1891,0.9664 -0.1891 0.9664c -0.1891,0.4202 -0.5042,0.7090 -0.5042 0.7090c -0.3151,0.2889 -0.7195,0.4412 -0.7195 0.4412c -0.4044,0.1523 -0.8456,0.1523 -0.8456 0.1523c -0.3992,-0.0000 -0.7300,-0.0788 -0.7300 -0.0788c -0.3309,-0.0788 -0.5987,-0.2048 -0.5987 -0.2048c -0.2679,-0.1261 -0.4832,-0.2889 -0.4832 -0.2889c -0.2153,-0.1628 -0.3834,-0.3414 -0.3834 -0.3414ZM 23.7080,381.7787 ZM 26.3235,381.9048 c -1.0189,-0.0000 -1.5861,-0.9034 -1.5861 -0.9034c -0.5672,-0.9034 -0.5672,-2.5945 -0.5672 -2.5945c 0.0000,-1.6912 0.5672,-2.5735 0.5672 -2.5735c 0.5672,-0.8824 1.5861,-0.8824 1.5861 -0.8824c 1.0084,0.0000 1.5756,0.8824 1.5756 0.8824c 0.5672,0.8824 0.5672,2.5735 0.5672 2.5735c 0.0000,1.6912 -0.5672,2.5945 -0.5672 2.5945c -0.5672,0.9034 -1.5756,0.9034 -1.5756 0.9034ZM 26.3235,381.9048 ZM 26.3235,381.2115 c 0.2941,0.0000 0.5305,-0.1628 0.5305 -0.1628c 0.2363,-0.1628 0.4097,-0.5042 0.4097 -0.5042c 0.1733,-0.3414 0.2679,-0.8718 0.2679 -0.8718c 0.0945,-0.5305 0.0945,-1.2658 0.0945 -1.2658c 0.0000,-0.7353 -0.0945,-1.2605 -0.0945 -1.2605c -0.0945,-0.5252 -0.2679,-0.8561 -0.2679 -0.8561c -0.1733,-0.3309 -0.4097,-0.4884 -0.4097 -0.4884c -0.2363,-0.1576 -0.5305,-0.1576 -0.5305 -0.1576c -0.2941,-0.0000 -0.5357,0.1576 -0.5357 0.1576c -0.2416,0.1576 -0.4149,0.4884 -0.4149 0.4884c -0.1733,0.3309 -0.2679,0.8561 -0.2679 0.8561c -0.0945,0.5252 -0.0945,1.2605 -0.0945 1.2605c 0.0000,1.4706 0.3624,2.1376 0.3624 2.1376c 0.3624,0.6670 0.9506,0.6670 0.9506 0.6670Z"/></g><g stroke-linejoin="bevel" stroke-opacity="0.0" fill-opacity="1.0" stroke="rgb(0,0,0)" stroke-width="0.0" fill="rgb(0,0,0)" stroke-linecap="butt" stroke-miterlimit="10.0"><path d="M 23.7395,295.9454 ZM 26.3550,296.0714 c -1.0189,-0.0000 -1.5861,-0.9034 -1.5861 -0.9034c -0.5672,-0.9034 -0.5672,-2.5945 -0.5672 -2.5945c 0.0000,-1.6912 0.5672,-2.5735 0.5672 -2.5735c 0.5672,-0.8824 1.5861,-0.8824 1.5861 -0.8824c 1.0084,0.0000 1.5756,0.8824 1.5756 0.8824c 0.5672,0.8824 0.5672,2.5735 0.5672 2.5735c 0.0000,1.6912 -0.5672,2.5945 -0.5672 2.5945c -0.5672,0.9034 -1.5756,0.9034 -1.5756 0.9034ZM 26.3550,296.0714 ZM 26.3550,295.3782 c 0.2941,0.0000 0.5305,-0.1628 0.5305 -0.1628c 0.2363,-0.1628 0.4097,-0.5042 0.4097 -0.5042c 0.1733,-0.3414 0.2679,-0.8718 0.2679 -0.8718c 0.0945,-0.5305 0.0945,-1.2658 0.0945 -1.2658c 0.0000,-0.7353 -0.0945,-1.2605 -0.0945 -1.2605c -0.0945,-0.5252 -0.2679,-0.8561 -0.2679 -0.8561c -0.1733,-0.3309 -0.4097,-0.4884 -0.4097 -0.4884c -0.2363,-0.1576 -0.5305,-0.1576 -0.5305 -0.1576c -0.2941,-0.0000 -0.5357,0.1576 -0.5357 0.1576c -0.2416,0.1576 -0.4149,0.4884 -0.4149 0.4884c -0.1733,0.3309 -0.2679,0.8561 -0.2679 0.8561c -0.0945,0.5252 -0.0945,1.2605 -0.0945 1.2605c 0.0000,1.4706 0.3624,2.1376 0.3624 2.1376c 0.3624,0.6670 0.9506,0.6670 0.9506 0.6670Z"/></g><g stroke-linejoin="bevel" stroke-opacity="0.0" fill-opacity="1.0" stroke="rgb(0,0,0)" stroke-width="0.0" fill="rgb(0,0,0)" stroke-linecap="butt" stroke-miterlimit="10.0"><path d="M 18.3193,210.1120 ZM 19.0021,208.7570 c 0.2941,0.3046 0.6985,0.5357 0.6985 0.5357c 0.4044,0.2311 0.9926,0.2311 0.9926 0.2311c 0.3046,0.0000 0.5725,-0.1103 0.5725 -0.1103c 0.2679,-0.1103 0.4674,-0.3099 0.4674 -0.3099c 0.1996,-0.1996 0.3151,-0.4832 0.3151 -0.4832c 0.1155,-0.2836 0.1155,-0.6303 0.1155 -0.6303c 0.0000,-0.6933 -0.3887,-1.0819 -0.3887 -1.0819c -0.3887,-0.3887 -1.0399,-0.3887 -1.0399 -0.3887c -0.3466,-0.0000 -0.5935,0.1050 -0.5935 0.1050c -0.2468,0.1050 -0.5515,0.3046 -0.5515 0.3046l -0.4622,-0.2941 l 0.2206,-3.2248 h 3.3508 v 0.7458 h -2.5945 l -0.1786,1.9853 c 0.2416,-0.1261 0.4832,-0.1996 0.4832 -0.1996c 0.2416,-0.0735 0.5462,-0.0735 0.5462 -0.0735c 0.4307,0.0000 0.8088,0.1261 0.8088 0.1261c 0.3782,0.1261 0.6618,0.3834 0.6618 0.3834c 0.2836,0.2574 0.4464,0.6513 0.4464 0.6513c 0.1628,0.3939 0.1628,0.9401 0.1628 0.9401c 0.0000,0.5462 -0.1891,0.9664 -0.1891 0.9664c -0.1891,0.4202 -0.5042,0.7090 -0.5042 0.7090c -0.3151,0.2889 -0.7195,0.4412 -0.7195 0.4412c -0.4044,0.1523 -0.8456,0.1523 -0.8456 0.1523c -0.3992,-0.0000 -0.7300,-0.0788 -0.7300 -0.0788c -0.3309,-0.0788 -0.5987,-0.2048 -0.5987 -0.2048c -0.2679,-0.1261 -0.4832,-0.2889 -0.4832 -0.2889c -0.2153,-0.1628 -0.3834,-0.3414 -0.3834 -0.3414ZM 23.5399,210.1120 ZM 26.1555,210.2381 c -1.0189,-0.0000 -1.5861,-0.9034 -1.5861 -0.9034c -0.5672,-0.9034 -0.5672,-2.5945 -0.5672 -2.5945c 0.0000,-1.6912 0.5672,-2.5735 0.5672 -2.5735c 0.5672,-0.8824 1.5861,-0.8824 1.5861 -0.8824c 1.0084,0.0000 1.5756,0.8824 1.5756 0.8824c 0.5672,0.8824 0.5672,2.5735 0.5672 2.5735c 0.0000,1.6912 -0.5672,2.5945 -0.5672 2.5945c -0.5672,0.9034 -1.5756,0.9034 -1.5756 0.9034ZM 26.1555,210.2381 ZM 26.1555,209.5448 c 0.2941,0.0000 0.5305,-0.1628 0.5305 -0.1628c 0.2363,-0.1628 0.4097,-0.5042 0.4097 -0.5042c 0.1733,-0.3414 0.2679,-0.8718 0.2679 -0.8718c 0.0945,-0.5305 0.0945,-1.2658 0.0945 -1.2658c 0.0000,-0.7353 -0.0945,-1.2605 -0.0945 -1.2605c -0.0945,-0.5252 -0.2679,-0.8561 -0.2679 -0.8561c -0.1733,-0.3309 -0.4097,-0.4884 -0.4097 -0.4884c -0.2363,-0.1576 -0.5305,-0.1576 -0.5305 -0.1576c -0.2941,-0.0000 -0.5357,0.1576 -0.5357 0.1576c -0.2416,0.1576 -0.4149,0.4884 -0.4149 0.4884c -0.1733,0.3309 -0.2679,0.8561 -0.2679 0.8561c -0.0945,0.5252 -0.0945,1.2605 -0.0945 1.2605c 0.0000,1.4706 0.3624,2.1376 0.3624 2.1376c 0.3624,0.6670 0.9506,0.6670 0.9506 0.6670Z"/></g><g stroke-linejoin="bevel" stroke-opacity="0.0" fill-opacity="1.0" stroke="rgb(0,0,0)" stroke-width="0.0" fill="rgb(0,0,0)" stroke-linecap="butt" stroke-miterlimit="10.0"><path d="M 13.6660,124.2787 ZM 14.4958,123.5644 h 1.5336 v -4.9370 h -1.2185 v -0.5567 c 0.4622,-0.0840 0.8036,-0.2048 0.8036 -0.2048c 0.3414,-0.1208 0.6145,-0.2889 0.6145 -0.2889h 0.6618 v 5.9874 h 1.3866 v 0.7143 h -3.7815 v -0.7143 ZM 18.8866,124.2787 ZM 21.5021,124.4048 c -1.0189,-0.0000 -1.5861,-0.9034 -1.5861 -0.9034c -0.5672,-0.9034 -0.5672,-2.5945 -0.5672 -2.5945c 0.0000,-1.6912 0.5672,-2.5735 0.5672 -2.5735c 0.5672,-0.8824 1.5861,-0.8824 1.5861 -0.8824c 1.0084,0.0000 1.5756,0.8824 1.5756 0.8824c 0.5672,0.8824 0.5672,2.5735 0.5672 2.5735c 0.0000,1.6912 -0.5672,2.5945 -0.5672 2.5945c -0.5672,0.9034 -1.5756,0.9034 -1.5756 0.9034ZM 21.5021,124.4048 ZM 21.5021,123.7115 c 0.2941,0.0000 0.5305,-0.1628 0.5305 -0.1628c 0.2363,-0.1628 0.4097,-0.5042 0.4097 -0.5042c 0.1733,-0.3414 0.2679,-0.8718 0.2679 -0.8718c 0.0945,-0.5305 0.0945,-1.2658 0.0945 -1.2658c 0.0000,-0.7353 -0.0945,-1.2605 -0.0945 -1.2605c -0.0945,-0.5252 -0.2679,-0.8561 -0.2679 -0.8561c -0.1733,-0.3309 -0.4097,-0.4884 -0.4097 -0.4884c -0.2363,-0.1576 -0.5305,-0.1576 -0.5305 -0.1576c -0.2941,-0.0000 -0.5357,0.1576 -0.5357 0.1576c -0.2416,0.1576 -0.4149,0.4884 -0.4149 0.4884c -0.1733,0.3309 -0.2679,0.8561 -0.2679 0.8561c -0.0945,0.5252 -0.0945,1.2605 -0.0945 1.2605c 0.0000,1.4706 0.3624,2.1376 0.3624 2.1376c 0.3624,0.6670 0.9506,0.6670 0.9506 0.6670ZM 24.1071,124.2787 ZM 26.7227,124.4048 c -1.0189,-0.0000 -1.5861,-0.9034 -1.5861 -0.9034c -0.5672,-0.9034 -0.5672,-2.5945 -0.5672 -2.5945c 0.0000,-1.6912 0.5672,-2.5735 0.5672 -2.5735c 0.5672,-0.8824 1.5861,-0.8824 1.5861 -0.8824c 1.0084,0.0000 1.5756,0.8824 1.5756 0.8824c 0.5672,0.8824 0.5672,2.5735 0.5672 2.5735c 0.0000,1.6912 -0.5672,2.5945 -0.5672 2.5945c -0.5672,0.9034 -1.5756,0.9034 -1.5756 0.9034ZM 26.7227,124.4048 ZM 26.7227,123.7115 c 0.2941,0.0000 0.5305,-0.1628 0.5305 -0.1628c 0.2363,-0.1628 0.4097,-0.5042 0.4097 -0.5042c 0.1733,-0.3414 0.2679,-0.8718 0.2679 -0.8718c 0.0945,-0.5305 0.0945,-1.2658 0.0945 -1.2658c 0.0000,-0.7353 -0.0945,-1.2605 -0.0945 -1.2605c -0.0945,-0.5252 -0.2679,-0.8561 -0.2679 -0.8561c -0.1733,-0.3309 -0.4097,-0.4884 -0.4097 -0.4884c -0.2363,-0.1576 -0.5305,-0.1576 -0.5305 -0.1576c -0.2941,-0.0000 -0.5357,0.1576 -0.5357 0.1576c -0.2416,0.1576 -0.4149,0.4884 -0.4149 0.4884c -0.1733,0.3309 -0.2679,0.8561 -0.2679 0.8561c -0.0945,0.5252 -0.0945,1.2605 -0.0945 1.2605c 0.0000,1.4706 0.3624,2.1376 0.3624 2.1376c 0.3624,0.6670 0.9506,0.6670 0.9506 0.6670Z"/></g><g stroke-linejoin="bevel" stroke-opacity="0.0" fill-opacity="1.0" stroke="rgb(0,0,0)" stroke-width="0.0" fill="rgb(0,0,0)" stroke-linecap="butt" stroke-miterlimit="10.0"><path d="M 13.6660,38.4454 ZM 14.4958,37.7311 h 1.5336 v -4.9370 h -1.2185 v -0.5567 c 0.4622,-0.0840 0.8036,-0.2048 0.8036 -0.2048c 0.3414,-0.1208 0.6145,-0.2889 0.6145 -0.2889h 0.6618 v 5.9874 h 1.3866 v 0.7143 h -3.7815 v -0.7143 ZM 18.8866,38.4454 ZM 19.5693,37.0903 c 0.2941,0.3046 0.6985,0.5357 0.6985 0.5357c 0.4044,0.2311 0.9926,0.2311 0.9926 0.2311c 0.3046,0.0000 0.5725,-0.1103 0.5725 -0.1103c 0.2679,-0.1103 0.4674,-0.3099 0.4674 -0.3099c 0.1996,-0.1996 0.3151,-0.4832 0.3151 -0.4832c 0.1155,-0.2836 0.1155,-0.6303 0.1155 -0.6303c 0.0000,-0.6933 -0.3887,-1.0819 -0.3887 -1.0819c -0.3887,-0.3887 -1.0399,-0.3887 -1.0399 -0.3887c -0.3466,-0.0000 -0.5935,0.1050 -0.5935 0.1050c -0.2468,0.1050 -0.5515,0.3046 -0.5515 0.3046l -0.4622,-0.2941 l 0.2206,-3.2248 h 3.3508 v 0.7458 h -2.5945 l -0.1786,1.9853 c 0.2416,-0.1261 0.4832,-0.1996 0.4832 -0.1996c 0.2416,-0.0735 0.5462,-0.0735 0.5462 -0.0735c 0.4307,0.0000 0.8088,0.1261 0.8088 0.1261c 0.3782,0.1261 0.6618,0.3834 0.6618 0.3834c 0.2836,0.2574 0.4464,0.6513 0.4464 0.6513c 0.1628,0.3939 0.1628,0.9401 0.1628 0.9401c 0.0000,0.5462 -0.1891,0.9664 -0.1891 0.9664c -0.1891,0.4202 -0.5042,0.7090 -0.5042 0.7090c -0.3151,0.2889 -0.7195,0.4412 -0.7195 0.4412c -0.4044,0.1523 -0.8456,0.1523 -0.8456 0.1523c -0.3992,-0.0000 -0.7300,-0.0788 -0.7300 -0.0788c -0.3309,-0.0788 -0.5987,-0.2048 -0.5987 -0.2048c -0.2679,-0.1261 -0.4832,-0.2889 -0.4832 -0.2889c -0.2153,-0.1628 -0.3834,-0.3414 -0.3834 -0.3414ZM 24.1071,38.4454 ZM 26.7227,38.5714 c -1.0189,-0.0000 -1.5861,-0.9034 -1.5861 -0.9034c -0.5672,-0.9034 -0.5672,-2.5945 -0.5672 -2.5945c 0.0000,-1.6912 0.5672,-2.5735 0.5672 -2.5735c 0.5672,-0.8824 1.5861,-0.8824 1.5861 -0.8824c 1.0084,0.0000 1.5756,0.8824 1.5756 0.8824c 0.5672,0.8824 0.5672,2.5735 0.5672 2.5735c 0.0000,1.6912 -0.5672,2.5945 -0.5672 2.5945c -0.5672,0.9034 -1.5756,0.9034 -1.5756 0.9034ZM 26.7227,38.5714 ZM 26.7227,37.8782 c 0.2941,0.0000 0.5305,-0.1628 0.5305 -0.1628c 0.2363,-0.1628 0.4097,-0.5042 0.4097 -0.5042c 0.1733,-0.3414 0.2679,-0.8718 0.2679 -0.8718c 0.0945,-0.5305 0.0945,-1.2658 0.0945 -1.2658c 0.0000,-0.7353 -0.0945,-1.2605 -0.0945 -1.2605c -0.0945,-0.5252 -0.2679,-0.8561 -0.2679 -0.8561c -0.1733,-0.3309 -0.4097,-0.4884 -0.4097 -0.4884c -0.2363,-0.1576 -0.5305,-0.1576 -0.5305 -0.1576c -0.2941,-0.0000 -0.5357,0.1576 -0.5357 0.1576c -0.2416,0.1576 -0.4149,0.4884 -0.4149 0.4884c -0.1733,0.3309 -0.2679,0.8561 -0.2679 0.8561c -0.0945,0.5252 -0.0945,1.2605 -0.0945 1.2605c 0.0000,1.4706 0.3624,2.1376 0.3624 2.1376c 0.3624,0.6670 0.9506,0.6670 0.9506 0.6670Z"/></g><g stroke-linejoin="miter" stroke-opacity="1.0" fill-opacity="0.0" stroke="rgb(0,0,0)" stroke-width="0.9999999999999997" fill="rgb(0,0,0)" stroke-linecap="square" stroke-miterlimit="10.0"><path d="M 38.0357,550.0000 h 750.0735 "/></g><g stroke-linejoin="miter" stroke-opacity="1.0" fill-opacity="0.0" stroke="rgb(0,0,0)" stroke-width="0.9999999999999997" fill="rgb(0,0,0)" stroke-linecap="butt" stroke-miterlimit="10.0"><path d="M 38.0357,550.0000 v -2.0000 "/></g><g stroke-linejoin="miter" stroke-opacity="1.0" fill-opacity="0.0" stroke="rgb(0,0,0)" stroke-width="0.9999999999999997" fill="rgb(0,0,0)" stroke-linecap="butt" stroke-miterlimit="10.0"><path d="M 53.0372,550.0000 v -2.0000 "/></g><g stroke-linejoin="miter" stroke-opacity="1.0" fill-opacity="0.0" stroke="rgb(0,0,0)" stroke-width="0.9999999999999997" fill="rgb(0,0,0)" stroke-linecap="butt" stroke-miterlimit="10.0"><path d="M 68.0387,550.0000 v -2.0000 "/></g><g stroke-linejoin="miter" stroke-opacity="1.0" fill-opacity="0.0" stroke="rgb(0,0,0)" stroke-width="0.9999999999999997" fill="rgb(0,0,0)" stroke-linecap="butt" stroke-miterlimit="10.0"><path d="M 83.0401,550.0000 v -2.0000 "/></g><g stroke-linejoin="miter" stroke-opacity="1.0" fill-opacity="0.0" stroke="rgb(0,0,0)" stroke-width="0.9999999999999997" fill="rgb(0,0,0)" stroke-linecap="butt" stroke-miterlimit="10.0"><path d="M 98.0416,550.0000 v -2.0000 "/></g><g stroke-linejoin="miter" stroke-opacity="1.0" fill-opacity="0.0" stroke="rgb(0,0,0)" stroke-width="0.9999999999999997" fill="rgb(0,0,0)" stroke-linecap="butt" stroke-miterlimit="10.0"><path d="M 113.0431,550.0000 v -2.0000 "/></g><g stroke-linejoin="miter" stroke-opacity="1.0" fill-opacity="0.0" stroke="rgb(0,0,0)" stroke-width="0.9999999999999997" fill="rgb(0,0,0)" stroke-linecap="butt" stroke-miterlimit="10.0"><path d="M 128.0445,550.0000 v -2.0000 "/></g><g stroke-linejoin="miter" stroke-opacity="1.0" fill-opacity="0.0" stroke="rgb(0,0,0)" stroke-width="0.9999999999999997" fill="rgb(0,0,0)" stroke-linecap="butt" stroke-miterlimit="10.0"><path d="M 143.0460,550.0000 v -2.0000 "/></g><g stroke-linejoin="miter" stroke-opacity="1.0" fill-opacity="0.0" stroke="rgb(0,0,0)" stroke-width="0.9999999999999997" fill="rgb(0,0,0)" stroke-linecap="butt" stroke-miterlimit="10.0"><path d="M 158.0475,550.0000 v -2.0000 "/></g><g stroke-linejoin="miter" stroke-opacity="1.0" fill-opacity="0.0" stroke="rgb(0,0,0)" stroke-width="0.9999999999999997" fill="rgb(0,0,0)" stroke-linecap="butt" stroke-miterlimit="10.0"><path d="M 173.0489,550.0000 v -2.0000 "/></g><g stroke-linejoin="miter" stroke-opacity="1.0" fill-opacity="0.0" stroke="rgb(0,0,0)" stroke-width="0.9999999999999997" fill="rgb(0,0,0)" stroke-linecap="butt" stroke-miterlimit="10.0"><path d="M 188.0504,550.0000 v -2.0000 "/></g><g stroke-linejoin="miter" stroke-opacity="1.0" fill-opacity="0.0" stroke="rgb(0,0,0)" stroke-width="0.9999999999999997" fill="rgb(0,0,0)" stroke-linecap="butt" stroke-miterlimit="10.0"><path d="M 203.0519,550.0000 v -2.0000 "/></g><g stroke-linejoin="miter" stroke-opacity="1.0" fill-opacity="0.0" stroke="rgb(0,0,0)" stroke-width="0.9999999999999997" fill="rgb(0,0,0)" stroke-linecap="butt" stroke-miterlimit="10.0"><path d="M 218.0534,550.0000 v -2.0000 "/></g><g stroke-linejoin="miter" stroke-opacity="1.0" fill-opacity="0.0" stroke="rgb(0,0,0)" stroke-width="0.9999999999999997" fill="rgb(0,0,0)" stroke-linecap="butt" stroke-miterlimit="10.0"><path d="M 233.0548,550.0000 v -2.0000 "/></g><g stroke-linejoin="miter" stroke-opacity="1.0" fill-opacity="0.0" stroke="rgb(0,0,0)" stroke-width="0.9999999999999997" fill="rgb(0,0,0)" stroke-linecap="butt" stroke-miterlimit="10.0"><path d="M 248.0563,550.0000 v -2.0000 "/></g><g stroke-linejoin="miter" stroke-opacity="1.0" fill-opacity="0.0" stroke="rgb(0,0,0)" stroke-width="0.9999999999999997" fill="rgb(0,0,0)" stroke-linecap="butt" stroke-miterlimit="10.0"><path d="M 263.0578,550.0000 v -2.0000 "/></g><g stroke-linejoin="miter" stroke-opacity="1.0" fill-opacity="0.0" stroke="rgb(0,0,0)" stroke-width="0.9999999999999997" fill="rgb(0,0,0)" stroke-linecap="butt" stroke-miterlimit="10.0"><path d="M 278.0592,550.0000 v -2.0000 "/></g><g stroke-linejoin="miter" stroke-opacity="1.0" fill-opacity="0.0" stroke="rgb(0,0,0)" stroke-width="0.9999999999999997" fill="rgb(0,0,0)" stroke-linecap="butt" stroke-miterlimit="10.0"><path d="M 293.0607,550.0000 v -2.0000 "/></g><g stroke-linejoin="miter" stroke-opacity="1.0" fill-opacity="0.0" stroke="rgb(0,0,0)" stroke-width="0.9999999999999997" fill="rgb(0,0,0)" stroke-linecap="butt" stroke-miterlimit="10.0"><path d="M 308.0622,550.0000 v -2.0000 "/></g><g stroke-linejoin="miter" stroke-opacity="1.0" fill-opacity="0.0" stroke="rgb(0,0,0)" stroke-width="0.9999999999999997" fill="rgb(0,0,0)" stroke-linecap="butt" stroke-miterlimit="10.0"><path d="M 323.0637,550.0000 v -2.0000 "/></g><g stroke-linejoin="miter" stroke-opacity="1.0" fill-opacity="0.0" stroke="rgb(0,0,0)" stroke-width="0.9999999999999997" fill="rgb(0,0,0)" stroke-linecap="butt" stroke-miterlimit="10.0"><path d="M 338.0651,550.0000 v -2.0000 "/></g><g stroke-linejoin="miter" stroke-opacity="1.0" fill-opacity="0.0" stroke="rgb(0,0,0)" stroke-width="0.9999999999999997" fill="rgb(0,0,0)" stroke-linecap="butt" stroke-miterlimit="10.0"><path d="M 353.0666,550.0000 v -2.0000 "/></g><g stroke-linejoin="miter" stroke-opacity="1.0" fill-opacity="0.0" stroke="rgb(0,0,0)" stroke-width="0.9999999999999997" fill="rgb(0,0,0)" stroke-linecap="butt" stroke-miterlimit="10.0"><path d="M 368.0681,550.0000 v -2.0000 "/></g><g stroke-linejoin="miter" stroke-opacity="1.0" fill-opacity="0.0" stroke="rgb(0,0,0)" stroke-width="0.9999999999999997" fill="rgb(0,0,0)" stroke-linecap="butt" stroke-miterlimit="10.0"><path d="M 383.0695,550.0000 v -2.0000 "/></g><g stroke-linejoin="miter" stroke-opacity="1.0" fill-opacity="0.0" stroke="rgb(0,0,0)" stroke-width="0.9999999999999997" fill="rgb(0,0,0)" stroke-linecap="butt" stroke-miterlimit="10.0"><path d="M 398.0710,550.0000 v -2.0000 "/></g><g stroke-linejoin="miter" stroke-opacity="1.0" fill-opacity="0.0" stroke="rgb(0,0,0)" stroke-width="0.9999999999999997" fill="rgb(0,0,0)" stroke-linecap="butt" stroke-miterlimit="10.0"><path d="M 413.0725,550.0000 v -2.0000 "/></g><g stroke-linejoin="miter" stroke-opacity="1.0" fill-opacity="0.0" stroke="rgb(0,0,0)" stroke-width="0.9999999999999997" fill="rgb(0,0,0)" stroke-linecap="butt" stroke-miterlimit="10.0"><path d="M 428.0739,550.0000 v -2.0000 "/></g><g stroke-linejoin="miter" stroke-opacity="1.0" fill-opacity="0.0" stroke="rgb(0,0,0)" stroke-width="0.9999999999999997" fill="rgb(0,0,0)" stroke-linecap="butt" stroke-miterlimit="10.0"><path d="M 443.0754,550.0000 v -2.0000 "/></g><g stroke-linejoin="miter" stroke-opacity="1.0" fill-opacity="0.0" stroke="rgb(0,0,0)" stroke-width="0.9999999999999997" fill="rgb(0,0,0)" stroke-linecap="butt" stroke-miterlimit="10.0"><path d="M 458.0769,550.0000 v -2.0000 "/></g><g stroke-linejoin="miter" stroke-opacity="1.0" fill-opacity="0.0" stroke="rgb(0,0,0)" stroke-width="0.9999999999999997" fill="rgb(0,0,0)" stroke-linecap="butt" stroke-miterlimit="10.0"><path d="M 473.0784,550.0000 v -2.0000 "/></g><g stroke-linejoin="miter" stroke-opacity="1.0" fill-opacity="0.0" stroke="rgb(0,0,0)" stroke-width="0.9999999999999997" fill="rgb(0,0,0)" stroke-linecap="butt" stroke-miterlimit="10.0"><path d="M 488.0798,550.0000 v -2.0000 "/></g><g stroke-linejoin="miter" stroke-opacity="1.0" fill-opacity="0.0" stroke="rgb(0,0,0)" stroke-width="0.9999999999999997" fill="rgb(0,0,0)" stroke-linecap="butt" stroke-miterlimit="10.0"><path d="M 503.0813,550.0000 v -2.0000 "/></g><g stroke-linejoin="miter" stroke-opacity="1.0" fill-opacity="0.0" stroke="rgb(0,0,0)" stroke-width="0.9999999999999997" fill="rgb(0,0,0)" stroke-linecap="butt" stroke-miterlimit="10.0"><path d="M 518.0828,550.0000 v -2.0000 "/></g><g stroke-linejoin="miter" stroke-opacity="1.0" fill-opacity="0.0" stroke="rgb(0,0,0)" stroke-width="0.9999999999999997" fill="rgb(0,0,0)" stroke-linecap="butt" stroke-miterlimit="10.0"><path d="M 533.0842,550.0000 v -2.0000 "/></g><g stroke-linejoin="miter" stroke-opacity="1.0" fill-opacity="0.0" stroke="rgb(0,0,0)" stroke-width="0.9999999999999997" fill="rgb(0,0,0)" stroke-linecap="butt" stroke-miterlimit="10.0"><path d="M 548.0857,550.0000 v -2.0000 "/></g><g stroke-linejoin="miter" stroke-opacity="1.0" fill-opacity="0.0" stroke="rgb(0,0,0)" stroke-width="0.9999999999999997" fill="rgb(0,0,0)" stroke-linecap="butt" stroke-miterlimit="10.0"><path d="M 563.0872,550.0000 v -2.0000 "/></g><g stroke-linejoin="miter" stroke-opacity="1.0" fill-opacity="0.0" stroke="rgb(0,0,0)" stroke-width="0.9999999999999997" fill="rgb(0,0,0)" stroke-linecap="butt" stroke-miterlimit="10.0"><path d="M 578.0887,550.0000 v -2.0000 "/></g><g stroke-linejoin="miter" stroke-opacity="1.0" fill-opacity="0.0" stroke="rgb(0,0,0)" stroke-width="0.9999999999999997" fill="rgb(0,0,0)" stroke-linecap="butt" stroke-miterlimit="10.0"><path d="M 593.0901,550.0000 v -2.0000 "/></g><g stroke-linejoin="miter" stroke-opacity="1.0" fill-opacity="0.0" stroke="rgb(0,0,0)" stroke-width="0.9999999999999997" fill="rgb(0,0,0)" stroke-linecap="butt" stroke-miterlimit="10.0"><path d="M 608.0916,550.0000 v -2.0000 "/></g><g stroke-linejoin="miter" stroke-opacity="1.0" fill-opacity="0.0" stroke="rgb(0,0,0)" stroke-width="0.9999999999999997" fill="rgb(0,0,0)" stroke-linecap="butt" stroke-miterlimit="10.0"><path d="M 623.0931,550.0000 v -2.0000 "/></g><g stroke-linejoin="miter" stroke-opacity="1.0" fill-opacity="0.0" stroke="rgb(0,0,0)" stroke-width="0.9999999999999997" fill="rgb(0,0,0)" stroke-linecap="butt" stroke-miterlimit="10.0"><path d="M 638.0945,550.0000 v -2.0000 "/></g><g stroke-linejoin="miter" stroke-opacity="1.0" fill-opacity="0.0" stroke="rgb(0,0,0)" stroke-width="0.9999999999999997" fill="rgb(0,0,0)" stroke-linecap="butt" stroke-miterlimit="10.0"><path d="M 653.0960,550.0000 v -2.0000 "/></g><g stroke-linejoin="miter" stroke-opacity="1.0" fill-opacity="0.0" stroke="rgb(0,0,0)" stroke-width="0.9999999999999997" fill="rgb(0,0,0)" stroke-linecap="butt" stroke-miterlimit="10.0"><path d="M 668.0975,550.0000 v -2.0000 "/></g><g stroke-linejoin="miter" stroke-opacity="1.0" fill-opacity="0.0" stroke="rgb(0,0,0)" stroke-width="0.9999999999999997" fill="rgb(0,0,0)" stroke-linecap="butt" stroke-miterlimit="10.0"><path d="M 683.0989,550.0000 v -2.0000 "/></g><g stroke-linejoin="miter" stroke-opacity="1.0" fill-opacity="0.0" stroke="rgb(0,0,0)" stroke-width="0.9999999999999997" fill="rgb(0,0,0)" stroke-linecap="butt" stroke-miterlimit="10.0"><path d="M 698.1004,550.0000 v -2.0000 "/></g><g stroke-linejoin="miter" stroke-opacity="1.0" fill-opacity="0.0" stroke="rgb(0,0,0)" stroke-width="0.9999999999999997" fill="rgb(0,0,0)" stroke-linecap="butt" stroke-miterlimit="10.0"><path d="M 713.1019,550.0000 v -2.0000 "/></g><g stroke-linejoin="miter" stroke-opacity="1.0" fill-opacity="0.0" stroke="rgb(0,0,0)" stroke-width="0.9999999999999997" fill="rgb(0,0,0)" stroke-linecap="butt" stroke-miterlimit="10.0"><path d="M 728.1034,550.0000 v -2.0000 "/></g><g stroke-linejoin="miter" stroke-opacity="1.0" fill-opacity="0.0" stroke="rgb(0,0,0)" stroke-width="0.9999999999999997" fill="rgb(0,0,0)" stroke-linecap="butt" stroke-miterlimit="10.0"><path d="M 743.1048,550.0000 v -2.0000 "/></g><g stroke-linejoin="miter" stroke-opacity="1.0" fill-opacity="0.0" stroke="rgb(0,0,0)" stroke-width="0.9999999999999997" fill="rgb(0,0,0)" stroke-linecap="butt" stroke-miterlimit="10.0"><path d="M 758.1063,550.0000 v -2.0000 "/></g><g stroke-linejoin="miter" stroke-opacity="1.0" fill-opacity="0.0" stroke="rgb(0,0,0)" stroke-width="0.9999999999999997" fill="rgb(0,0,0)" stroke-linecap="butt" stroke-miterlimit="10.0"><path d="M 773.1078,550.0000 v -2.0000 "/></g><g stroke-linejoin="miter" stroke-opacity="1.0" fill-opacity="0.0" stroke="rgb(0,0,0)" stroke-width="0.9999999999999997" fill="rgb(0,0,0)" stroke-linecap="butt" stroke-miterlimit="10.0"><path d="M 788.1092,550.0000 v -2.0000 "/></g><g stroke-linejoin="miter" stroke-opacity="1.0" fill-opacity="0.0" stroke="rgb(0,0,0)" stroke-width="0.9999999999999997" fill="rgb(0,0,0)" stroke-linecap="butt" stroke-miterlimit="10.0"><path d="M 38.0357,550.0000 v -5.0000 "/></g><g stroke-linejoin="miter" stroke-opacity="1.0" fill-opacity="0.0" stroke="rgb(0,0,0)" stroke-width="0.9999999999999997" fill="rgb(0,0,0)" stroke-linecap="butt" stroke-miterlimit="10.0"><path d="M 188.0504,550.0000 v -5.0000 "/></g><g stroke-linejoin="miter" stroke-opacity="1.0" fill-opacity="0.0" stroke="rgb(0,0,0)" stroke-width="0.9999999999999997" fill="rgb(0,0,0)" stroke-linecap="butt" stroke-miterlimit="10.0"><path d="M 338.0651,550.0000 v -5.0000 "/></g><g stroke-linejoin="miter" stroke-opacity="1.0" fill-opacity="0.0" stroke="rgb(0,0,0)" stroke-width="0.9999999999999997" fill="rgb(0,0,0)" stroke-linecap="butt" stroke-miterlimit="10.0"><path d="M 488.0798,550.0000 v -5.0000 "/></g><g stroke-linejoin="miter" stroke-opacity="1.0" fill-opacity="0.0" stroke="rgb(0,0,0)" stroke-width="0.9999999999999997" fill="rgb(0,0,0)" stroke-linecap="butt" stroke-miterlimit="10.0"><path d="M 638.0945,550.0000 v -5.0000 "/></g><g stroke-linejoin="miter" stroke-opacity="1.0" fill-opacity="0.0" stroke="rgb(0,0,0)" stroke-width="0.9999999999999997" fill="rgb(0,0,0)" stroke-linecap="butt" stroke-miterlimit="10.0"><path d="M 788.1092,550.0000 v -5.0000 "/></g><g stroke-linejoin="bevel" stroke-opacity="0.0" fill-opacity="1.0" stroke="rgb(0,0,0)" stroke-width="0.0" fill="rgb(0,0,0)" stroke-linecap="butt" stroke-miterlimit="10.0"><path d="M 35.8876,570.0000 ZM 38.5032,570.1261 c -1.0189,-0.0000 -1.5861,-0.9034 -1.5861 -0.9034c -0.5672,-0.9034 -0.5672,-2.5945 -0.5672 -2.5945c 0.0000,-1.6912 0.5672,-2.5735 0.5672 -2.5735c 0.5672,-0.8824 1.5861,-0.8824 1.5861 -0.8824c 1.0084,0.0000 1.5756,0.8824 1.5756 0.8824c 0.5672,0.8824 0.5672,2.5735 0.5672 2.5735c 0.0000,1.6912 -0.5672,2.5945 -0.5672 2.5945c -0.5672,0.9034 -1.5756,0.9034 -1.5756 0.9034ZM 38.5032,570.1261 ZM 38.5032,569.4328 c 0.2941,0.0000 0.5305,-0.1628 0.5305 -0.1628c 0.2363,-0.1628 0.4097,-0.5042 0.4097 -0.5042c 0.1733,-0.3414 0.2679,-0.8718 0.2679 -0.8718c 0.0945,-0.5305 0.0945,-1.2658 0.0945 -1.2658c 0.0000,-0.7353 -0.0945,-1.2605 -0.0945 -1.2605c -0.0945,-0.5252 -0.2679,-0.8561 -0.2679 -0.8561c -0.1733,-0.3309 -0.4097,-0.4884 -0.4097 -0.4884c -0.2363,-0.1576 -0.5305,-0.1576 -0.5305 -0.1576c -0.2941,-0.0000 -0.5357,0.1576 -0.5357 0.1576c -0.2416,0.1576 -0.4149,0.4884 -0.4149 0.4884c -0.1733,0.3309 -0.2679,0.8561 -0.2679 0.8561c -0.0945,0.5252 -0.0945,1.2605 -0.0945 1.2605c 0.0000,1.4706 0.3624,2.1376 0.3624 2.1376c 0.3624,0.6670 0.9506,0.6670 0.9506 0.6670Z"/></g><g stroke-linejoin="bevel" stroke-opacity="0.0" fill-opacity="1.0" stroke="rgb(0,0,0)" stroke-width="0.0" fill="rgb(0,0,0)" stroke-linecap="butt" stroke-miterlimit="10.0"><path d="M 181.9895,570.0000 ZM 184.6050,570.1261 c -1.0189,-0.0000 -1.5861,-0.9034 -1.5861 -0.9034c -0.5672,-0.9034 -0.5672,-2.5945 -0.5672 -2.5945c 0.0000,-1.6912 0.5672,-2.5735 0.5672 -2.5735c 0.5672,-0.8824 1.5861,-0.8824 1.5861 -0.8824c 1.0084,0.0000 1.5756,0.8824 1.5756 0.8824c 0.5672,0.8824 0.5672,2.5735 0.5672 2.5735c 0.0000,1.6912 -0.5672,2.5945 -0.5672 2.5945c -0.5672,0.9034 -1.5756,0.9034 -1.5756 0.9034ZM 184.6050,570.1261 ZM 184.6050,569.4328 c 0.2941,0.0000 0.5305,-0.1628 0.5305 -0.1628c 0.2363,-0.1628 0.4097,-0.5042 0.4097 -0.5042c 0.1733,-0.3414 0.2679,-0.8718 0.2679 -0.8718c 0.0945,-0.5305 0.0945,-1.2658 0.0945 -1.2658c 0.0000,-0.7353 -0.0945,-1.2605 -0.0945 -1.2605c -0.0945,-0.5252 -0.2679,-0.8561 -0.2679 -0.8561c -0.1733,-0.3309 -0.4097,-0.4884 -0.4097 -0.4884c -0.2363,-0.1576 -0.5305,-0.1576 -0.5305 -0.1576c -0.2941,-0.0000 -0.5357,0.1576 -0.5357 0.1576c -0.2416,0.1576 -0.4149,0.4884 -0.4149 0.4884c -0.1733,0.3309 -0.2679,0.8561 -0.2679 0.8561c -0.0945,0.5252 -0.0945,1.2605 -0.0945 1.2605c 0.0000,1.4706 0.3624,2.1376 0.3624 2.1376c 0.3624,0.6670 0.9506,0.6670 0.9506 0.6670ZM 187.2101,570.0000 ZM 187.8929,569.4748 c 0.0000,-0.3046 0.1838,-0.4884 0.1838 -0.4884c 0.1838,-0.1838 0.4464,-0.1838 0.4464 -0.1838c 0.2521,0.0000 0.4359,0.1838 0.4359 0.1838c 0.1838,0.1838 0.1838,0.4884 0.1838 0.4884c 0.0000,0.2836 -0.1838,0.4674 -0.1838 0.4674c -0.1838,0.1838 -0.4359,0.1838 -0.4359 0.1838c -0.2626,-0.0000 -0.4464,-0.1838 -0.4464 -0.1838c -0.1838,-0.1838 -0.1838,-0.4674 -0.1838 -0.4674ZM 189.8256,570.0000 ZM 190.2458,569.4853 c 0.7563,-0.7563 1.3445,-1.3655 1.3445 -1.3655c 0.5882,-0.6092 0.9874,-1.1292 0.9874 -1.1292c 0.3992,-0.5200 0.6092,-0.9559 0.6092 -0.9559c 0.2101,-0.4359 0.2101,-0.8456 0.2101 -0.8456c 0.0000,-0.5777 -0.3151,-0.9454 -0.3151 -0.9454c -0.3151,-0.3676 -0.9559,-0.3676 -0.9559 -0.3676c -0.4202,-0.0000 -0.7773,0.2363 -0.7773 0.2363c -0.3571,0.2363 -0.6513,0.5725 -0.6513 0.5725l -0.4937,-0.4937 c 0.4202,-0.4622 0.8929,-0.7405 0.8929 -0.7405c 0.4727,-0.2784 1.1345,-0.2784 1.1345 -0.2784c 0.9349,0.0000 1.4706,0.5410 1.4706 0.5410c 0.5357,0.5410 0.5357,1.4338 0.5357 1.4338c 0.0000,0.4727 -0.2048,0.9506 -0.2048 0.9506c -0.2048,0.4779 -0.5672,0.9874 -0.5672 0.9874c -0.3624,0.5095 -0.8613,1.0609 -0.8613 1.0609c -0.4989,0.5515 -1.0977,1.1712 -1.0977 1.1712c 0.2731,-0.0210 0.5672,-0.0420 0.5672 -0.0420c 0.2941,-0.0210 0.5567,-0.0210 0.5567 -0.0210h 1.9433 v 0.7458 h -4.3277 v -0.5147 Z"/></g><g stroke-linejoin="bevel" stroke-opacity="0.0" fill-opacity="1.0" stroke="rgb(0,0,0)" stroke-width="0.0" fill="rgb(0,0,0)" stroke-linecap="butt" stroke-miterlimit="10.0"><path d="M 331.9149,570.0000 ZM 334.5305,570.1261 c -1.0189,-0.0000 -1.5861,-0.9034 -1.5861 -0.9034c -0.5672,-0.9034 -0.5672,-2.5945 -0.5672 -2.5945c 0.0000,-1.6912 0.5672,-2.5735 0.5672 -2.5735c 0.5672,-0.8824 1.5861,-0.8824 1.5861 -0.8824c 1.0084,0.0000 1.5756,0.8824 1.5756 0.8824c 0.5672,0.8824 0.5672,2.5735 0.5672 2.5735c 0.0000,1.6912 -0.5672,2.5945 -0.5672 2.5945c -0.5672,0.9034 -1.5756,0.9034 -1.5756 0.9034ZM 334.5305,570.1261 ZM 334.5305,569.4328 c 0.2941,0.0000 0.5305,-0.1628 0.5305 -0.1628c 0.2363,-0.1628 0.4097,-0.5042 0.4097 -0.5042c 0.1733,-0.3414 0.2679,-0.8718 0.2679 -0.8718c 0.0945,-0.5305 0.0945,-1.2658 0.0945 -1.2658c 0.0000,-0.7353 -0.0945,-1.2605 -0.0945 -1.2605c -0.0945,-0.5252 -0.2679,-0.8561 -0.2679 -0.8561c -0.1733,-0.3309 -0.4097,-0.4884 -0.4097 -0.4884c -0.2363,-0.1576 -0.5305,-0.1576 -0.5305 -0.1576c -0.2941,-0.0000 -0.5357,0.1576 -0.5357 0.1576c -0.2416,0.1576 -0.4149,0.4884 -0.4149 0.4884c -0.1733,0.3309 -0.2679,0.8561 -0.2679 0.8561c -0.0945,0.5252 -0.0945,1.2605 -0.0945 1.2605c 0.0000,1.4706 0.3624,2.1376 0.3624 2.1376c 0.3624,0.6670 0.9506,0.6670 0.9506 0.6670ZM 337.1355,570.0000 ZM 337.8183,569.4748 c 0.0000,-0.3046 0.1838,-0.4884 0.1838 -0.4884c 0.1838,-0.1838 0.4464,-0.1838 0.4464 -0.1838c 0.2521,0.0000 0.4359,0.1838 0.4359 0.1838c 0.1838,0.1838 0.1838,0.4884 0.1838 0.4884c 0.0000,0.2836 -0.1838,0.4674 -0.1838 0.4674c -0.1838,0.1838 -0.4359,0.1838 -0.4359 0.1838c -0.2626,-0.0000 -0.4464,-0.1838 -0.4464 -0.1838c -0.1838,-0.1838 -0.1838,-0.4674 -0.1838 -0.4674ZM 339.7511,570.0000 ZM 342.9443,567.4580 v -1.9433 c 0.0000,-0.2731 0.0158,-0.6460 0.0158 -0.6460c 0.0158,-0.3729 0.0368,-0.6460 0.0368 -0.6460h -0.0420 c -0.1261,0.2416 -0.2626,0.4727 -0.2626 0.4727c -0.1366,0.2311 -0.2836,0.4727 -0.2836 0.4727l -1.5651,2.2899 h 2.1008 ZM 342.9443,567.4580 ZM 344.6775,568.1513 h -0.9139 v 1.8487 h -0.8193 v -1.8487 h -3.0147 v -0.5672 l 2.8676,-4.2857 h 0.9664 v 4.1597 h 0.9139 v 0.6933 Z"/></g><g stroke-linejoin="bevel" stroke-opacity="0.0" fill-opacity="1.0" stroke="rgb(0,0,0)" stroke-width="0.0" fill="rgb(0,0,0)" stroke-linecap="butt" stroke-miterlimit="10.0"><path d="M 481.9926,570.0000 ZM 484.6082,570.1261 c -1.0189,-0.0000 -1.5861,-0.9034 -1.5861 -0.9034c -0.5672,-0.9034 -0.5672,-2.5945 -0.5672 -2.5945c 0.0000,-1.6912 0.5672,-2.5735 0.5672 -2.5735c 0.5672,-0.8824 1.5861,-0.8824 1.5861 -0.8824c 1.0084,0.0000 1.5756,0.8824 1.5756 0.8824c 0.5672,0.8824 0.5672,2.5735 0.5672 2.5735c 0.0000,1.6912 -0.5672,2.5945 -0.5672 2.5945c -0.5672,0.9034 -1.5756,0.9034 -1.5756 0.9034ZM 484.6082,570.1261 ZM 484.6082,569.4328 c 0.2941,0.0000 0.5305,-0.1628 0.5305 -0.1628c 0.2363,-0.1628 0.4097,-0.5042 0.4097 -0.5042c 0.1733,-0.3414 0.2679,-0.8718 0.2679 -0.8718c 0.0945,-0.5305 0.0945,-1.2658 0.0945 -1.2658c 0.0000,-0.7353 -0.0945,-1.2605 -0.0945 -1.2605c -0.0945,-0.5252 -0.2679,-0.8561 -0.2679 -0.8561c -0.1733,-0.3309 -0.4097,-0.4884 -0.4097 -0.4884c -0.2363,-0.1576 -0.5305,-0.1576 -0.5305 -0.1576c -0.2941,-0.0000 -0.5357,0.1576 -0.5357 0.1576c -0.2416,0.1576 -0.4149,0.4884 -0.4149 0.4884c -0.1733,0.3309 -0.2679,0.8561 -0.2679 0.8561c -0.0945,0.5252 -0.0945,1.2605 -0.0945 1.2605c 0.0000,1.4706 0.3624,2.1376 0.3624 2.1376c 0.3624,0.6670 0.9506,0.6670 0.9506 0.6670ZM 487.2132,570.0000 ZM 487.8960,569.4748 c 0.0000,-0.3046 0.1838,-0.4884 0.1838 -0.4884c 0.1838,-0.1838 0.4464,-0.1838 0.4464 -0.1838c 0.2521,0.0000 0.4359,0.1838 0.4359 0.1838c 0.1838,0.1838 0.1838,0.4884 0.1838 0.4884c 0.0000,0.2836 -0.1838,0.4674 -0.1838 0.4674c -0.1838,0.1838 -0.4359,0.1838 -0.4359 0.1838c -0.2626,-0.0000 -0.4464,-0.1838 -0.4464 -0.1838c -0.1838,-0.1838 -0.1838,-0.4674 -0.1838 -0.4674ZM 489.8288,570.0000 ZM 492.6439,569.4433 c 0.2521,0.0000 0.4622,-0.1050 0.4622 -0.1050c 0.2101,-0.1050 0.3676,-0.2994 0.3676 -0.2994c 0.1576,-0.1943 0.2468,-0.4622 0.2468 -0.4622c 0.0893,-0.2679 0.0893,-0.6040 0.0893 -0.6040c 0.0000,-0.6618 -0.3046,-1.0399 -0.3046 -1.0399c -0.3046,-0.3782 -0.9349,-0.3782 -0.9349 -0.3782c -0.3151,-0.0000 -0.6880,0.2048 -0.6880 0.2048c -0.3729,0.2048 -0.7090,0.6775 -0.7090 0.6775c 0.0840,0.9874 0.4569,1.4968 0.4569 1.4968c 0.3729,0.5095 1.0137,0.5095 1.0137 0.5095ZM 492.6439,569.4433 ZM 494.0200,564.4223 c -0.2101,-0.2416 -0.4989,-0.3834 -0.4989 -0.3834c -0.2889,-0.1418 -0.6040,-0.1418 -0.6040 -0.1418c -0.3466,-0.0000 -0.6618,0.1471 -0.6618 0.1471c -0.3151,0.1471 -0.5567,0.4832 -0.5567 0.4832c -0.2416,0.3361 -0.3887,0.8771 -0.3887 0.8771c -0.1471,0.5410 -0.1576,1.3393 -0.1576 1.3393c 0.3151,-0.3887 0.7353,-0.6145 0.7353 -0.6145c 0.4202,-0.2258 0.8298,-0.2258 0.8298 -0.2258c 0.8718,0.0000 1.3918,0.5147 1.3918 0.5147c 0.5200,0.5147 0.5200,1.5546 0.5200 1.5546c 0.0000,0.4832 -0.1576,0.8771 -0.1576 0.8771c -0.1576,0.3939 -0.4307,0.6775 -0.4307 0.6775c -0.2731,0.2836 -0.6303,0.4412 -0.6303 0.4412c -0.3571,0.1576 -0.7668,0.1576 -0.7668 0.1576c -0.4937,-0.0000 -0.9139,-0.1996 -0.9139 -0.1996c -0.4202,-0.1996 -0.7300,-0.6040 -0.7300 -0.6040c -0.3099,-0.4044 -0.4884,-1.0084 -0.4884 -1.0084c -0.1786,-0.6040 -0.1786,-1.4128 -0.1786 -1.4128c 0.0000,-1.0084 0.2101,-1.7174 0.2101 -1.7174c 0.2101,-0.7090 0.5672,-1.1555 0.5672 -1.1555c 0.3571,-0.4464 0.8141,-0.6513 0.8141 -0.6513c 0.4569,-0.2048 0.9611,-0.2048 0.9611 -0.2048c 0.5462,0.0000 0.9401,0.2048 0.9401 0.2048c 0.3939,0.2048 0.6775,0.5095 0.6775 0.5095Z"/></g><g stroke-linejoin="bevel" stroke-opacity="0.0" fill-opacity="1.0" stroke="rgb(0,0,0)" stroke-width="0.0" fill="rgb(0,0,0)" stroke-linecap="butt" stroke-miterlimit="10.0"><path d="M 632.0126,570.0000 ZM 634.6282,570.1261 c -1.0189,-0.0000 -1.5861,-0.9034 -1.5861 -0.9034c -0.5672,-0.9034 -0.5672,-2.5945 -0.5672 -2.5945c 0.0000,-1.6912 0.5672,-2.5735 0.5672 -2.5735c 0.5672,-0.8824 1.5861,-0.8824 1.5861 -0.8824c 1.0084,0.0000 1.5756,0.8824 1.5756 0.8824c 0.5672,0.8824 0.5672,2.5735 0.5672 2.5735c 0.0000,1.6912 -0.5672,2.5945 -0.5672 2.5945c -0.5672,0.9034 -1.5756,0.9034 -1.5756 0.9034ZM 634.6282,570.1261 ZM 634.6282,569.4328 c 0.2941,0.0000 0.5305,-0.1628 0.5305 -0.1628c 0.2363,-0.1628 0.4097,-0.5042 0.4097 -0.5042c 0.1733,-0.3414 0.2679,-0.8718 0.2679 -0.8718c 0.0945,-0.5305 0.0945,-1.2658 0.0945 -1.2658c 0.0000,-0.7353 -0.0945,-1.2605 -0.0945 -1.2605c -0.0945,-0.5252 -0.2679,-0.8561 -0.2679 -0.8561c -0.1733,-0.3309 -0.4097,-0.4884 -0.4097 -0.4884c -0.2363,-0.1576 -0.5305,-0.1576 -0.5305 -0.1576c -0.2941,-0.0000 -0.5357,0.1576 -0.5357 0.1576c -0.2416,0.1576 -0.4149,0.4884 -0.4149 0.4884c -0.1733,0.3309 -0.2679,0.8561 -0.2679 0.8561c -0.0945,0.5252 -0.0945,1.2605 -0.0945 1.2605c 0.0000,1.4706 0.3624,2.1376 0.3624 2.1376c 0.3624,0.6670 0.9506,0.6670 0.9506 0.6670ZM 637.2332,570.0000 ZM 637.9160,569.4748 c 0.0000,-0.3046 0.1838,-0.4884 0.1838 -0.4884c 0.1838,-0.1838 0.4464,-0.1838 0.4464 -0.1838c 0.2521,0.0000 0.4359,0.1838 0.4359 0.1838c 0.1838,0.1838 0.1838,0.4884 0.1838 0.4884c 0.0000,0.2836 -0.1838,0.4674 -0.1838 0.4674c -0.1838,0.1838 -0.4359,0.1838 -0.4359 0.1838c -0.2626,-0.0000 -0.4464,-0.1838 -0.4464 -0.1838c -0.1838,-0.1838 -0.1838,-0.4674 -0.1838 -0.4674ZM 639.8487,570.0000 ZM 641.0567,568.2038 c 0.0000,0.2836 0.1103,0.5147 0.1103 0.5147c 0.1103,0.2311 0.3046,0.4044 0.3046 0.4044c 0.1943,0.1733 0.4569,0.2679 0.4569 0.2679c 0.2626,0.0945 0.5672,0.0945 0.5672 0.0945c 0.5882,0.0000 0.9506,-0.3256 0.9506 -0.3256c 0.3624,-0.3256 0.3624,-0.8508 0.3624 -0.8508c 0.0000,-0.3256 -0.1471,-0.5567 -0.1471 -0.5567c -0.1471,-0.2311 -0.3992,-0.4044 -0.3992 -0.4044c -0.2521,-0.1733 -0.5830,-0.3151 -0.5830 -0.3151c -0.3309,-0.1418 -0.6880,-0.2889 -0.6880 -0.2889c -0.3992,0.2731 -0.6670,0.6355 -0.6670 0.6355c -0.2679,0.3624 -0.2679,0.8246 -0.2679 0.8246ZM 641.0567,568.2038 ZM 642.9475,566.3445 c 0.3361,-0.3046 0.5200,-0.6408 0.5200 -0.6408c 0.1838,-0.3361 0.1838,-0.7038 0.1838 -0.7038c 0.0000,-0.5042 -0.3046,-0.8456 -0.3046 -0.8456c -0.3046,-0.3414 -0.8613,-0.3414 -0.8613 -0.3414c -0.4727,-0.0000 -0.7773,0.2941 -0.7773 0.2941c -0.3046,0.2941 -0.3046,0.7878 -0.3046 0.7878c 0.0000,0.3046 0.1261,0.5200 0.1261 0.5200c 0.1261,0.2153 0.3414,0.3834 0.3414 0.3834c 0.2153,0.1681 0.4937,0.2994 0.4937 0.2994c 0.2784,0.1313 0.5830,0.2468 0.5830 0.2468ZM 642.9475,566.3445 ZM 640.2794,568.2878 c 0.0000,-0.3256 0.1103,-0.6040 0.1103 -0.6040c 0.1103,-0.2784 0.2836,-0.5042 0.2836 -0.5042c 0.1733,-0.2258 0.3992,-0.3992 0.3992 -0.3992c 0.2258,-0.1733 0.4674,-0.2994 0.4674 -0.2994v -0.0420 c -0.3676,-0.2626 -0.6513,-0.6355 -0.6513 -0.6355c -0.2836,-0.3729 -0.2836,-0.9086 -0.2836 -0.9086c 0.0000,-0.3887 0.1471,-0.7038 0.1471 -0.7038c 0.1471,-0.3151 0.3992,-0.5410 0.3992 -0.5410c 0.2521,-0.2258 0.5987,-0.3519 0.5987 -0.3519c 0.3466,-0.1261 0.7563,-0.1261 0.7563 -0.1261c 0.4412,0.0000 0.7878,0.1313 0.7878 0.1313c 0.3466,0.1313 0.5935,0.3676 0.5935 0.3676c 0.2468,0.2363 0.3782,0.5672 0.3782 0.5672c 0.1313,0.3309 0.1313,0.7195 0.1313 0.7195c 0.0000,0.2626 -0.0893,0.5042 -0.0893 0.5042c -0.0893,0.2416 -0.2206,0.4517 -0.2206 0.4517c -0.1313,0.2101 -0.2941,0.3782 -0.2941 0.3782c -0.1628,0.1681 -0.3204,0.2836 -0.3204 0.2836v 0.0420 c 0.2206,0.1261 0.4307,0.2889 0.4307 0.2889c 0.2101,0.1628 0.3729,0.3676 0.3729 0.3676c 0.1628,0.2048 0.2626,0.4674 0.2626 0.4674c 0.0998,0.2626 0.0998,0.5987 0.0998 0.5987c 0.0000,0.3782 -0.1576,0.7038 -0.1576 0.7038c -0.1576,0.3256 -0.4412,0.5672 -0.4412 0.5672c -0.2836,0.2416 -0.6828,0.3782 -0.6828 0.3782c -0.3992,0.1366 -0.8824,0.1366 -0.8824 0.1366c -0.4727,-0.0000 -0.8771,-0.1366 -0.8771 -0.1366c -0.4044,-0.1366 -0.6933,-0.3834 -0.6933 -0.3834c -0.2889,-0.2468 -0.4569,-0.5830 -0.4569 -0.5830c -0.1681,-0.3361 -0.1681,-0.7353 -0.1681 -0.7353Z"/></g><g stroke-linejoin="bevel" stroke-opacity="0.0" fill-opacity="1.0" stroke="rgb(0,0,0)" stroke-width="0.0" fill="rgb(0,0,0)" stroke-linecap="butt" stroke-miterlimit="10.0"><path d="M 786.2185,570.0000 ZM 787.0483,569.2857 h 1.5336 v -4.9370 h -1.2185 v -0.5567 c 0.4622,-0.0840 0.8036,-0.2048 0.8036 -0.2048c 0.3414,-0.1208 0.6145,-0.2889 0.6145 -0.2889h 0.6618 v 5.9874 h 1.3866 v 0.7143 h -3.7815 v -0.7143 Z"/></g><g stroke-linejoin="round" stroke-opacity="1.0" fill-opacity="0.0" stroke="rgb(0,0,255)" stroke-width="0.9999999999999997" fill="rgb(0,0,0)" stroke-linecap="round" stroke-miterlimit="10.0"><path d="M 10.0000,585.0000 h 20.0000 "/></g><g stroke-linejoin="bevel" stroke-opacity="0.0" fill-opacity="1.0" stroke="rgb(0,0,0)" stroke-width="0.0" fill="rgb(0,0,0)" stroke-linecap="butt" stroke-miterlimit="10.0"><path d="M 35.0735,586.6071 ZM 35.8613,581.5021 h 0.8718 v 3.1197 c 0.0000,0.7248 0.2258,1.0452 0.2258 1.0452c 0.2258,0.3204 0.7300,0.3204 0.7300 0.3204c 0.3992,0.0000 0.7038,-0.2048 0.7038 -0.2048c 0.3046,-0.2048 0.6723,-0.6565 0.6723 -0.6565v -3.6239 h 0.8613 v 5.1050 h -0.7143 l -0.0735,-0.7983 h -0.0315 c -0.3571,0.4202 -0.7511,0.6723 -0.7511 0.6723c -0.3939,0.2521 -0.9296,0.2521 -0.9296 0.2521c -0.8193,-0.0000 -1.1922,-0.5042 -1.1922 -0.5042c -0.3729,-0.5042 -0.3729,-1.4916 -0.3729 -1.4916v -3.2353 ZM 40.7878,586.6071 ZM 43.0357,588.4559 c -0.6513,-1.0504 -1.0189,-2.2164 -1.0189 -2.2164c -0.3676,-1.1660 -0.3676,-2.5525 -0.3676 -2.5525c 0.0000,-1.3866 0.3676,-2.5473 0.3676 -2.5473c 0.3676,-1.1607 1.0189,-2.2216 1.0189 -2.2216l 0.5357,0.2521 c -0.6092,1.0084 -0.9086,2.1586 -0.9086 2.1586c -0.2994,1.1502 -0.2994,2.3582 -0.2994 2.3582c 0.0000,1.2080 0.2994,2.3582 0.2994 2.3582c 0.2994,1.1502 0.9086,2.1586 0.9086 2.1586l -0.5357,0.2521 h 0.0000 ZM 43.9706,586.6071 ZM 45.7878,583.9391 l -1.5441,-2.4370 h 0.9349 l 0.6828,1.1239 c 0.1155,0.2101 0.2416,0.4254 0.2416 0.4254c 0.1261,0.2153 0.2626,0.4254 0.2626 0.4254h 0.0420 c 0.1155,-0.2101 0.2311,-0.4254 0.2311 -0.4254c 0.1155,-0.2153 0.2311,-0.4254 0.2311 -0.4254l 0.6197,-1.1239 h 0.9034 l -1.5441,2.5315 l 1.6597,2.5735 h -0.9349 l -0.7458,-1.1870 l -0.2731,-0.4622 c 0.0000,0.0000 -0.2836,-0.4517 -0.2836 -0.4517h -0.0420 c -0.1366,0.2206 -0.2626,0.4464 -0.2626 0.4464c -0.1261,0.2258 -0.2521,0.4674 -0.2521 0.4674l -0.6933,1.1870 h -0.9034 ZM 48.6555,586.6071 ZM 49.0546,588.2038 c 0.6092,-1.0084 0.9086,-2.1586 0.9086 -2.1586c 0.2994,-1.1502 0.2994,-2.3582 0.2994 -2.3582c 0.0000,-1.2080 -0.2994,-2.3582 -0.2994 -2.3582c -0.2994,-1.1502 -0.9086,-2.1586 -0.9086 -2.1586l 0.5357,-0.2521 c 0.6513,1.0609 1.0189,2.2216 1.0189 2.2216c 0.3676,1.1607 0.3676,2.5473 0.3676 2.5473c 0.0000,1.3866 -0.3676,2.5525 -0.3676 2.5525c -0.3676,1.1660 -1.0189,2.2164 -1.0189 2.2164l -0.5357,-0.2521 h 0.0000 Z"/></g></svg>